<svg xmlns="http://www.w3.org/2000/svg" width="120" height="60">
    <g style="isolation:isolate">
        <path d="M36.947 27.419h2.33l3.487 9.854h-2.233l-.65-2.025h-3.629l-.668 2.025H33.43zm-.135 6.131h2.524l-1.245-3.878zM44.959 28.449a4.594 4.594 0 0 1 6.627.414 3.568 3.568 0 0 1 .675 1.839H50.2a2.808 2.808 0 0 0-.5-1.07 2.029 2.029 0 0 0-1.631-.642 2.008 2.008 0 0 0-1.735.906 4.419 4.419 0 0 0-.634 2.564 3.879 3.879 0 0 0 .671 2.483 2.1 2.1 0 0 0 1.7.827 1.934 1.934 0 0 0 1.616-.709 3.087 3.087 0 0 0 .509-1.144h2.044a4.439 4.439 0 0 1-1.352 2.621 3.938 3.938 0 0 1-2.787 1.01 4.186 4.186 0 0 1-3.308-1.364 5.5 5.5 0 0 1-1.2-3.757 5.444 5.444 0 0 1 1.366-3.978zM61.065 27.419v1.745h-2.948v8.109h-2.072v-8.109h-2.962v-1.745zM64.147 37.273H62.1v-9.854h2.045zM71.838 27.419h2.14l-3.36 9.854h-1.945l-3.333-9.854h2.2l2.139 7.481zM82.491 29.164h-5.215v2.093h4.787v1.711h-4.787V35.5h5.455v1.771h-7.466v-9.852h7.226z"/>
    </g>
    <g style="isolation:isolate">
        <path d="M36.683 21.483h.617l1.468 4.044h-.6l-.423-1.211H36.16l-.438 1.211h-.562zm.908 2.387l-.622-1.786-.648 1.786zM39.155 22.593h.485v.39a1.212 1.212 0 0 1 .325-.31 1.044 1.044 0 0 1 .591-.165 1.109 1.109 0 0 1 .852.384 1.562 1.562 0 0 1 .351 1.1 1.681 1.681 0 0 1-.505 1.377 1.149 1.149 0 0 1-.747.261 1.012 1.012 0 0 1-.561-.146 1.258 1.258 0 0 1-.3-.283V26.7h-.495zM41.02 24.9a1.385 1.385 0 0 0 .23-.869 1.6 1.6 0 0 0-.1-.605.749.749 0 0 0-1.414.027 2.041 2.041 0 0 0-.1.7 1.477 1.477 0 0 0 .1.581.754.754 0 0 0 1.287.167zM43.912 23.743a.268.268 0 0 0 .229-.142.448.448 0 0 0 .033-.192.405.405 0 0 0-.18-.368.956.956 0 0 0-.515-.115.648.648 0 0 0-.549.211.673.673 0 0 0-.118.345h-.463a.85.85 0 0 1 .353-.76 1.442 1.442 0 0 1 .787-.214 1.6 1.6 0 0 1 .845.2.673.673 0 0 1 .321.616v1.7a.221.221 0 0 0 .032.124.153.153 0 0 0 .133.046h.075c.028 0 .057-.007.088-.013v.366a1.265 1.265 0 0 1-.176.041 1.183 1.183 0 0 1-.165.009.405.405 0 0 1-.371-.182.665.665 0 0 1-.086-.272 1.256 1.256 0 0 1-.435.343 1.336 1.336 0 0 1-.625.146.928.928 0 0 1-.67-.248.826.826 0 0 1-.261-.623.8.8 0 0 1 .256-.635 1.225 1.225 0 0 1 .672-.278zm-1.043 1.339a.586.586 0 0 0 .371.123 1.125 1.125 0 0 0 .507-.121.681.681 0 0 0 .413-.656v-.4a.878.878 0 0 1-.233.1 2.14 2.14 0 0 1-.281.055l-.3.039a1.133 1.133 0 0 0-.406.112.44.44 0 0 0-.229.412.409.409 0 0 0 .158.336zM47.415 22.736a1.157 1.157 0 0 1 .376.834h-.481a.9.9 0 0 0-.2-.453.634.634 0 0 0-.5-.18.7.7 0 0 0-.676.461 1.847 1.847 0 0 0-.132.741 1.389 1.389 0 0 0 .186.745.728.728 0 0 0 1.073.116 1.035 1.035 0 0 0 .249-.514h.481a1.163 1.163 0 0 1-1.258 1.128 1.126 1.126 0 0 1-.922-.422 1.618 1.618 0 0 1-.344-1.055 1.781 1.781 0 0 1 .377-1.209 1.22 1.22 0 0 1 .96-.432 1.281 1.281 0 0 1 .811.24zM48.286 21.47h.495v1.509a1.447 1.447 0 0 1 .318-.315 1.068 1.068 0 0 1 .6-.156.883.883 0 0 1 .87.448 1.529 1.529 0 0 1 .124.68v1.891h-.513v-1.858a1.056 1.056 0 0 0-.082-.476.527.527 0 0 0-.507-.242.842.842 0 0 0-.559.212 1.018 1.018 0 0 0-.251.8v1.563h-.495zM53.243 22.66a1.115 1.115 0 0 1 .445.382 1.292 1.292 0 0 1 .2.52 3.429 3.429 0 0 1 .044.65h-2.147a1.276 1.276 0 0 0 .211.722.7.7 0 0 0 .608.271.788.788 0 0 0 .616-.257.886.886 0 0 0 .18-.348h.488a1.048 1.048 0 0 1-.128.362 1.357 1.357 0 0 1-.243.326 1.148 1.148 0 0 1-.555.3 1.686 1.686 0 0 1-.4.044 1.232 1.232 0 0 1-.928-.4 1.564 1.564 0 0 1-.38-1.122 1.7 1.7 0 0 1 .383-1.153 1.264 1.264 0 0 1 1-.443 1.329 1.329 0 0 1 .606.146zm.178 1.158a1.312 1.312 0 0 0-.14-.515.711.711 0 0 0-.674-.358.747.747 0 0 0-.568.246.944.944 0 0 0-.243.627z"/>
    </g>
    <g style="isolation:isolate" fill="#c12766">
        <path d="M95.524 27.419h2.963v9.854h-1.919v-6.665c0-.191 0-.46.007-.8s.007-.613.007-.8l-1.867 8.269h-2L90.859 29c0 .186 0 .453.007.8s.006.614.006.8v6.665h-1.918v-9.846h3l1.794 7.749zM109.15 34.392a3.656 3.656 0 0 1-.766 1.408l1.132 1.065-1.075 1.121-1.183-1.123a4.157 4.157 0 0 1-2.523.685 4.536 4.536 0 0 1-3.184-1.151 5.205 5.205 0 0 1-1.527-4.064 5.167 5.167 0 0 1 1.565-4.085 4.619 4.619 0 0 1 3.176-1.13 4.56 4.56 0 0 1 3.209 1.2 5.009 5.009 0 0 1 1.5 3.871 6.55 6.55 0 0 1-.324 2.203zm-3.736 1.324a3.3 3.3 0 0 0 .462-.168l-1-.948 1.059-1.105 1 .943a4.55 4.55 0 0 0 .328-.842 4.855 4.855 0 0 0 .147-1.264 4.2 4.2 0 0 0-.679-2.562 2.32 2.32 0 0 0-1.982-.907 2.419 2.419 0 0 0-1.952.869 3.971 3.971 0 0 0-.729 2.6 3.592 3.592 0 0 0 1.044 2.9 2.431 2.431 0 0 0 1.618.569 2.684 2.684 0 0 0 .684-.085z"/>
    </g>
    <path d="M28.936 35.307l-6.152-.019-3.06-5.337 3.093-5.319 6.152.019 3.059 5.338z" fill="#c12766"/>
    <path d="M19.212 40.886l-6.152-.019L10 35.529l3.093-5.318 6.152.019 3.055 5.337z" fill="#3e489f"/>
    <path d="M28.875 46.492l-6.152-.019-3.059-5.338 3.092-5.318 6.152.019 3.06 5.337z" fill="#714099"/>
    <path d="M19.263 29.77l-6.152-.019-3.06-5.338 3.093-5.313 6.152.019 3.06 5.337z" fill="#78932c"/>
    <path d="M28.931 24.183l-6.152-.019-3.06-5.337 3.093-5.319 6.152.019 3.06 5.338z" fill="#cf242a"/>
    <circle cx="25.872" cy="18.846" r=".932" fill="#fff"/>
    <circle cx="16.203" cy="24.432" r=".932" fill="#fff"/>
    <circle cx="16.152" cy="35.548" r=".932" fill="#fff"/>
    <circle cx="25.816" cy="41.154" r=".932" fill="#fff"/>
    <path fill="#fff" d="M16.466 23.343l8.465-4.85.703 1.227-8.466 4.85zM15.462 25.163l1.413-.005.028 9.756-1.413.004zM16.478 36.563l.722-1.215 8.387 4.983-.721 1.214z"/>
    <circle cx="25.876" cy="29.97" r=".932" fill="#fff"/>
    <path fill="#fff" d="M25.136 19.504l1.413-.004.029 9.756-1.413.004zM25.192 30.684l1.413-.004.03 9.756-1.414.004z"/>
    <path fill="#fff" d="M16.48 34.555l8.465-4.85.703 1.227-8.466 4.85z"/>
    <path fill="#fff" d="M16.509 25.448l.722-1.215 8.387 4.983-.721 1.215z"/>
</svg>
