<svg xmlns="http://www.w3.org/2000/svg" width="120" height="60">
    <path d="M49.237 27.38a9.1 9.1 0 0 0 .534 1.2.72.72 0 0 1 .117.384.661.661 0 0 1-.317.5l-1.051.7a.8.8 0 0 1-.434.15.761.761 0 0 1-.5-.234 5.131 5.131 0 0 1-.6-.784c-.167-.283-.334-.6-.517-.984a6.165 6.165 0 0 1-4.906 2.3 4.573 4.573 0 0 1-3.337-1.2 4.289 4.289 0 0 1-1.234-3.2 4.3 4.3 0 0 1 1.518-3.437 6.073 6.073 0 0 1 4.088-1.3 13.269 13.269 0 0 1 1.768.133c.618.084 1.252.217 1.919.367v-1.219a3.7 3.7 0 0 0-.784-2.669 3.842 3.842 0 0 0-2.72-.768 7.6 7.6 0 0 0-1.8.217 13.371 13.371 0 0 0-1.8.567 4.685 4.685 0 0 1-.584.217.99.99 0 0 1-.267.05c-.233 0-.35-.166-.35-.517v-.817a1.049 1.049 0 0 1 .117-.584 1.242 1.242 0 0 1 .467-.351 9.672 9.672 0 0 1 2.1-.751 10.113 10.113 0 0 1 2.6-.317 6.1 6.1 0 0 1 4.372 1.352 5.524 5.524 0 0 1 1.385 4.1s-.024 4.886 0 5.406a6.563 6.563 0 0 0 .216 1.489zm-6.957 1.052a5.412 5.412 0 0 0 1.718-.3 3.707 3.707 0 0 0 1.585-1.068A2.648 2.648 0 0 0 46.151 26a6 6 0 0 0 .167-1.452v-.7a13.762 13.762 0 0 0-1.535-.283 12.539 12.539 0 0 0-1.569-.1 3.844 3.844 0 0 0-2.486.668 2.324 2.324 0 0 0-.818 1.919 2.154 2.154 0 0 0 2.37 2.386zm14.833 1.8a1.031 1.031 0 0 0 .667-.167 1.3 1.3 0 0 0 .32-.665l2.57-10.745 2.586 10.762a1.182 1.182 0 0 0 .317.667 1 1 0 0 0 .667.167h1.435a1.059 1.059 0 0 0 .634-.167 1.274 1.274 0 0 0 .351-.65l4.021-12.9a2.373 2.373 0 0 0 .117-.417 1.747 1.747 0 0 0 .033-.267.371.371 0 0 0-.417-.417h-1.555a1.086 1.086 0 0 0-.65.167 1.427 1.427 0 0 0-.334.65l-2.887 11.18-2.636-11.179a1.126 1.126 0 0 0-.317-.65 1 1 0 0 0-.667-.167h-1.335a1.15 1.15 0 0 0-.668.167 1.177 1.177 0 0 0-.317.65L56.445 27.3l-2.8-11.046a1.365 1.365 0 0 0-.333-.65.925.925 0 0 0-.651-.167h-1.638a.366.366 0 0 0-.4.417 2.879 2.879 0 0 0 .151.667l3.921 12.9a1.355 1.355 0 0 0 .35.651.93.93 0 0 0 .634.167zm22.391.1a5.376 5.376 0 0 0 1.852-.935 4.487 4.487 0 0 0 1.219-1.468A4.3 4.3 0 0 0 83.008 26a3.776 3.776 0 0 0-.767-2.336 5.077 5.077 0 0 0-2.586-1.6l-2.37-.751a4.992 4.992 0 0 1-1.835-.918 1.574 1.574 0 0 1-.5-1.184 1.61 1.61 0 0 1 .785-1.485 4.306 4.306 0 0 1 2.219-.467 7.629 7.629 0 0 1 3.2.65 1.728 1.728 0 0 0 .634.2c.251 0 .384-.183.384-.533v-.785a.9.9 0 0 0-.15-.55 1.436 1.436 0 0 0-.5-.417 3.579 3.579 0 0 0-.7-.3c-.3-.1-.618-.183-.951-.267-.351-.066-.7-.133-1.085-.183A8.387 8.387 0 0 0 77.669 15a7.242 7.242 0 0 0-2.1.284 5.307 5.307 0 0 0-1.736.867 4.3 4.3 0 0 0-1.2 1.368 3.72 3.72 0 0 0-.45 1.853 3.973 3.973 0 0 0 .834 2.419 5.084 5.084 0 0 0 2.67 1.7l2.419.751a4.188 4.188 0 0 1 1.685.867 1.627 1.627 0 0 1 .451 1.168 1.8 1.8 0 0 1-.868 1.585 4.5 4.5 0 0 1-2.436.551 10.061 10.061 0 0 1-1.986-.2 9.131 9.131 0 0 1-1.835-.584c-.167-.067-.317-.134-.417-.167a.925.925 0 0 0-.3-.05c-.251 0-.384.167-.384.517v.851a1.172 1.172 0 0 0 .1.467 1.2 1.2 0 0 0 .517.467 7.559 7.559 0 0 0 1.919.668 11.051 11.051 0 0 0 2.569.3 7.949 7.949 0 0 0 2.379-.348z" fill="#252f3e"/>
    <path d="M80.272 38.793C74.783 42.848 66.807 45 59.949 45a36.766 36.766 0 0 1-24.811-9.461c-.517-.467-.05-1.1.568-.734A50.031 50.031 0 0 0 60.533 41.4a49.545 49.545 0 0 0 18.938-3.871c.918-.421 1.702.597.801 1.264zm.834 3.654c-.2.5.234.7.684.317 2.937-2.469 3.7-7.625 3.1-8.376-.6-.734-5.757-1.368-8.893.834-.484.351-.4.818.133.751 1.785-.217 5.723-.684 6.424.217.705.885-.78 4.61-1.448 6.257z" fill="#f90"/>
</svg>
