<svg xmlns="http://www.w3.org/2000/svg" width="120" height="60">
    <g fill="#1a1918">
        <path d="M51.317 52.461a.256.256 0 0 1-.219-.1l-2.493-3.278v3.344h-.568v-4.116a.3.3 0 0 1 .29-.3.258.258 0 0 1 .226.105l2.486 3.271v-3.33h.569v4.11a.286.286 0 0 1-.291.289M56.019 52.5a4.924 4.924 0 0 1-1.718-.328l.136-.472a5.321 5.321 0 0 0 1.582.282c.717 0 1.091-.256 1.091-.616 0-.328-.29-.492-1.291-.964s-1.4-.774-1.4-1.364c0-.74.568-1.042 1.64-1.042a6.384 6.384 0 0 1 1.524.21l-.09.485a6.48 6.48 0 0 0-1.421-.177c-.755 0-1.065.144-1.065.5s.225.505 1.285 1c1.117.518 1.4.78 1.4 1.318 0 .78-.736 1.167-1.679 1.167M60.391 48.062h.588v4.366h-.588zM65.977 50.448h-1.459v1.482h1.459a.743.743 0 1 0 0-1.482m-.284-1.888h-1.175v1.4h1.175a.745.745 0 0 0 .814-.721c0-.413-.3-.675-.814-.675m.291 3.868h-1.757a.293.293 0 0 1-.3-.295v-3.78a.3.3 0 0 1 .3-.3h1.453c.891 0 1.421.439 1.421 1.127a1.1 1.1 0 0 1-.556.925 1.114 1.114 0 0 1 .833 1.062 1.3 1.3 0 0 1-1.394 1.252M70.2 52.428a.3.3 0 0 1-.291-.295v-4.071h.591V51.9h2.338v.531zM76.842 52.5c-1.2 0-1.925-.446-1.925-1.344a1.09 1.09 0 0 1 .7-1.023 1.1 1.1 0 0 1-.568-.937c0-.813.626-1.2 1.8-1.2a6.964 6.964 0 0 1 1.414.151l-.065.485a8.754 8.754 0 0 0-1.395-.125c-.762 0-1.169.21-1.169.715a.792.792 0 0 0 .872.715h1.014a.252.252 0 0 1 0 .5h-1.085c-.569 0-.93.282-.93.715 0 .636.588.826 1.324.826a6.474 6.474 0 0 0 1.382-.157l.084.478a5.729 5.729 0 0 1-1.453.2M43.663 48.88l1.03 2.579-1.555-1.243zm1.829 3.173l-1.583-3.868a.256.256 0 0 0-.246-.17.264.264 0 0 0-.251.17l-1.738 4.243h.594l.688-1.749 2.053 1.683a.33.33 0 0 0 .219.1.286.286 0 0 0 .291-.289.409.409 0 0 0-.027-.119z"/>
    </g>
    <path d="M78.326 25.791A18.292 18.292 0 1 1 60.035 7.5a18.29 18.29 0 0 1 18.291 18.291" fill="#1a1918"/>
    <path d="M60.342 18.674l4.734 11.682-7.15-5.632zm8.409 14.374L61.47 15.525a1.174 1.174 0 0 0-1.128-.772 1.214 1.214 0 0 0-1.159.772l-7.991 19.22h2.734l3.163-7.924 9.441 7.626a1.532 1.532 0 0 0 1.009.446 1.3 1.3 0 0 0 1.337-1.306 1.706 1.706 0 0 0-.125-.539z" fill="#fff"/>
</svg>
