<svg xmlns="http://www.w3.org/2000/svg" xmlns:xlink="http://www.w3.org/1999/xlink" width="120" height="60">
    <defs>
        <linearGradient id="c" x1="-4807.828" y1="3392.243" x2="-4802.1" y2="3385.546" gradientTransform="scale(1 -1) rotate(64.97 280.197 5485.457)" gradientUnits="userSpaceOnUse">
            <stop offset="0" stop-color="#f69923"/>
            <stop offset=".312" stop-color="#f79a23"/>
            <stop offset=".838" stop-color="#e97826"/>
        </linearGradient>
        <linearGradient id="a" x1="-4850.214" y1="3392.983" x2="-4809.354" y2="3392.983" gradientTransform="scale(1 -1) rotate(64.97 280.197 5485.457)" gradientUnits="userSpaceOnUse">
            <stop offset=".323" stop-color="#9e2064"/>
            <stop offset=".63" stop-color="#c92037"/>
            <stop offset=".751" stop-color="#cd2335"/>
            <stop offset="1" stop-color="#e97826"/>
        </linearGradient>
        <linearGradient id="b" x1="-4845.282" y1="3388.889" x2="-4820.933" y2="3388.889" gradientTransform="scale(1 -1) rotate(64.97 280.197 5485.457)" gradientUnits="userSpaceOnUse">
            <stop offset="0" stop-color="#282662"/>
            <stop offset=".095" stop-color="#662e8d"/>
            <stop offset=".788" stop-color="#9f2064"/>
            <stop offset=".949" stop-color="#cd2032"/>
        </linearGradient>
        <linearGradient id="d" x1="-4847.919" y1="3393.365" x2="-4807.059" y2="3393.365" xlink:href="#a"/>
        <linearGradient id="e" x1="-4844.939" y1="3392.811" x2="-4823.466" y2="3392.811" xlink:href="#b"/>
        <linearGradient id="f" x1="-4847.919" y1="3389.136" x2="-4807.059" y2="3389.136" xlink:href="#a"/>
        <linearGradient id="g" x1="-4850.454" y1="3389.347" x2="-4809.594" y2="3389.347" xlink:href="#a"/>
        <linearGradient id="h" x1="-4847.919" y1="3387.878" x2="-4807.059" y2="3387.878" xlink:href="#a"/>
        <linearGradient id="i" x1="-4847.919" y1="3388.022" x2="-4807.059" y2="3388.022" xlink:href="#a"/>
    </defs>
    <path d="M109.679 21.621a1.1 1.1 0 1 1-1.876.78 1.07 1.07 0 0 1 .321-.777 1.1 1.1 0 0 1 1.555 0zm-.093 1.461a.972.972 0 0 0 0-1.364.964.964 0 0 0-1.365 0 .978.978 0 0 0 0 1.365.915.915 0 0 0 .68.282.929.929 0 0 0 .685-.283zm-.154-.895a.344.344 0 0 1-.258.37l.315.428h-.255l-.285-.4h-.261v.4h-.206V21.8h.446a.628.628 0 0 1 .387.093.35.35 0 0 1 .117.294zm-.265.167a.206.206 0 0 0 .061-.169.187.187 0 0 0-.063-.162.4.4 0 0 0-.224-.045h-.253v.428h.246a.406.406 0 0 0 .233-.052zM32.09 35.716l5.855-14h1.124l5.854 14h-1.478l-1.814-4.376h-6.289l-1.794 4.376zm6.427-12.38l-2.877 6.919h5.678zM46.434 35.716v-14h5.8a4.361 4.361 0 0 1 4.14 4.395 4.222 4.222 0 0 1-4.021 4.435H47.8v5.164h-1.366zm1.366-6.388h4.474a2.944 2.944 0 0 0 2.721-3.213 3.038 3.038 0 0 0-2.838-3.173H47.8v6.386zM55.6 35.716l5.855-14h1.124l5.855 14h-1.475l-1.814-4.376h-6.288l-1.8 4.376zm6.428-12.38l-2.878 6.919h5.678zM75.061 21.64a5.5 5.5 0 0 1 5.165 3.06l-1.105.671a4.4 4.4 0 0 0-4.14-2.483c-3.352 0-5.184 3-5.184 5.815 0 3.095 2.267 5.894 5.243 5.894a4.783 4.783 0 0 0 4.317-2.6l1.144.59a6.115 6.115 0 0 1-5.539 3.252c-3.845 0-6.545-3.666-6.545-7.214a6.756 6.756 0 0 1 6.644-6.985zM93.466 21.72v14h-1.381v-6.549h-8.3v6.545h-1.358v-14h1.359v6.229h8.3V21.72zM106.03 34.492v1.222h-9.4V21.72h9.226v1.222h-7.868v5.046h6.86v1.163h-6.86v5.343h8.042zM27.258 9.919a14.891 14.891 0 0 0-2.953 2.981l1.159 2.187a28.765 28.765 0 0 1 2.473-3.1c.065-.071.1-.105.1-.105-.033.035-.065.07-.1.105a26.013 26.013 0 0 0-2.322 3.149 43.767 43.767 0 0 0 4.505-.557c.444-2.484-.435-3.62-.435-3.62s-1.118-1.813-2.427-1.04zM25.3 22.4h.026l-.167.018-.03.014zM24.113 26.314zM23.749 26.378zM23.365 28.288c-.149.027-.3.054-.456.08.079-.011.157-.024.233-.037s.149-.031.223-.043z" fill="#fff"/>
    <path d="M23.365 28.288c-.149.027-.3.054-.456.08.079-.011.157-.024.233-.037s.149-.031.223-.043z" fill="#fff" opacity=".35" style="isolation:isolate"/>
    <path d="M23.754 26.376c.025 0 .049-.007.073-.012.1-.014.195-.031.29-.052l-.36.062z" fill="#fff"/>
    <path d="M23.754 26.376c.025 0 .049-.007.073-.012.1-.014.195-.031.29-.052l-.36.062z" fill="#fff" opacity=".35" style="isolation:isolate"/>
    <path d="M22.046 20.736q.528-.987 1.069-1.928.563-.977 1.135-1.889l.068-.109q.567-.9 1.144-1.724L24.3 12.9c-.087.106-.176.214-.264.325-.334.417-.682.864-1.037 1.34a64.595 64.595 0 0 0-2.403 3.443 63.34 63.34 0 0 0-1 1.578l-.037.061 1.509 2.978q.482-.962.978-1.889zM15.177 37.52c-.2.549-.4 1.107-.6 1.678l-.008.025-.086.242c-.136.384-.252.731-.523 1.518a3.046 3.046 0 0 1 1.14 1.341 2.431 2.431 0 0 0-.789-1.671c2.19.1 4.077-.455 5.052-2.057a4.205 4.205 0 0 0 .239-.452 2.1 2.1 0 0 1-2.027.744h-.007.007a5.878 5.878 0 0 0 2.963-2.422c.16-.256.315-.538.474-.85a4.771 4.771 0 0 1-4.5 1.462l-1.22.133-.115.309zM13.416 33.99a23.035 23.035 0 0 0-.393 2.859c0 .034 0 .066-.007.1a5.967 5.967 0 0 0-1.736-1.49 8.429 8.429 0 0 1 1.7 3.9 3.837 3.837 0 0 1-1.92-.326 3.846 3.846 0 0 0 1.638.994 4.708 4.708 0 0 0-2.275 1.134 4.87 4.87 0 0 1 2.7-.5C12.078 43.6 11.04 46.836 10 50.273a.909.909 0 0 0 .616-.6c.185-.623 1.414-4.709 3.339-10.077l.166-.461.046-.129q.3-.845.633-1.725l.15-.4v-.008l-1.514-2.991c-.004.038-.013.073-.02.108zM25.614 15.13a52.05 52.05 0 0 0-1.114 1.789l-.063.106q-.518.873-1.1 1.922a87.22 87.22 0 0 0-1.042 1.95q-.471.912-.974 1.934l3.83-.42a4.65 4.65 0 0 0 2.1-1.65q.193-.277.386-.579c.393-.615.78-1.291 1.124-1.963a20.2 20.2 0 0 0 .851-1.873 9.709 9.709 0 0 0 .339-1.014c.07-.267.124-.518.167-.759a43.717 43.717 0 0 1-4.504.557zM23.139 28.332a3.532 3.532 0 0 0 0 0z" fill="#fff"/>
    <path d="M23.139 28.332a3.532 3.532 0 0 0 0 0z" fill="#fff" opacity=".35" style="isolation:isolate"/>
    <path d="M23.139 28.332a3.532 3.532 0 0 0 0 0zM23.749 26.378c.026 0 .049-.007.073-.012-.024 0-.047.009-.073.012z" fill="#fff"/>
    <path d="M23.749 26.378c.026 0 .049-.007.073-.012-.024 0-.047.009-.073.012z" fill="#fff" opacity=".35" style="isolation:isolate"/>
    <path d="M23.749 26.378c.026 0 .049-.007.073-.012-.024 0-.047.009-.073.012z" fill="#fff"/>
    <path d="M109.679 21.621a1.1 1.1 0 1 1-1.876.78 1.07 1.07 0 0 1 .321-.777 1.1 1.1 0 0 1 1.555 0zm-.093 1.461a.972.972 0 0 0 0-1.364.964.964 0 0 0-1.365 0 .978.978 0 0 0 0 1.365.915.915 0 0 0 .68.282.929.929 0 0 0 .685-.283zm-.154-.895a.344.344 0 0 1-.258.37l.315.428h-.255l-.285-.4h-.261v.4h-.206V21.8h.446a.628.628 0 0 1 .387.093.35.35 0 0 1 .117.294zm-.265.167a.206.206 0 0 0 .061-.169.187.187 0 0 0-.063-.162.4.4 0 0 0-.224-.045h-.253v.428h.246a.406.406 0 0 0 .233-.052z" fill="#6d6e71"/>
    <path d="M32.09 35.716l5.855-14h1.124l5.854 14h-1.478l-1.814-4.376h-6.289l-1.794 4.376zm6.427-12.38l-2.877 6.919h5.678zM46.434 35.716v-14h5.8a4.361 4.361 0 0 1 4.14 4.395 4.222 4.222 0 0 1-4.021 4.435H47.8v5.164h-1.366zm1.366-6.388h4.474a2.944 2.944 0 0 0 2.721-3.213 3.038 3.038 0 0 0-2.838-3.173H47.8v6.386zM55.6 35.716l5.855-14h1.124l5.855 14h-1.475l-1.814-4.376h-6.288l-1.8 4.376zm6.428-12.38l-2.878 6.919h5.678zM75.061 21.64a5.5 5.5 0 0 1 5.165 3.06l-1.105.671a4.4 4.4 0 0 0-4.14-2.483c-3.352 0-5.184 3-5.184 5.815 0 3.095 2.267 5.894 5.243 5.894a4.783 4.783 0 0 0 4.317-2.6l1.144.59a6.115 6.115 0 0 1-5.539 3.252c-3.845 0-6.545-3.666-6.545-7.214a6.756 6.756 0 0 1 6.644-6.985zM93.466 21.72v14h-1.381v-6.549h-8.3v6.545h-1.358v-14h1.359v6.229h8.3V21.72zM106.03 34.492v1.222h-9.4V21.72h9.226v1.222h-7.868v5.046h6.86v1.163h-6.86v5.343h8.042z" fill="#d22128"/>
    <path d="M27.258 9.919a14.891 14.891 0 0 0-2.953 2.981l1.159 2.187a28.765 28.765 0 0 1 2.473-3.1c.065-.071.1-.105.1-.105-.033.035-.065.07-.1.105a26.013 26.013 0 0 0-2.322 3.149 43.767 43.767 0 0 0 4.505-.557c.444-2.484-.435-3.62-.435-3.62s-1.118-1.813-2.427-1.04z" fill="url(#c)"/>
    <path d="M25.3 22.4h.026l-.167.018-.03.014zM24.113 26.314zM23.749 26.378z" fill="none"/>
    <path d="M23.365 28.288c-.149.027-.3.054-.456.08.079-.011.157-.024.233-.037s.149-.031.223-.043z" fill="#be202e"/>
    <path d="M23.365 28.288c-.149.027-.3.054-.456.08.079-.011.157-.024.233-.037s.149-.031.223-.043z" fill="#be202e" opacity=".35" style="isolation:isolate"/>
    <path d="M23.754 26.376c.025 0 .049-.007.073-.012.1-.014.195-.031.29-.052l-.36.062z" fill="#be202e"/>
    <path d="M23.754 26.376c.025 0 .049-.007.073-.012.1-.014.195-.031.29-.052l-.36.062z" fill="#be202e" opacity=".35" style="isolation:isolate"/>
    <path d="M22.046 20.736q.528-.987 1.069-1.928.563-.977 1.135-1.889l.068-.109q.567-.9 1.144-1.724L24.3 12.9c-.087.106-.176.214-.264.325-.334.417-.682.864-1.037 1.34a64.595 64.595 0 0 0-2.403 3.443 63.34 63.34 0 0 0-1 1.578l-.037.061 1.509 2.978q.482-.962.978-1.889z" fill="url(#a)"/>
    <path d="M15.177 37.52c-.2.549-.4 1.107-.6 1.678l-.008.025-.086.242c-.136.384-.252.731-.523 1.518a3.046 3.046 0 0 1 1.14 1.341 2.431 2.431 0 0 0-.789-1.671c2.19.1 4.077-.455 5.052-2.057a4.205 4.205 0 0 0 .239-.452 2.1 2.1 0 0 1-2.027.744h-.007.007a5.878 5.878 0 0 0 2.963-2.422c.16-.256.315-.538.474-.85a4.771 4.771 0 0 1-4.5 1.462l-1.22.133-.115.309z" fill="url(#b)"/>
    <path d="M15.747 34.788c.263-.68.534-1.37.813-2.065q.4-1 .821-2.009t.859-2.023a117.639 117.639 0 0 1 1.845-4.066q.169-.36.345-.715.3-.617.605-1.224l.033-.064-1.508-2.979-.074.121c-.352.574-.7 1.16-1.044 1.759s-.688 1.222-1.02 1.848q-.422.791-.822 1.6l-.159.325q-.492 1.015-.894 1.958c-.3.711-.571 1.391-.806 2.035-.155.424-.295.834-.423 1.227q-.158.5-.3 1.007c-.225.79-.42 1.577-.578 2.361l1.514 2.994q.3-.8.617-1.627c.056-.151.117-.308.176-.463z" fill="url(#d)"/>
    <path d="M13.416 33.99a23.035 23.035 0 0 0-.393 2.859c0 .034 0 .066-.007.1a5.967 5.967 0 0 0-1.736-1.49 8.429 8.429 0 0 1 1.7 3.9 3.837 3.837 0 0 1-1.92-.326 3.846 3.846 0 0 0 1.638.994 4.708 4.708 0 0 0-2.275 1.134 4.87 4.87 0 0 1 2.7-.5C12.078 43.6 11.04 46.836 10 50.273a.909.909 0 0 0 .616-.6c.185-.623 1.414-4.709 3.339-10.077l.166-.461.046-.129q.3-.845.633-1.725l.15-.4v-.008l-1.514-2.991c-.004.038-.013.073-.02.108z" fill="url(#e)"/>
    <path d="M21.3 22.873l-.131.268-.4.825c-.144.3-.29.616-.439.933l-.225.485q-.338.736-.686 1.52-.426.963-.87 2-.42.992-.854 2.053-.411 1.008-.832 2.08-.375.956-.758 1.966c-.012.032-.025.066-.036.1q-.38 1-.766 2.06c-.006.015-.011.032-.018.047l1.219-.133c-.024 0-.049-.007-.073-.012a8.7 8.7 0 0 0 4.649-2.617 11.569 11.569 0 0 0 1.586-2.207 19.169 19.169 0 0 0 1.021-2.125c.282-.684.553-1.423.814-2.226a4.389 4.389 0 0 1-1.142.4c-.074.015-.15.031-.226.043s-.154.026-.233.037a5.314 5.314 0 0 0 2.84-2.77 4.845 4.845 0 0 1-1.636.717 3.75 3.75 0 0 1-.291.052l-.073.011a5.533 5.533 0 0 0 1.215-.679c.075-.056.146-.114.215-.173a4.094 4.094 0 0 0 .3-.288 3.44 3.44 0 0 0 .179-.2 4.839 4.839 0 0 0 .38-.523c.036-.058.071-.117.106-.177.045-.087.089-.172.131-.257.189-.381.342-.722.463-1.021a8.404 8.404 0 0 0 .21-.565 7.49 7.49 0 0 0 .118-.383 3.558 3.558 0 0 0 .09-.4 1.449 1.449 0 0 1-.158.108 5.739 5.739 0 0 1-1.683.573l1.12-.124-1.12.124h-.025l-.171.028.029-.014-3.83.419a.292.292 0 0 1-.009.045z" fill="url(#f)"/>
    <path d="M25.614 15.13a52.05 52.05 0 0 0-1.114 1.789l-.063.106q-.518.873-1.1 1.922a87.22 87.22 0 0 0-1.042 1.95q-.471.912-.974 1.934l3.83-.42a4.65 4.65 0 0 0 2.1-1.65q.193-.277.386-.579c.393-.615.78-1.291 1.124-1.963a20.2 20.2 0 0 0 .851-1.873 9.709 9.709 0 0 0 .339-1.014c.07-.267.124-.518.167-.759a43.717 43.717 0 0 1-4.504.557z" fill="url(#g)"/>
    <path d="M23.139 28.332a3.532 3.532 0 0 0 0 0z" fill="#be202e"/>
    <path d="M23.139 28.332a3.532 3.532 0 0 0 0 0z" fill="#be202e" opacity=".35" style="isolation:isolate"/>
    <path d="M23.139 28.332a3.532 3.532 0 0 0 0 0z" fill="url(#h)"/>
    <path d="M23.749 26.378c.026 0 .049-.007.073-.012-.024 0-.047.009-.073.012z" fill="#be202e"/>
    <path d="M23.749 26.378c.026 0 .049-.007.073-.012-.024 0-.047.009-.073.012z" fill="#be202e" opacity=".35" style="isolation:isolate"/>
    <path d="M23.749 26.378c.026 0 .049-.007.073-.012-.024 0-.047.009-.073.012z" fill="url(#i)"/>
</svg>
