<svg xmlns="http://www.w3.org/2000/svg" width="120" height="60">
    <defs>
        <linearGradient id="a" x1="24.442" y1="-57.694" x2="17.447" y2="-63.153" gradientTransform="matrix(1 0 0 -1 0 -28)" gradientUnits="userSpaceOnUse">
            <stop offset=".18" stop-color="#0052cc"/>
            <stop offset="1" stop-color="#2684ff"/>
        </linearGradient>
    </defs>
    <path d="M36.36 23.9c2.659 0 3.949 1.31 3.949 3.414a2.657 2.657 0 0 1-2.183 2.9c1.926.314 2.874 1.365 2.874 3.21 0 2.084-1.409 3.513-4.325 3.513H31.3V23.9zm-3.274 1.707v3.887h3.035c1.687 0 2.381-.773 2.381-2.029s-.753-1.865-2.381-1.865zm0 5.477v4.059h3.651c1.707 0 2.48-.615 2.48-1.926 0-1.389-.735-2.142-2.519-2.142zM43.921 23.2a1.114 1.114 0 0 1 1.191 1.032 1.055 1.055 0 0 1 0 .159 1.191 1.191 0 0 1-2.381 0 1.114 1.114 0 0 1 1.031-1.191 1.055 1.055 0 0 1 .159 0zm-.872 3.811h1.707v9.922h-1.707zM51.273 35.268a5.381 5.381 0 0 0 1.071-.139v1.646a4.1 4.1 0 0 1-1.15.158 2.847 2.847 0 0 1-3.157-3.1V28.6h-1.608v-1.578h1.608v-2.113h1.657v2.1h2.638v1.578h-2.638V33.8a1.389 1.389 0 0 0 1.579 1.468zM59.379 37.133a3.258 3.258 0 0 1-3.157-1.943v1.745h-1.707V22.866h1.719V28.8a3.5 3.5 0 0 1 3.353-1.985c2.638 0 3.969 2.242 3.969 5.16-.009 2.797-1.398 5.158-4.177 5.158zM59.12 28.4c-1.533 0-2.886.972-2.886 3.175v.794c0 2.2 1.249 3.175 2.706 3.175 1.925 0 2.918-1.27 2.918-3.572-.018-2.379-.97-3.572-2.738-3.572zM65.333 27.013h1.707v6c0 1.786.715 2.58 2.34 2.58 1.579 0 2.679-1.051 2.679-3.055v-5.525h1.707v9.922h-1.707v-1.628a3.478 3.478 0 0 1-3.134 1.826c-2.282 0-3.592-1.578-3.592-4.307zM83.35 36.678a5.49 5.49 0 0 1-2.422.451c-3.531 0-5.186-2.142-5.186-5.187 0-3 1.646-5.139 5.186-5.139a5.247 5.247 0 0 1 2.366.487v1.579a5 5 0 0 0-2.255-.467 3.291 3.291 0 0 0-3.631 3.552 3.313 3.313 0 0 0 3.671 3.551 6.243 6.243 0 0 0 2.255-.356zM85.3 36.935V22.866H87v8.794l4.267-4.643h2.223l-4.665 4.869 4.861 5.049h-2.319L87 32.292v4.643zM99.345 37.133c-3.712 0-5.338-2.142-5.338-5.186 0-3 1.667-5.139 4.684-5.139 3.056 0 4.285 2.124 4.285 5.139v.773h-7.243c.239 1.687 1.33 2.778 3.671 2.778a8.8 8.8 0 0 0 3.017-.534v1.579a7.148 7.148 0 0 1-3.076.59zm-3.631-5.863h5.537c-.1-1.844-.934-2.9-2.639-2.9-1.808-.009-2.719 1.161-2.9 2.886zM108.929 35.268a5.362 5.362 0 0 0 1.071-.139v1.646a4.1 4.1 0 0 1-1.15.158 2.847 2.847 0 0 1-3.157-3.1V28.6h-1.608v-1.578h1.608v-2.113h1.666v2.1H110v1.578h-2.639V33.8a1.387 1.387 0 0 0 1.568 1.468z" fill="#253858"/>
    <path fill="none" d="M15.576 32.677h2.943l.71-4.147h-4.436l.783 4.147z"/>
    <path d="M10.457 24.278a.451.451 0 0 0-.457.445.512.512 0 0 0 .006.078l1.914 11.622a.614.614 0 0 0 .6.512h9.185a.451.451 0 0 0 .451-.379L24.07 24.8a.45.45 0 0 0-.373-.517.338.338 0 0 0-.078-.006zm8.062 8.4h-2.932l-.794-4.147h4.436z" fill="#2684ff"/>
    <path d="M23.461 28.53h-4.232l-.71 4.147h-2.932l-3.461 4.109a.606.606 0 0 0 .394.149h9.187a.45.45 0 0 0 .451-.379z" fill="url(#a)"/>
</svg>
