<svg xmlns="http://www.w3.org/2000/svg" width="120" height="60">
    <path d="M42.661 25.162a6.906 6.906 0 0 1 3.008.821c-.085.81-.164 1.62-.245 2.429l-1.059.006c-.11-.549-.217-1.1-.319-1.649a4.111 4.111 0 0 0-3.916.008 2.627 2.627 0 0 0-.928 1.781 7.688 7.688 0 0 0 .312 4.882 2.88 2.88 0 0 0 2.351 1.625 9.35 9.35 0 0 0 3.448-.669l.295.948a8.919 8.919 0 0 1-4.339.823 3.736 3.736 0 0 1-2.7-1.39 6.576 6.576 0 0 1-1.047-3.888 6.335 6.335 0 0 1 1.469-4.457 4.745 4.745 0 0 1 3.67-1.27zM64.468 25.466a1 1 0 0 1 1.155.282c.05.385.15.972-.185 1.254-.389.17-1.088.243-1.39-.122-.198-.452-.2-1.301.42-1.414zM76.228 27.34c0 .547 0 1.094.006 1.641.657-.047 1.315-.1 1.97-.15v1.017h-1.97c.007 1.27-.022 2.539 0 3.809.033.494.045 1.146.523 1.436a3.608 3.608 0 0 0 1.949.112 96.51 96.51 0 0 1-.168.774 4.646 4.646 0 0 1-2.7.05c-.662-.336-.733-1.124-.778-1.781-.05-1.464 0-2.933-.02-4.4l-1.086-.006c0-.243.006-.486.01-.727L75.041 29c0-.462.006-.924.012-1.388.391-.092.784-.181 1.175-.272zM72.742 29.117q-.044.883-.093 1.768h-.839l-.211-1.156a3.761 3.761 0 0 0-1.937-.073.906.906 0 0 0-.239 1.517c.89.693 2.472.8 3.254 1.684a2.006 2.006 0 0 1-.634 2.927c-1.293.754-2.887.4-4.214-.067.04-.608.079-1.217.125-1.825.294 0 .588.008.884.014l.15 1.106a3.023 3.023 0 0 0 2.479.022.924.924 0 0 0 .114-1.47c-.843-.685-2.225-.762-3.051-1.5a1.865 1.865 0 0 1 .235-2.919 5.091 5.091 0 0 1 3.977-.028zM85.39 28.977c-.055.638-.1 1.276-.146 1.914-.284 0-.569 0-.853-.006l-.166-1.017a1.887 1.887 0 0 0-2.259 1.8c-.039 1.133 0 2.273.006 3.406.472.059.946.111 1.418.168v.782q-1.905.006-3.8 0v-.8l1.167-.148c.029-1.736.015-3.473.008-5.209l-1.134-.2c0-.248.008-.5.01-.746h2.111q.059.687.107 1.372a3.212 3.212 0 0 1 1.775-1.471 2.733 2.733 0 0 1 1.756.155zM97.841 28.827a2.666 2.666 0 0 1 2.589.567 2.761 2.761 0 0 1 .488 1.888c0 1.257-.018 2.513.008 3.771l1.117.174.006.792q-1.158.009-2.32 0c-.028-1.706.051-3.424-.03-5.126-.095-.915-1.183-1.229-1.955-1.055-.73.164-1.7.758-1.574 1.633 0 1.2 0 2.4.018 3.592.409.063.816.125 1.224.19v.766q-1.776.006-3.556 0l.006-.786 1.116-.166c.025-1.736.015-3.471.006-5.207l-1.134-.2c0-.248.008-.5.01-.746h2.168l.105.977a4.272 4.272 0 0 1 1.708-1.064zM63.281 28.94c.757-.066 1.525-.018 2.285-.022.01 2.048-.02 4.1.016 6.147l1.114.166.006.788q-1.728.009-3.456 0l.006-.786 1.115-.166c.026-1.74.018-3.479 0-5.219-.385-.063-.772-.124-1.157-.186.02-.241.044-.482.071-.722zM62.006 32.075a3.472 3.472 0 0 0-1.483-3.06 3.153 3.153 0 0 0-3.7.766c-.032-.289-.067-.577-.1-.865h-2.164v.758c.373.059.746.121 1.12.182q.041 4.383 0 8.774l-1.169.171v.772q1.9.006 3.8 0v-.76c-.474-.061-.95-.118-1.424-.178-.016-.9-.018-1.791-.016-2.685a4.037 4.037 0 0 0 3.162-.123 3.908 3.908 0 0 0 1.974-3.752zm-1.529 2.017a1.4 1.4 0 0 1-.928 1.015 3.169 3.169 0 0 1-2.589-.36c-.209-1.307-.012-2.745-.095-4.082a4.124 4.124 0 0 1 1.286-.868 1.845 1.845 0 0 1 2.263.922 4.936 4.936 0 0 1 .063 3.373zM109.45 30.057a3.285 3.285 0 0 0-3.706-1.222 3.452 3.452 0 0 0-2.634 3.235c-.095 1.372.193 3.078 1.532 3.783a3.835 3.835 0 0 0 4.6-.977 4.789 4.789 0 0 0 .208-4.819zm-.855 3.59c-.136.6-.292 1.179-.916 1.432a2.441 2.441 0 0 1-2.875-.772 4.455 4.455 0 0 1-.241-3.333 1.474 1.474 0 0 1 .977-1.166 2.473 2.473 0 0 1 2.658.7 4.121 4.121 0 0 1 .402 3.139zM53.716 35.219l-1.167-.15c-.05-1.463.023-2.928-.032-4.392a1.8 1.8 0 0 0-1.1-1.639 5.463 5.463 0 0 0-4.123.216l.111 1.727h.849c.071-.371.14-.744.207-1.115a2.816 2.816 0 0 1 2.494.039c.549.381.365 1.343.4 1.924a19.1 19.1 0 0 0-3.227.568 1.992 1.992 0 0 0 1.41 3.727 4.937 4.937 0 0 0 1.9-1.156l.089 1.049q1.1.006 2.194 0c-.003-.263-.003-.529-.005-.798zm-2.423-1.264a3.769 3.769 0 0 1-1.349 1.069 1.306 1.306 0 0 1-1.552-.19 1.134 1.134 0 0 1 .47-1.692 19.512 19.512 0 0 1 2.5-.537 7.506 7.506 0 0 1-.069 1.35zM92.815 35.219l-1.167-.15c-.049-1.463.024-2.928-.031-4.392a1.8 1.8 0 0 0-1.1-1.639 5.463 5.463 0 0 0-4.123.216l.11 1.727h.849l.212-1.121a2.84 2.84 0 0 1 2.49.045c.549.381.365 1.343.395 1.924a19.08 19.08 0 0 0-3.227.568 1.992 1.992 0 0 0 1.41 3.727 4.944 4.944 0 0 0 1.9-1.156l.088 1.049q1.1.006 2.194 0c.002-.263.002-.529 0-.798zm-2.423-1.264a3.757 3.757 0 0 1-1.348 1.069 1.307 1.307 0 0 1-1.553-.19 1.135 1.135 0 0 1 .47-1.692 19.549 19.549 0 0 1 2.5-.537 7.415 7.415 0 0 1-.069 1.35zM30.484 24.368a9.788 9.788 0 0 0-2.393-2.377l-.8 1.141a8.423 8.423 0 0 0-1.255-.722l-.589 1.264a6.87 6.87 0 0 1 1.045.6 7 7 0 0 1 .929.771l-.984.985-.984.984a4.186 4.186 0 0 1 .47.55 4.136 4.136 0 0 1 .371.622l2.521-1.177 1.262-.589 1.261-.588a9.662 9.662 0 0 0-.856-1.464" fill="#52c1db"/>
    <path d="M32.764 22.77a12.6 12.6 0 0 0-4.964-4.147 12.457 12.457 0 0 0-4.188-1.115l-.119 1.392a11.15 11.15 0 0 1 1.9.332l-.36 1.346a9.691 9.691 0 0 1 3.055 1.418 9.788 9.788 0 0 1 2.393 2.377 9.662 9.662 0 0 1 .856 1.464l1.261-.589 1.261-.589a12.571 12.571 0 0 0-1.1-1.884" fill="#3b528a"/>
    <path d="M26.625 21.148a9.718 9.718 0 0 0-3.253-.866 9.844 9.844 0 0 0-1.689 0 9.713 9.713 0 0 0-1.664.291l.36 1.345a8.332 8.332 0 0 0-1.362.492l.589 1.264a6.879 6.879 0 0 1 2.32-.616c.2-.017.4-.027.6-.027s.4.01.6.027a6.93 6.93 0 0 1 1.187.206 6.855 6.855 0 0 1 1.133.41l.589-1.264a8.423 8.423 0 0 1 1.255.722l.8-1.141a9.745 9.745 0 0 0-1.466-.843" fill="#00aee8"/>
    <path d="M23.493 18.9l.121-1.387a12.586 12.586 0 0 0-2.173 0 12.5 12.5 0 0 0-2.143.374 12.474 12.474 0 0 0-3.93 1.828 12.554 12.554 0 0 0-1.671 1.4l.984.985a11.094 11.094 0 0 1 1.485-1.24l.8 1.141a9.7 9.7 0 0 1 4.719-1.71 9.82 9.82 0 0 1 1.689 0 9.713 9.713 0 0 1 1.664.291l.36-1.346a11.15 11.15 0 0 0-1.9-.332" fill="#3f8abd"/>
    <path d="M20.379 21.918l-.36-1.345a9.637 9.637 0 0 0-3.055 1.419 9.838 9.838 0 0 0-1.3 1.083 9.947 9.947 0 0 0-1.094 1.293l1.14.8a8.333 8.333 0 0 0-.734 1.253l1.262.589a6.986 6.986 0 0 1 3.368-3.335l-.589-1.264a8.332 8.332 0 0 1 1.362-.492" fill="#52c1db"/>
    <path d="M16.166 20.851a11.094 11.094 0 0 0-1.485 1.24l-.984-.985a12.574 12.574 0 0 0-1.406 1.665 12.487 12.487 0 0 0-2.238 6.081l1.385.122a11.045 11.045 0 0 1 .345-1.911l1.343.361a9.749 9.749 0 0 1 1.444-3.056 9.947 9.947 0 0 1 1.094-1.293 9.838 9.838 0 0 1 1.3-1.083l-.8-1.141" fill="#00aee8"/>
    <path d="M13.673 34.078a9.687 9.687 0 0 1-.858-3.282q-.033-.394-.033-.8c0-.3.015-.607.043-.905a9.674 9.674 0 0 1 .3-1.671l-1.343-.361a11.045 11.045 0 0 0-.345 1.911l-1.385-.122Q10 29.421 10 30c0 .35.015.7.042 1.038a12.656 12.656 0 0 0 .368 2.162 12.536 12.536 0 0 0 1.83 3.961l1.139-.8a11.19 11.19 0 0 1-.967-1.691l1.261-.588" fill="#3f8abd"/>
    <path d="M15.588 30.553a7.247 7.247 0 0 1 .008-1.215 7 7 0 0 1 .22-1.193 6.838 6.838 0 0 1 .422-1.136l-1.262-.589a8.333 8.333 0 0 1 .734-1.253l-1.14-.8a9.684 9.684 0 0 0-1.745 4.733c-.028.3-.043.6-.043.905q0 .4.033.8a9.69 9.69 0 0 0 .284 1.678l1.344-.361a8.267 8.267 0 0 0 .491 1.376L16.2 32.9a6.946 6.946 0 0 1-.409-1.147 7.073 7.073 0 0 1-.2-1.2" fill="#3b528a"/>
    <path d="M18.387 38.832a9.787 9.787 0 0 1-4.714-4.754l-1.261.588a11.19 11.19 0 0 0 .967 1.691l-1.139.8a12.571 12.571 0 0 0 4.971 4.2L17.8 40.1a11.126 11.126 0 0 0 1.832.671l.36-1.346a9.6 9.6 0 0 1-1.6-.588" fill="#52c1db"/>
    <path d="M19.563 36.307A6.992 6.992 0 0 1 16.2 32.9l-1.262.589a8.267 8.267 0 0 1-.491-1.376l-1.344.361a9.677 9.677 0 0 0 .574 1.6 9.816 9.816 0 0 0 1.936 2.792 9.883 9.883 0 0 0 1.3 1.1l.8-1.141a8.336 8.336 0 0 0 2.642 1.243l.361-1.347a6.885 6.885 0 0 1-1.149-.421" fill="#00aee8"/>
    <path d="M28.941 39.114a11.088 11.088 0 0 1-3.517 1.652l-.36-1.346a9.829 9.829 0 0 1-1.682.3 10.077 10.077 0 0 1-1.709 0 9.8 9.8 0 0 1-1.682-.3l-.36 1.346A11.126 11.126 0 0 1 17.8 40.1l-.588 1.262a12.427 12.427 0 0 0 4.22 1.134 12.44 12.44 0 0 0 2.2 0 12.462 12.462 0 0 0 6.115-2.237l-.8-1.14" fill="#3b528a"/>
    <path d="M31.676 36.357l-1.14-.8a9.76 9.76 0 0 1-3.868 3.274 9.634 9.634 0 0 1-1.6.588l.36 1.346a11.088 11.088 0 0 0 3.517-1.652l.8 1.14a12.574 12.574 0 0 0 3.076-3.1l-1.139-.8" fill="#00aee8"/>
    <path d="M29.4 34.759l-1.14-.8a6.948 6.948 0 0 1-.778.94 7.028 7.028 0 0 1-.932.79l.8 1.142a8.391 8.391 0 0 1-1.265.738l.588 1.262a9.759 9.759 0 0 0 3.868-3.274l-1.14-.8" fill="#52c1db"/>
    <path d="M27.345 36.832l-.8-1.142a6.93 6.93 0 0 1-1.055.617 6.842 6.842 0 0 1-1.148.421 6.922 6.922 0 0 1-1.2.213 6.754 6.754 0 0 1-1.223 0 6.922 6.922 0 0 1-1.2-.213l-.361 1.347a8.336 8.336 0 0 1-2.642-1.243l-.8 1.141a9.789 9.789 0 0 0 1.475.859 9.6 9.6 0 0 0 1.6.588 9.8 9.8 0 0 0 1.682.3 10.035 10.035 0 0 0 1.709 0 9.829 9.829 0 0 0 1.682-.3 9.634 9.634 0 0 0 1.6-.588l-.584-1.262a8.391 8.391 0 0 0 1.265-.738" fill="#3f8abd"/>
</svg>
