<svg xmlns="http://www.w3.org/2000/svg" width="120" height="60">
    <path d="M33.053 45.41a2.075 2.075 0 0 1 1.4.411c.046.426-.335 1.111-.578 1.111a2.469 2.469 0 0 0-.9-.168c-1.384 0-2.069 1.43-2.069 2.845 0 .882.3 1.415 1 1.415a3.228 3.228 0 0 0 1.932-.882.8.8 0 0 1 .243.593 1.161 1.161 0 0 1-.365.867 3.441 3.441 0 0 1-2.5.9c-1.37 0-2.313-.776-2.313-2.587a4.217 4.217 0 0 1 4.123-4.5zM37.525 50.948c.745 0 2.1-1.309 2.48-3.8a2.658 2.658 0 0 1 .061-.349 1.984 1.984 0 0 0-2.283.76 4.311 4.311 0 0 0-.76 2.419c0 .639.182.974.487.974zm-2.45-.685a5.3 5.3 0 0 1 1.446-3.6 4.292 4.292 0 0 1 3.241-1.248 13.192 13.192 0 0 1 2.3.35c-.152.669-.518 3.2-.685 4.655a11.583 11.583 0 0 0-.076 1.811 5.733 5.733 0 0 1-1.7.274c-.137 0-.167-.624-.122-1.217.015-.2.046-.487.061-.609a3.708 3.708 0 0 1-3 1.826c-.882 0-1.461-.73-1.461-2.221zM45.846 45.41a2.191 2.191 0 0 1 1.492.517c-.016.426-.35 1.141-.883.943a2.263 2.263 0 0 0-.761-.136c-.41 0-.76.182-.76.562 0 .289.213.5 1.232 1.218a1.956 1.956 0 0 1 1.02 1.673A2.6 2.6 0 0 1 44.31 52.5a2.129 2.129 0 0 1-1.613-.593c-.274-.457-.061-1.354.244-1.2a3.972 3.972 0 0 0 1.582.412c.5 0 .821-.229.821-.533 0-.259-.228-.487-1.156-1.141a2.045 2.045 0 0 1-1.019-1.719 2.447 2.447 0 0 1 2.662-2.313zM51.1 45.41a2.189 2.189 0 0 1 1.491.517c-.015.426-.35 1.141-.882.943a2.272 2.272 0 0 0-.761-.136c-.411 0-.761.182-.761.562 0 .289.213.5 1.233 1.218a1.955 1.955 0 0 1 1.019 1.673 2.6 2.6 0 0 1-2.881 2.313 2.128 2.128 0 0 1-1.612-.593c-.274-.457-.061-1.354.243-1.2a3.981 3.981 0 0 0 1.582.412c.5 0 .822-.229.822-.533 0-.259-.229-.487-1.157-1.141a2.047 2.047 0 0 1-1.019-1.719 2.447 2.447 0 0 1 2.663-2.316zM55.887 50.948c.745 0 2.1-1.309 2.48-3.8a2.658 2.658 0 0 1 .061-.349 1.984 1.984 0 0 0-2.283.76 4.311 4.311 0 0 0-.76 2.419c0 .639.182.974.487.974zm-2.45-.685a5.3 5.3 0 0 1 1.446-3.6 4.291 4.291 0 0 1 3.24-1.248 13.2 13.2 0 0 1 2.3.35c-.152.669-.517 3.2-.685 4.655a11.583 11.583 0 0 0-.076 1.811 5.733 5.733 0 0 1-1.7.274c-.137 0-.167-.624-.122-1.217.015-.2.046-.487.061-.609a3.708 3.708 0 0 1-3 1.826c-.883 0-1.461-.73-1.461-2.221zM63.858 47.388a3.489 3.489 0 0 1 2.891-1.978c1.08 0 1.43 1 1.233 2.434-.107.67-.289 1.628-.411 2.511a11.984 11.984 0 0 0-.167 1.871 6.384 6.384 0 0 1-1.811.274 3.608 3.608 0 0 1 .015-1.719c.122-.731.38-2.054.5-2.815.077-.441.061-.974-.365-.974-.563 0-1.9.9-2.571 4.58a.792.792 0 0 1-.335.593 3.754 3.754 0 0 1-1.7.274c.183-.928.472-2.83.685-4.229a11.809 11.809 0 0 0 .228-2.42 16.36 16.36 0 0 1 1.764-.38c.168 0 .2.472.046 1.613-.015.106-.03.273-.046.365zM71.587 50.933c.669 0 2.024-1.248 2.4-3.454.015-.122.061-.35.091-.487a1.19 1.19 0 0 0-.867-.3c-1.537 0-2.222 1.841-2.222 3.165 0 .715.244 1.08.578 1.08zm-1 1.567c-.974 0-1.582-.867-1.582-2.358 0-2.465 1.536-4.732 4.122-4.732a2.312 2.312 0 0 1 1.126.274c.137-.7.457-2.861.472-3.5a14.085 14.085 0 0 1 1.749-.212c.168 0 .214.167.153.547-.366 2.282-1.019 6.664-1.141 7.638a15.717 15.717 0 0 0-.092 2.084 5.749 5.749 0 0 1-1.734.259c-.107 0-.167-.7-.137-1.324.015-.2.046-.487.046-.532A3.447 3.447 0 0 1 70.6 52.5zM79.5 47.6c.807-1.8 1.765-2.191 2.389-2.191a1.015 1.015 0 0 1 .639.274 3.215 3.215 0 0 1-.684 1.886 1.507 1.507 0 0 0-.67-.182c-.517 0-1.537.806-2.176 4.275-.046.289-.137.411-.3.487a6.178 6.178 0 0 1-1.764.289c.227-1.248.623-3.788.775-5.28a8.3 8.3 0 0 0 .031-1.354 8.009 8.009 0 0 1 1.688-.4c.138 0 .244.837.03 2.191zM84.868 50.948c.746 0 2.1-1.309 2.48-3.8a2.658 2.658 0 0 1 .061-.349 1.984 1.984 0 0 0-2.283.76 4.312 4.312 0 0 0-.761 2.419c0 .639.183.974.488.974zm-2.45-.685a5.3 5.3 0 0 1 1.445-3.6A4.294 4.294 0 0 1 87.1 45.41a13.2 13.2 0 0 1 2.3.35c-.152.669-.518 3.2-.685 4.655a11.46 11.46 0 0 0-.076 1.811 5.733 5.733 0 0 1-1.7.274c-.137 0-.167-.624-.122-1.217.015-.2.046-.487.061-.609a3.707 3.707 0 0 1-3 1.826c-.883 0-1.461-.73-1.461-2.221z" fill="#373535"/>
    <g>
        <path d="M80.4 20.128c.5 5.848-8.7 11.414-20.557 12.431s-21.872-2.9-22.373-8.748 8.7-11.415 20.556-12.432 21.874 2.9 22.374 8.749" fill="#bbe6fb"/>
        <g fill="#fff">
            <path d="M58.374 11.565c-4.522-.074-9.814 1.722-13.751 3.4a11.371 11.371 0 0 0-.631 3.739c0 6.937 6.265 12.562 13.992 12.562s13.991-5.625 13.991-12.562a11.521 11.521 0 0 0-1.731-6.054 89.1 89.1 0 0 0-11.87-1.088"/>
            <path d="M57.984 11.564c-2.5-.153-6.819 1.153-10.417 2.456a10.687 10.687 0 0 0-.851 4.184c0 6.078 5.511 11.006 11.341 11.006 5.792 0 10.916-4.936 11.341-11.006a9.512 9.512 0 0 0-1.487-5.446 97.018 97.018 0 0 0-9.927-1.194"/>
        </g>
        <g fill="#373535">
            <path d="M51.559 17.406a7.4 7.4 0 0 1 1.223-1.584 3.533 3.533 0 0 1-.16-.729 1.237 1.237 0 0 1 1.7-1.15 9.02 9.02 0 0 1 7.457-1.637c.248.056.49.124.729.2a10.617 10.617 0 0 0-7.753 2.235 3.072 3.072 0 0 1 .236.742c0 .683-.442.85-1.126.85a1.247 1.247 0 0 1-.441-.082 12.519 12.519 0 0 0-1.31 2.552 9.671 9.671 0 0 0 3.5 1.884c0-.064.046-.123.046-.188a3.861 3.861 0 0 1 3.876-3.736 3.729 3.729 0 0 1 3.675 3.105 8.873 8.873 0 0 0 2.492-1.9 2.2 2.2 0 0 1-.329-1.01 1.113 1.113 0 0 1 1.378-1.092 9.813 9.813 0 0 0 .771-2.234c-3.223-2.387-9.459-2.061-9.459-2.061s-4.963-.259-8.323 1.378a9.9 9.9 0 0 0 1.824 4.463"/>
            <path d="M66.965 16.476a2.077 2.077 0 0 1 .45.561c.3.542-.3 1.038-.923 1.038a1.137 1.137 0 0 1-.185-.018 11.835 11.835 0 0 1-3.01 3.2 9.463 9.463 0 0 1 4.491 1.973 13.33 13.33 0 0 0 1.61-5.992 4.269 4.269 0 0 0-1.689-3.461 12.282 12.282 0 0 1-.744 2.7M53.43 26.816a9.478 9.478 0 0 1 3.215-3.769 7.191 7.191 0 0 1-.591-1.2A9.043 9.043 0 0 1 52 19.278c-.008.035-.018.068-.026.1a8.176 8.176 0 0 0-.14 2.72 1.626 1.626 0 0 1 1.326 1.6 2.491 2.491 0 0 1-.734 1.454 7.646 7.646 0 0 0 1 1.663"/>
            <path d="M53.332 28.1a12.054 12.054 0 0 1-1.551-2.8 1.68 1.68 0 0 1-.247.021c-.9 0-1.841-.755-1.628-1.628a1.611 1.611 0 0 1 .994-1.062 11.465 11.465 0 0 1 .075-3.479 6.641 6.641 0 0 1 .3-.721 9.537 9.537 0 0 1-1.633-5.246c0-.069 0-.137.005-.206a4.652 4.652 0 0 0-2.933 4.25c0 4.611 2.656 9.134 6.607 10.907l.009-.038M63.048 21.73a3.725 3.725 0 0 1-5.821 1.7 10.956 10.956 0 0 0-3.1 4.361 8.614 8.614 0 0 0 .763.789 14.07 14.07 0 0 0 3.165 0 11.132 11.132 0 0 0 9.536-4.88 10.05 10.05 0 0 0-4.545-1.966"/>
        </g>
        <g fill="#1287b1">
            <path d="M51.457 17.945a9 9 0 0 1 1.142-1.88 1.237 1.237 0 0 1 1.616-1.583 9.02 9.02 0 0 1 7.457-1.637c.247.056.49.124.729.2a9.929 9.929 0 0 0-7.5 2.108 1.219 1.219 0 0 1 .1.481 1.238 1.238 0 0 1-1.238 1.238 1.226 1.226 0 0 1-.441-.083 8.345 8.345 0 0 0-1.122 2.052 9.214 9.214 0 0 0 3.51 2.383c0-.064-.01-.127-.01-.192a3.73 3.73 0 0 1 7.407-.627 9.664 9.664 0 0 0 2.42-2.208 1.106 1.106 0 0 1-.257-.707 1.113 1.113 0 0 1 1.374-1.09 9.8 9.8 0 0 0 .771-2.235c-3.223-2.386-9.46-2.06-9.46-2.06s-4.962-.259-8.322 1.378a9.9 9.9 0 0 0 1.824 4.463"/>
            <path d="M67.139 16.66a1.119 1.119 0 0 1-.749 1.954 1.036 1.036 0 0 1-.185-.019 9.087 9.087 0 0 1-2.713 2.729 9.08 9.08 0 0 1 4.372 1.965 11.285 11.285 0 0 0 1.436-5.515 4.268 4.268 0 0 0-1.689-3.461 9.037 9.037 0 0 1-.468 2.347M53.6 27.185a9.061 9.061 0 0 1 2.814-3.957 3.711 3.711 0 0 1-.463-.846 9.043 9.043 0 0 1-4.051-2.565l-.026.1a8.176 8.176 0 0 0-.14 2.72 1.625 1.625 0 0 1 .8 2.792 9.734 9.734 0 0 0 1.066 1.756M53.328 28.086a9.074 9.074 0 0 1-1.649-2.241 1.68 1.68 0 0 1-.247.02 1.626 1.626 0 0 1-.71-3.09 9.049 9.049 0 0 1 .151-3.079q.1-.445.242-.871a9 9 0 0 1-1.573-5.095v-.205a4.649 4.649 0 0 0-2.933 4.248 11.341 11.341 0 0 0 6.705 10.35l.009-.037M62.946 22.269a3.725 3.725 0 0 1-5.821 1.7 9.245 9.245 0 0 0-2.9 3.96 10.333 10.333 0 0 0 .863.824 11.35 11.35 0 0 0 12.376-4.8 9.5 9.5 0 0 0-4.519-1.681"/>
        </g>
        <path d="M63.077 21.307l3.448-.823-3.461-.176 2.816-2.153-3.2 1.146 2.172-3.01-3 1.993 1.048-3.523-2.06 2.9L60.8 14l-1.355 3.269-1.13-3.308.061 3.9-1.956-3.501 1.057 3.709-3.168-2.3 2.482 3.118-3.934-1.446 3.105 2.3-3.981.122 4.07 1.051-4.074.88 4.023.285-3.392 2.171 3.492-1.266-2.422 3.069 3.061-2.469-1.1 4.117L58 24.35l-.331 3.958 1.341-3.588 1.142 3.771.278-3.782 1.7 3.227-1-3.691 3.1 2.4-2-3.065 3.405 1.326-2.6-2.558 3.492.274z" fill="#fff"/>
        <path d="M26.369 27.9C37.063 17.211 45.6 13.91 53.354 12.4c1.026-.2 1.22-2.441 1.22-2.441s.143 1.651.861 1.866 1.651-2.584 1.651-2.584-.861 2.512 0 2.656 2.44-2.44 2.44-2.44-.646 2.224-.215 2.368S61.894 8.6 61.894 8.6s-1.292 2.224-.072 2.44 3-1.519 3-1.519-1.4 1.587-.776 1.806c2.656.933 4.805-2.518 4.805-2.518a11.636 11.636 0 0 1-1.79 3.164c2.8.717 4.877-3.5 4.877-3.5l-2.078 4.216c1.077.575 5.384-4.377 5.384-4.377s-2.225 3.875-3.517 4.664c.717.575 3.3-1.722 3.3-1.722s-2.081 2.583-1.292 2.727c1.149.933 5.383-4.808 5.383-4.808a29.116 29.116 0 0 1-4.09 6.027c2.04 1.02 7.1-5.526 7.1-5.526s-.143 2.081-3.8 5.383c2.728-.359 6.244-5.527 6.244-5.527a17.109 17.109 0 0 1-4.378 6.6c2.678-.279 6.962-6.89 6.962-6.89a18.382 18.382 0 0 1-5.024 7.249c3.732.825 9.115-4.737 9.115-4.737s-2.117 3.948-4.881 5.562c3.087 1.184 7.321-3.7 7.321-3.7s-4.234 6.531-10.98 6.244c-2.214-.094-8.909-6.715-23.254-6.172-18.947.718-22.965 8.756-33.085 14.21" fill="#373535" opacity=".2"/>
        <path d="M26.807 27.092C37.5 16.4 46.041 13.1 53.792 11.59c1.026-.2 1.22-2.44 1.22-2.44s.143 1.651.862 1.866 1.65-2.583 1.65-2.583-.861 2.512 0 2.655 2.44-2.44 2.44-2.44-.646 2.225-.215 2.368 2.583-3.229 2.583-3.229-1.292 2.224-.071 2.44 3-1.518 3-1.518-1.4 1.586-.776 1.8c2.656.933 4.8-2.518 4.8-2.518A11.648 11.648 0 0 1 67.5 11.16c2.8.718 4.877-3.5 4.877-3.5L70.3 11.878c1.076.574 5.382-4.378 5.382-4.378s-2.224 3.875-3.516 4.664c.718.575 3.3-1.722 3.3-1.722s-2.081 2.584-1.291 2.727c1.148.934 5.382-4.808 5.382-4.808a29.116 29.116 0 0 1-4.091 6.028c2.04 1.021 7.106-5.526 7.106-5.526s-.144 2.082-3.8 5.383c2.727-.359 6.244-5.526 6.244-5.526a17.118 17.118 0 0 1-4.379 6.6c2.678-.278 6.962-6.889 6.962-6.889a18.379 18.379 0 0 1-5.023 7.248c3.732.826 9.114-4.736 9.114-4.736s-2.117 3.947-4.88 5.562c3.086 1.184 7.32-3.7 7.32-3.7s-4.234 6.532-10.981 6.244c-2.213-.094-8.908-6.715-23.253-6.172-18.946.718-22.966 8.756-33.085 14.21" fill="#373535"/>
        <path d="M26.089 29.074c5.651 2.835 10.819-.431 17.332 1.4 4.952 1.4 10.981 3.116 19.162 1.932S77.762 27.674 81.1 21.323c1.04-2.835 5.274.646 5.274.646s-3.085-1.292-3.013-.682 4.629 2.727 4.629 2.727-4.127-1.292-3.876-.323 5.167 4.845 5.167 4.845-5.562-4.235-6.028-3.661 2.368 2.907 2.368 2.907-4.7-2.907-6.352-2.049c-1.187.615 4.881 4.6 4.881 4.6s-3.948-3.015-4.881-2.225 4.45 7.249 4.45 7.249-6.1-6.6-6.71-6.28 1.686 3.481 1.686 3.481-3.014-3.3-3.839-2.728 4.306 9.151 4.306 9.151-5.562-8.794-7.862-7.324c3.61 7.913 2.264 9.043 2.264 9.043s-.46-8.072-4.952-7.858c-2.261.107 1.076 6.028 1.076 6.028s-3.072-5.408-5.117-5.3C68.341 40.705 67 43.607 67 43.607s.624-6.094-4.49-9.485c1.938 1.722-1.215 9.485-1.215 9.485s2.773-11.439-2.046-9.258c-.762.344-.054 5.706-.054 5.706s-.969-6.137-2.422-5.814c-.847.188-5.383 8.505-5.383 8.505s3.714-8.989 2.584-8.613c-.823.275-2.368 3.984-2.368 3.984s.753-3.661 0-3.876-4.953 3.876-4.953 3.876 3.123-3.661 2.584-4.414a2.165 2.165 0 0 0-2.907-.754c-1.651.644-3.875 3.66-3.875 3.66s2.218-3.054 1.83-4.2c-.622-1.838-7 3.552-7 3.552s3.768-3.552 2.906-4.306-5.537-.52-7-.524c-4.306-.014-5.8-1.024-7.105-2.059" fill="#373535" opacity=".2"/>
        <path d="M25.874 28.428c5.651 2.835 10.819-.431 17.332 1.4 4.951 1.4 10.98 3.116 19.162 1.932s15.179-4.737 18.516-11.088c1.041-2.835 5.275.646 5.275.646s-3.086-1.292-3.014-.682 4.629 2.727 4.629 2.727-4.127-1.291-3.875-.323 5.167 4.845 5.167 4.845-5.562-4.235-6.029-3.66 2.369 2.906 2.369 2.906-4.7-2.906-6.352-2.05c-1.188.616 4.88 4.6 4.88 4.6s-3.947-3.015-4.88-2.225 4.45 7.249 4.45 7.249-6.1-6.6-6.711-6.28 1.687 3.48 1.687 3.48-3.015-3.3-3.84-2.727 4.306 9.151 4.306 9.151-5.562-8.792-7.858-7.32c3.606 7.912 2.26 9.043 2.26 9.043s-.46-8.073-4.952-7.859c-2.261.108 1.077 6.028 1.077 6.028s-3.072-5.408-5.117-5.3c3.77 7.135 2.426 10.037 2.426 10.037s.623-6.094-4.49-9.485c1.937 1.722-1.216 9.485-1.216 9.485s2.775-11.439-2.045-9.258c-.762.344-.054 5.706-.054 5.706s-.97-6.137-2.422-5.814c-.848.188-5.383 8.505-5.383 8.505s3.714-8.989 2.584-8.612c-.824.274-2.369 3.982-2.369 3.982s.754-3.66 0-3.875-4.952 3.875-4.952 3.875 3.122-3.66 2.584-4.413a2.165 2.165 0 0 0-2.907-.753c-1.651.643-3.875 3.659-3.875 3.659s2.217-3.054 1.83-4.2c-.623-1.838-7 3.552-7 3.552s3.767-3.552 2.906-4.3-5.537-.521-7-.525c-4.306-.014-5.8-1.024-7.1-2.059" fill="#373535"/>
    </g>
</svg>
