<svg xmlns="http://www.w3.org/2000/svg" width="120" height="60">
    <path d="M38.975 47.206v-.029a5.231 5.231 0 0 1 5.367-5.322 5.306 5.306 0 0 1 4.058 1.588L46.958 45.1a3.8 3.8 0 0 0-2.632-1.161 3.049 3.049 0 0 0-2.984 3.205v.03a3.057 3.057 0 0 0 2.984 3.235 3.717 3.717 0 0 0 2.706-1.206l1.441 1.456a5.261 5.261 0 0 1-4.219 1.841 5.2 5.2 0 0 1-5.279-5.294M50.922 42.018h2.264v4.074h4.178v-4.074h2.265v10.3h-2.265V48.18h-4.178v4.134h-2.264zM62.383 42.018h7.766v2.015h-5.516v2.088h4.854v2.016h-4.854V50.3h5.59v2.015h-7.84zM73.186 42.018h7.839v2.059H75.45v2.192h4.913v2.059H75.45v3.986h-2.264v-10.3zM60.283 28.405a6.492 6.492 0 1 1 6.236-8.293h2.512a8.931 8.931 0 1 0 0 3.6h-2.512a6.5 6.5 0 0 1-6.236 4.69" fill="#435363"/>
    <path d="M55.907 26.289a6.173 6.173 0 0 0 4.376 1.816v-2.588a3.593 3.593 0 0 1-2.548-1.056l-1.828 1.828z" fill="#435363"/>
    <path d="M54.092 21.913a6.153 6.153 0 0 0 .525 2.492l2.367-1.042a3.6 3.6 0 0 1 3.3-5.053v-2.589a6.2 6.2 0 0 0-6.191 6.192" fill="#f38b00"/>
    <path d="M62.528 16.143l-.939 2.413a3.612 3.612 0 0 1 1.811 1.555h2.8a6.219 6.219 0 0 0-3.678-3.968" fill="#435363"/>
    <path d="M61.59 25.27l.938 2.413a6.222 6.222 0 0 0 3.679-3.969H63.4a3.617 3.617 0 0 1-1.81 1.556" fill="#f38b00"/>
    <path d="M48.828 25.377c-.04-.136-.08-.272-.116-.41l-.007-.025a12.56 12.56 0 0 1-.093-.383c-.007-.026-.012-.053-.018-.079-.024-.11-.047-.221-.069-.332l-.026-.15c-.015-.089-.031-.177-.045-.267s-.022-.152-.032-.229a11.95 11.95 0 0 1-.108-1.59h-2.445a14.258 14.258 0 0 0 .1 1.736 14.37 14.37 0 0 0 .158 1.008l.041.2c.021.1.042.2.065.3s.042.174.064.261l.059.233.088.307c.012.043.023.086.036.128a14.507 14.507 0 0 0 .6 1.631l2.241-.985a12.012 12.012 0 0 1-.5-1.353z" fill="#435363"/>
    <path d="M60.283 33.882a11.926 11.926 0 0 1-8.458-3.511L50.093 32.1a14.411 14.411 0 0 0 24.491-8.388h-2.467a11.988 11.988 0 0 1-11.834 10.17M60.283 9.945a11.9 11.9 0 0 1 7.155 2.381l1.462-1.964a14.415 14.415 0 0 0-22.054 6.324l2.281.887a11.987 11.987 0 0 1 11.156-7.628" fill="#f38b00"/>
    <path d="M72.117 20.112h2.467a14.306 14.306 0 0 0-2.073-5.831l-2.078 1.3a11.887 11.887 0 0 1 1.684 4.534" fill="#435363"/>
    <path d="M69.337 20.112h2.476a11.7 11.7 0 0 0-7.3-9.072l-.884 2.274a9.26 9.26 0 0 1 5.708 6.8" fill="#f38b00"/>
    <path d="M60.283 12.683v-2.438a11.687 11.687 0 0 0-10.874 7.437l2.272.884a9.246 9.246 0 0 1 8.6-5.883" fill="#435363"/>
    <path d="M51.053 21.913h-2.438a11.686 11.686 0 0 0 7.335 10.832l.906-2.263a9.243 9.243 0 0 1-5.8-8.569" fill="#f38b00"/>
    <path d="M60.283 31.143v2.439a11.688 11.688 0 0 0 11.53-9.868h-2.477a9.244 9.244 0 0 1-9.053 7.429" fill="#435363"/>
</svg>
