<svg xmlns="http://www.w3.org/2000/svg" width="120" height="60">
    <defs>
        <linearGradient id="a" x1="-74.958" y1="47.652" x2="-74.908" y2="47.652" gradientTransform="matrix(1999.99 0 0 -280.68 149924.328 13397.071)" gradientUnits="userSpaceOnUse">
            <stop offset=".005" stop-color="#5bc1a6"/>
            <stop offset="1" stop-color="#211645"/>
        </linearGradient>
    </defs>
    <path d="M9.5 22.078a6.691 6.691 0 0 1 6.725-6.971 5.819 5.819 0 0 1 6.01 4.333l-2.129.716a3.706 3.706 0 0 0-3.881-2.92c-2.2 0-4.408 1.6-4.408 4.841a4.424 4.424 0 0 0 4.427 4.785 3.986 3.986 0 0 0 3.974-2.939l2.073.678a5.993 5.993 0 0 1-6.047 4.427 6.613 6.613 0 0 1-6.744-6.95zm14.048 6.668V15.107h2.185v13.639zm13.015-4.6a4.758 4.758 0 1 1-9.513 0 4.758 4.758 0 1 1 9.513 0zm-2.2 0a2.58 2.58 0 1 0-5.124 0 2.584 2.584 0 1 0 5.124 0zm6.874 4.86a3.393 3.393 0 0 1-3.466-3.655v-5.779h2.186v5.387c0 1.131.527 2.092 1.846 2.092A1.838 1.838 0 0 0 43.72 25v-5.428h2.186v7.5A14.866 14.866 0 0 0 46 28.746h-2.091a6.763 6.763 0 0 1-.076-1.017 2.936 2.936 0 0 1-2.6 1.281zM56.4 27.069a15.031 15.031 0 0 0 .094 1.677H54.4a9.121 9.121 0 0 1-.094-1.187 3.019 3.019 0 0 1-2.694 1.413c-2.637 0-4.408-2.073-4.408-4.842a4.505 4.505 0 0 1 4.37-4.8 2.8 2.8 0 0 1 2.694 1.319v-5.542H56.4v11.962zm-4.54-.018c1.432 0 2.43-1.187 2.43-2.939s-.98-2.845-2.411-2.845a2.56 2.56 0 0 0-2.487 2.864c-.004 1.752.976 2.92 2.464 2.92zm15.259 1.7v-5.713h-6.277v5.708h-2.26V15.107h2.26v5.8h6.273v-5.8H69.4v13.639zm12.691-2.618a4.131 4.131 0 0 1-4.144 2.9 4.633 4.633 0 0 1-4.691-4.917 4.6 4.6 0 0 1 4.465-4.823c2.825 0 4.483 1.865 4.483 4.766a3.212 3.212 0 0 1-.057.7h-6.71a2.456 2.456 0 0 0 2.5 2.392 2.214 2.214 0 0 0 2.3-1.6zm-2.09-2.976a2.056 2.056 0 0 0-2.261-2.035 2.2 2.2 0 0 0-2.242 2.035zm5.743.338l2.355-.358c.528-.075.678-.339.678-.659 0-.772-.527-1.394-1.733-1.394a1.767 1.767 0 0 0-1.884 1.657l-2-.452a3.594 3.594 0 0 1 3.862-2.995c2.826 0 3.9 1.6 3.9 3.428v4.559a8.294 8.294 0 0 0 .113 1.469h-2.036a5.09 5.09 0 0 1-.094-1.168 3.2 3.2 0 0 1-2.824 1.446 2.877 2.877 0 0 1-3.108-2.77c0-1.637 1.206-2.542 2.769-2.768zm3.033 1.451v-.414l-2.392.358c-.678.113-1.224.49-1.224 1.244a1.213 1.213 0 0 0 1.337 1.186 2.088 2.088 0 0 0 2.275-2.379zm3.934 3.805V15.107h2.185v13.639zm6.889-9.174h1.9v1.94h-1.9v4.257c0 .81.358 1.15 1.168 1.15a4.608 4.608 0 0 0 .753-.076v1.809a3.444 3.444 0 0 1-1.337.207 2.529 2.529 0 0 1-2.751-2.731v-4.621h-1.699v-1.94h.471a1.3 1.3 0 0 0 1.412-1.432v-1.375h1.978v2.807zm5.412 9.174h-2.185V15.107h2.185v5.351a3.27 3.27 0 0 1 2.619-1.149c2.26 0 3.353 1.62 3.353 3.635v5.8h-2.185v-5.423c0-1.131-.509-2.035-1.884-2.035a1.908 1.908 0 0 0-1.9 2.072z" fill="url(#a)"/>
    <g fill="#727174">
        <path d="M80.975 43.169L78.7 36.828a1.073 1.073 0 0 1-.069-.3.549.549 0 0 1 .566-.531.586.586 0 0 1 .565.461l1.883 5.461 1.9-5.479a.561.561 0 0 1 .545-.443h.059a.589.589 0 0 1 .583.443l1.882 5.479 1.917-5.49a.541.541 0 0 1 .537-.432.531.531 0 0 1 .546.522 1.271 1.271 0 0 1-.068.3l-2.289 6.352a.669.669 0 0 1-.612.5H86.6a.629.629 0 0 1-.613-.5l-1.868-5.391-1.882 5.389a.628.628 0 0 1-.61.5H81.6a.665.665 0 0 1-.621-.5M97.564 36.554a.567.567 0 0 1 .552-.569.555.555 0 0 1 .566.569v1.287A3.049 3.049 0 0 1 101.267 36a.537.537 0 0 1 .554.563.561.561 0 0 1-.5.567c-1.449.172-2.644 1.264-2.644 3.428v2.546a.551.551 0 0 1-.549.564.558.558 0 0 1-.569-.564zM105.412 43.671a3.675 3.675 0 0 1-3.673-3.865v-.029a3.654 3.654 0 0 1 3.53-3.869 3.484 3.484 0 0 1 3.413 3.765.517.517 0 0 1-.511.521h-5.32a2.578 2.578 0 0 0 2.589 2.514 2.985 2.985 0 0 0 2.119-.863.476.476 0 0 1 .313-.129.485.485 0 0 1 .486.478.469.469 0 0 1-.171.352 3.706 3.706 0 0 1-2.775 1.125zm2.171-4.3a2.432 2.432 0 0 0-2.343-2.53 2.545 2.545 0 0 0-2.39 2.53zM89.637 41.343v-.03c0-1.578 1.3-2.417 3.2-2.417a8.039 8.039 0 0 1 2.308.319v-.265c0-1.341-.826-2.04-2.232-2.04a3.747 3.747 0 0 0-1.735.343.665.665 0 0 1-.205.043.5.5 0 0 1-.5-.475.463.463 0 0 1 .307-.467 4.935 4.935 0 0 1 2.243-.424 3.278 3.278 0 0 1 2.422.824 2.966 2.966 0 0 1 .765 2.188v4.131a.529.529 0 0 1-.538.55.513.513 0 0 1-.531-.522v-.719a3.268 3.268 0 0 1-2.706 1.29c-1.39 0-2.8-.793-2.8-2.329m5.518-.578v-.727a7.884 7.884 0 0 0-2.2-.318c-1.4 0-2.185.609-2.185 1.548v.032c0 .937.872 1.49 1.884 1.49a2.263 2.263 0 0 0 2.5-2.025M60.994 36.51a1.046 1.046 0 1 0-1.9.874l2.337 5.075c.367.795.752 1.212 1.48 1.212.773 0 1.116-.453 1.483-1.212 0 0 2.037-4.437 2.055-4.483a.3.3 0 0 1 .294-.186.327.327 0 0 1 .327.328v4.337a1.087 1.087 0 0 0 1.079 1.216 1.1 1.1 0 0 0 1.1-1.216V38.9a1.087 1.087 0 0 1 1.157-1.125 1.063 1.063 0 0 1 1.115 1.125v3.553a1.1 1.1 0 1 0 2.181 0V38.9a1.091 1.091 0 0 1 1.164-1.125 1.062 1.062 0 0 1 1.11 1.125v3.553a1.09 1.09 0 0 0 1.085 1.216 1.1 1.1 0 0 0 1.1-1.216v-4.039a2.531 2.531 0 0 0-2.631-2.525 3.357 3.357 0 0 0-2.332 1 2.588 2.588 0 0 0-2.255-.993 3.713 3.713 0 0 0-2.2.993 2.63 2.63 0 0 0-1.964-.993A2.411 2.411 0 0 0 64.4 37.5l-1.49 3.52zM108.682 36.867a.909.909 0 1 1 1.818-.007v.007a.916.916 0 0 1-.909.913.9.9 0 0 1-.909-.91m1.644 0a.733.733 0 0 0-.735-.746.741.741 0 0 0-.738.75.737.737 0 1 0 1.473 0"/>
        <path d="M109.244 36.5a.1.1 0 0 1 .1-.1h.3a.347.347 0 0 1 .257.091.293.293 0 0 1-.1.471l.137.165a.13.13 0 0 1 .031.075.092.092 0 0 1-.093.088.106.106 0 0 1-.093-.05l-.188-.234h-.162v.194a.093.093 0 0 1-.094.095.1.1 0 0 1-.1-.095v-.7zm.393.333c.092 0 .147-.049.147-.124 0-.083-.058-.129-.153-.129h-.2v.257zM51.835 41.121a2.127 2.127 0 0 1-2.044 2.328 1.8 1.8 0 0 1-1.615-.936v.833h-.645v-6h.645v2.4a1.8 1.8 0 0 1 1.615-.937 2.124 2.124 0 0 1 2.044 2.312zm-.678 0a1.51 1.51 0 1 0-1.486 1.753 1.566 1.566 0 0 0 1.486-1.753zM52.909 44.746l.154-.549a1.176 1.176 0 0 0 .524.111.662.662 0 0 0 .644-.4l.258-.55-1.932-4.458h.713l1.554 3.7 1.469-3.694h.7l-2.028 4.939a1.392 1.392 0 0 1-1.348 1.049 1.71 1.71 0 0 1-.708-.148z"/>
    </g>
</svg>
