<svg xmlns="http://www.w3.org/2000/svg" width="120" height="60">
    <path d="M44.526 35.317a5.05 5.05 0 0 1-5.3-5.352 5.079 5.079 0 0 1 5.335-5.317 5.5 5.5 0 0 1 3.11.817l-1.008 1.651a3.707 3.707 0 0 0-2.137-.591c-1.894 0-2.9 1.512-2.9 3.388 0 1.929.973 3.527 2.937 3.527a3.584 3.584 0 0 0 2.311-.781l.921 1.581a5.216 5.216 0 0 1-3.267 1.077zm7.489-6.325c-1.13 0-1.494.956-1.494 2.346s.451 2.38 1.581 2.38c1.147 0 1.529-.938 1.529-2.328-.018-1.39-.469-2.4-1.616-2.4zm.035 6.325a3.654 3.654 0 0 1-3.788-3.927 3.816 3.816 0 1 1 7.628-.07 3.76 3.76 0 0 1-3.84 4zm7.159-7.717v4.831c0 .747.26 1.112.973 1.112a2.21 2.21 0 0 0 1.494-.9V27.6H63.8v5.317a10.322 10.322 0 0 0 .2 2.209h-2.1a5.067 5.067 0 0 1-.156-1.008 3 3 0 0 1-2.431 1.182c-1.668 0-2.259-1.06-2.259-2.45v-5.265h2.155v.015zm9.817 7.715a3.68 3.68 0 0 1-3.926-3.942 3.721 3.721 0 0 1 4-3.962 4.243 4.243 0 0 1 2.306.589l-.677 1.459a2.8 2.8 0 0 0-1.564-.434c-1.182 0-1.807.921-1.807 2.294s.591 2.363 1.859 2.363a2.843 2.843 0 0 0 1.6-.452l.643 1.425a4.08 4.08 0 0 1-2.433.66zm8.132-.174V30.3c0-.747-.261-1.112-.973-1.112a2.2 2.2 0 0 0-1.512.9v5.039h-2.12V24.005h2.12v4.483a3.078 3.078 0 0 1 2.346-1.077c1.668 0 2.259 1.06 2.259 2.45v5.265h-2.12v.017zm5.977-1.65a2.771 2.771 0 0 0 1.008.156c1.095 0 1.772-.8 1.772-2.346 0-1.39-.469-2.224-1.546-2.224a1.736 1.736 0 0 0-1.234.556zm0-9.47v4.17a2.679 2.679 0 0 1 1.842-.782c1.877 0 3.2 1.286 3.2 3.892a3.77 3.77 0 0 1-4.031 4.014A7.423 7.423 0 0 1 81 34.709v-10.7h2.137v.018zm10.1 7.8h-.265c-1.164 0-1.981.348-1.981 1.2 0 .539.435.765.9.765a1.825 1.825 0 0 0 1.338-.626v-1.336zm.225 3.319a3.851 3.851 0 0 1-.121-.8 2.745 2.745 0 0 1-2.1.99 2.076 2.076 0 0 1-2.276-2.119c0-1.964 2.016-2.676 4.014-2.676h.261v-.417c0-.626-.261-1.008-1.2-1.008a3.239 3.239 0 0 0-1.912.7l-.926-1.287a4.479 4.479 0 0 1 3.076-1.095c2.085 0 3.075.8 3.075 2.815v2.641a10.749 10.749 0 0 0 .209 2.259zm5.717.174a4.782 4.782 0 0 1-2.697-.714l.712-1.477a3.442 3.442 0 0 0 1.859.626c.782 0 1.217-.226 1.217-.643 0-.486-.852-.625-1.929-1.147a2.322 2.322 0 0 1-1.651-2.224c0-1.425 1.13-2.328 2.85-2.328a4.864 4.864 0 0 1 2.433.591l-.73 1.442a3.234 3.234 0 0 0-1.6-.469c-.712 0-1.025.243-1.025.643 0 .486.695.608 1.564.955 1.182.487 2.033 1.043 2.033 2.294-.035 1.616-1.182 2.45-3.041 2.45zm8.74-4.865c-.017-.834-.347-1.512-1.251-1.512-.834 0-1.32.539-1.459 1.512zm-.8 3.3a3.829 3.829 0 0 0 1.963-.521l.678 1.355a5.132 5.132 0 0 1-2.832.73 3.683 3.683 0 0 1-3.979-4 3.674 3.674 0 0 1 3.753-3.91c2.38 0 3.527 1.651 3.267 4.466h-4.747a1.783 1.783 0 0 0 1.894 1.876z"/>
    <path d="M21.5 18.5A11.5 11.5 0 1 0 33.006 30 11.505 11.505 0 0 0 21.5 18.5zm7.77 13.516a1.389 1.389 0 0 1-1.182 1.442 47.455 47.455 0 0 1-6.585.382 47.471 47.471 0 0 1-6.586-.382 1.389 1.389 0 0 1-1.181-1.442v-4.483a1.493 1.493 0 0 1 1.181-1.443 15.541 15.541 0 0 1 2.068-.139.5.5 0 0 1 .5.539v3.145l4.031-.087 4.031.087V26.49a.5.5 0 0 1 .5-.539 15.541 15.541 0 0 1 2.068.139 1.477 1.477 0 0 1 1.182 1.443c-.035 1.477-.035 2.988-.035 4.483z" fill="#ed2226"/>
</svg>
