<svg xmlns="http://www.w3.org/2000/svg" width="120" height="60">
    <defs>
        <clipPath id="a">
            <path d="M203.674 171.192a74.564 74.564 0 0 1-22.561 3.794c7.353 6.131 20.453 17.7 42.049 11.1a33.551 33.551 0 0 1-19.488-14.894z" fill="#fff" clip-rule="evenodd"/>
        </clipPath>
    </defs>
    <g opacity=".5">
        <path d="M203.674 171.192a74.564 74.564 0 0 1-22.561 3.794c7.353 6.131 20.453 17.7 42.049 11.1a33.551 33.551 0 0 1-19.488-14.894z" fill="#fff" fill-rule="evenodd"/>
        <g clip-path="url(#a)">
            <path fill="#fff" d="M103.142 52.552h245.087v245.087H103.142z"/>
        </g>
    </g>
    <g fill="#099cec">
        <path d="M12.864 26.186h3.774v3.43h-3.774zM17.324 26.186h3.774v3.43h-3.774zM21.784 26.186h3.774v3.43h-3.774zM26.243 26.186h3.774v3.43h-3.774zM30.703 26.186h3.774v3.43h-3.774zM17.324 22.07h3.774v3.43h-3.774zM21.784 22.07h3.774v3.43h-3.774zM26.243 22.07h3.774v3.43h-3.774zM26.243 17.953h3.774v3.43h-3.774z"/>
        <path d="M45.716 27.245a6.457 6.457 0 0 0-4.289-.345 5.1 5.1 0 0 0-2.23-3.8l-.514-.345-.343.518a5.913 5.913 0 0 0-.858 3.626 4.31 4.31 0 0 0 .858 2.245 5.633 5.633 0 0 1-3.259.863H10.553c-.436 2.59.311 12.433 11.663 12.433 8.429 0 15.354-3.791 18.525-11.742 1.043.017 3.8.187 5.146-2.418.032-.043.343-.69.343-.69z" fill-rule="evenodd"/>
    </g>
    <path d="M19.615 37.764a21.293 21.293 0 0 1-6.442 1.084c2.1 1.75 5.84 5.054 12.007 3.168a9.581 9.581 0 0 1-5.565-4.252z" fill="#fff" fill-rule="evenodd"/>
    <path d="M19.3 37.16a9.178 9.178 0 0 1-4.563 1.2 9.272 9.272 0 0 1-2.424-.32l.489.823a10.029 10.029 0 0 0 1.935.188 9.882 9.882 0 0 0 4.9-1.287 9.124 9.124 0 0 1-.337-.604z" fill="#026fb6" fill-rule="evenodd"/>
    <ellipse cx="21.913" cy="35.512" rx="1.193" ry="1.201" fill="#fff"/>
    <path d="M22.092 35.174a.343.343 0 0 1 .134-.267.672.672 0 0 0-.31-.078.686.686 0 1 0 .682.686v-.039a.341.341 0 0 1-.159.044.345.345 0 0 1-.347-.346z" fill="#4d5c64"/>
    <path d="M45.617 27.184a6.457 6.457 0 0 0-4.293-.35l-.314.444c-4.6 9.514-10.35 13.536-18.21 13.715-8.572-.024-10.717-4.543-11.321-10.706h-1.372c-.176 2.59.485 12.116 11.925 12.116 8.439 0 15.386-3.782 18.594-11.725 1.046.017 3.962.017 5.248-2.59l.261-.552z" fill-rule="evenodd" opacity=".04"/>
    <g fill="#066da5">
        <path d="M13.551 26.872h.343v2.058h-.343zM14.58 26.872h.343v2.058h-.343zM15.609 26.872h.343v2.058h-.343zM18.01 26.872h.343v2.058h-.343zM19.039 26.872h.343v2.058h-.343zM20.068 26.872h.343v2.058h-.343zM22.47 26.872h.343v2.058h-.343zM23.499 26.872h.343v2.058h-.343zM24.528 26.872h.343v2.058h-.343zM26.929 26.872h.343v2.058h-.343zM27.959 26.872h.343v2.058h-.343zM28.988 26.872h.343v2.058h-.343zM31.389 26.872h.343v2.058h-.343zM32.418 26.872h.343v2.058h-.343zM33.447 26.872h.343v2.058h-.343zM19.039 22.756h.343v2.058h-.343zM20.068 22.756h.343v2.058h-.343zM22.47 22.756h.343v2.058h-.343zM23.499 22.756h.343v2.058h-.343zM24.528 22.756h.343v2.058h-.343zM26.929 22.756h.343v2.058h-.343zM27.959 22.756h.343v2.058h-.343zM28.988 22.756h.343v2.058h-.343zM27.959 18.639h.343v2.058h-.343zM26.929 18.639h.343v2.058h-.343zM28.988 18.639h.343v2.058h-.343zM18.01 22.756h.343v2.058h-.343z"/>
        <path d="M46.25 28.037l.116-.24.053-.109.13-.271-.762-.512a6.611 6.611 0 0 0-4.175-.482 5.586 5.586 0 0 0-2.334-3.656l-.81-.543-.533.8a6.248 6.248 0 0 0-.915 3.846 4.875 4.875 0 0 0 .709 2.13 5.757 5.757 0 0 1-2.566.605V25.5H30.7v-8.233h-5.143v4.117h-8.919V25.5h-4.46v4.11h-2.035l-.043.29a10.87 10.87 0 0 0 .041 3.143 12.44 12.44 0 0 0 1.409 4.272c1.9 3.415 5.36 5.421 10.552 5.421 8.835 0 15.6-4.079 18.753-11.737a6.973 6.973 0 0 0 2.633-.342 4.509 4.509 0 0 0 2.577-2.257c.035-.055.082-.152.185-.363zM30.7 26.186h3.773v3.424H30.7zm-4.46-8.233h3.774v3.431h-3.771zm0 4.117h3.774v3.43h-3.771zm0 4.116h3.774v3.424h-3.771zm-4.456-4.116h3.773v3.43h-3.773zm0 4.116h3.773v3.424h-3.773zm-4.46-4.116H21.1v3.43h-3.776zm0 4.116H21.1v3.424h-3.776zm-4.46 0h3.774v3.424h-3.774zm32.765 1.556a15.477 15.477 0 0 1-.166.327A3.826 3.826 0 0 1 43.257 30a6.469 6.469 0 0 1-2.452.3h-.414l-.088.22c-3 7.526-9.554 11.525-18.206 11.525-4.946 0-8.173-1.873-9.954-5.068a11.743 11.743 0 0 1-1.328-4.033 10.938 10.938 0 0 1-.083-2.641h24.431V30.3a5.875 5.875 0 0 0 3.267-.931l.281-.218-.227-.276a3.948 3.948 0 0 1-.78-2.06 5.55 5.55 0 0 1 .8-3.4l.152-.23.219.147a4.757 4.757 0 0 1 2.088 3.537l.023.424.408-.11a6.191 6.191 0 0 1 4.01.3l.265.178z"/>
    </g>
    <path d="M68.334 30.632a5.127 5.127 0 0 0-7.3 0 5.247 5.247 0 0 0 0 7.368 5.125 5.125 0 0 0 7.3 0 5 5 0 0 0 1.511-3.684 5.415 5.415 0 0 0-.382-2 5.118 5.118 0 0 0-1.129-1.684zm-.668 4.945a3.344 3.344 0 0 1-.691 1.037 3.264 3.264 0 0 1-1.027.707 3.206 3.206 0 0 1-2.534 0 3.264 3.264 0 0 1-1.023-.7 3.307 3.307 0 0 1-.686-1.037 3.28 3.28 0 0 1 0-2.531 3.307 3.307 0 0 1 .686-1.037 3.248 3.248 0 0 1 1.023-.7 3.206 3.206 0 0 1 2.534 0 3.264 3.264 0 0 1 1.027.707 3.344 3.344 0 0 1 .691 1.037 3.267 3.267 0 0 1 0 2.521zm-10.2-10.936a.925.925 0 0 0-.686.275.945.945 0 0 0-.272.693v4.642a5.135 5.135 0 0 0-6.883.381 5.247 5.247 0 0 0 0 7.368 5.126 5.126 0 0 0 7.3 0 5 5 0 0 0 1.511-3.684v-8.707a.929.929 0 0 0-.281-.693.947.947 0 0 0-.694-.275zM56.25 35.577a3.362 3.362 0 0 1-.691 1.037 3.268 3.268 0 0 1-1.028.707 3.206 3.206 0 0 1-2.534 0 3.249 3.249 0 0 1-1.022-.7 3.327 3.327 0 0 1-.687-1.037 3.292 3.292 0 0 1 0-2.531 3.327 3.327 0 0 1 .687-1.037 3.232 3.232 0 0 1 1.022-.7 3.206 3.206 0 0 1 2.534 0 3.268 3.268 0 0 1 1.028.707 3.362 3.362 0 0 1 .691 1.037 3.267 3.267 0 0 1 0 2.521zm33.534-5.5a.913.913 0 0 0-.078-.372 1.057 1.057 0 0 0-.207-.311.92.92 0 0 0-.3-.21.969.969 0 0 0-.378-.074.922.922 0 0 0-.516.149l-5.51 3.618v-7.259a.948.948 0 0 0-.281-.693.919.919 0 0 0-.677-.284.931.931 0 0 0-.687.284.948.948 0 0 0-.281.693v12.931a.955.955 0 0 0 .281.689.924.924 0 0 0 .687.288.911.911 0 0 0 .677-.288.955.955 0 0 0 .281-.689v-3.358l1.124-.744 4.257 4.828a.889.889 0 0 0 .645.251.969.969 0 0 0 .378-.074.92.92 0 0 0 .3-.21 1.083 1.083 0 0 0 .207-.311.913.913 0 0 0 .078-.372.99.99 0 0 0-.267-.68l-3.962-4.5 3.861-2.531a.87.87 0 0 0 .368-.774zm19.958-.316a1.813 1.813 0 0 0-.65-.395 3.712 3.712 0 0 0-.856-.2 7.192 7.192 0 0 0-.871-.056 4.994 4.994 0 0 0-1.732.3 5.268 5.268 0 0 0-1.5.856v-.186a.937.937 0 0 0-.281-.683.916.916 0 0 0-.677-.284.927.927 0 0 0-.687.284.937.937 0 0 0-.281.683v8.485a.965.965 0 0 0 .968.967.92.92 0 0 0 .677-.284.937.937 0 0 0 .281-.683v-4.249a3.219 3.219 0 0 1 .253-1.274 3.275 3.275 0 0 1 .691-1.037 3.232 3.232 0 0 1 1.028-.7 3.126 3.126 0 0 1 1.262-.256 3.365 3.365 0 0 1 1.262.233 1.028 1.028 0 0 0 .406.1.96.96 0 0 0 .377-.074.91.91 0 0 0 .3-.21 1.107 1.107 0 0 0 .208-.311.936.936 0 0 0 .078-.382.868.868 0 0 0-.256-.647zm-35.953 2.244a3.3 3.3 0 0 1 1.032-.7 3.129 3.129 0 0 1 1.262-.256 3.012 3.012 0 0 1 1.124.205 3.529 3.529 0 0 1 .986.6.97.97 0 0 0 .627.224.917.917 0 0 0 .686-.279.962.962 0 0 0 .272-.7.948.948 0 0 0-.332-.735 4.888 4.888 0 0 0-3.363-1.265 4.949 4.949 0 0 0-3.649 1.525 5.247 5.247 0 0 0 0 7.368 5.115 5.115 0 0 0 7.012.261.987.987 0 0 0 .3-.717.945.945 0 0 0-.272-.693.928.928 0 0 0-.686-.274 1.018 1.018 0 0 0-.608.2 3.346 3.346 0 0 1-.977.6 3.092 3.092 0 0 1-1.124.2 3.146 3.146 0 0 1-1.262-.256 3.312 3.312 0 0 1-1.032-.7 3.277 3.277 0 0 1 0-4.623zm25.845-1.373a5.127 5.127 0 0 0-7.3 0 5.247 5.247 0 0 0 0 7.368 5.126 5.126 0 0 0 7.021.261.972.972 0 0 0 .276-.7.941.941 0 0 0-.272-.693.925.925 0 0 0-.686-.274.994.994 0 0 0-.636.242 3.05 3.05 0 0 1-.94.558 3.209 3.209 0 0 1-1.115.186 3.163 3.163 0 0 1-1.027-.168 3.289 3.289 0 0 1-.9-.47 3.254 3.254 0 0 1-.714-.725 3.2 3.2 0 0 1-.461-.935h7.3a.945.945 0 0 0 .686-.275.922.922 0 0 0 .281-.693 5.249 5.249 0 0 0-.378-2 5.054 5.054 0 0 0-1.135-1.682zm-6.754 2.717a3.035 3.035 0 0 1 .452-.935 3.217 3.217 0 0 1 .719-.726 3.338 3.338 0 0 1 .912-.469 3.183 3.183 0 0 1 2.041 0 3.314 3.314 0 0 1 .9.469 3.364 3.364 0 0 1 .718.726 3.139 3.139 0 0 1 .466.935z" fill="#066da5"/>
</svg>
