<svg xmlns="http://www.w3.org/2000/svg" width="120" height="60">
	<path d="M27.48 24.42A8.72 8.72 0 0013 26.13h11.34a3.44 3.44 0 002.23-.81 7.73 7.73 0 00.91-.9" fill="#fec514"/>
	<path d="M12.07 30a8.86 8.86 0 00.3 2.26h10.68a2.26 2.26 0 000-4.52H12.37a8.86 8.86 0 00-.3 2.26" fill="#343741"/>
	<path d="M27.48 35.58A8.72 8.72 0 0113 33.87h11.34a3.44 3.44 0 012.23.81 7.73 7.73 0 01.91.9" fill="#00bfb3"/>
	<path d="M40.11 34.64v-1.58h-4.38v-2.22H39v-1.59h-3.27v-2.18h4.38v-1.59H34v9.16zm3.11 0v-9.16h-1.63v9.16zm3.44.19a2.18 2.18 0 001.77-.8v.61H50v-3.95a2.29 2.29 0 00-2.56-2.49 2.67 2.67 0 00-2.76 1.8l1.63.13a1.06 1.06 0 011-.62 1 1 0 011 1.08V31a3.21 3.21 0 00-1.27-.23c-1.64 0-2.63.77-2.63 2.07a2 2 0 002.25 1.99zm.46-1.28c-.62 0-1-.32-1-.8s.43-.8 1.18-.8a2 2 0 011.11.27v.41c.02.48-.59.92-1.29.92zm6.56 1.29c1.51 0 2.53-.82 2.53-2.09 0-2.52-3.29-1.44-3.29-2.67 0-.36.28-.63.79-.63a.89.89 0 01.95.68l1.52-.33a2.44 2.44 0 00-2.51-1.6c-1.41 0-2.37.8-2.37 2 0 2.53 3.3 1.46 3.3 2.67 0 .46-.33.76-.88.76a1.16 1.16 0 01-1.18-.79l-1.5.28a2.54 2.54 0 002.64 1.72zm6.32-.06a2.94 2.94 0 001-.17l-.16-1.31a1.48 1.48 0 01-.57.11c-.61 0-.92-.26-.92-1.1V29.8H61v-1.4h-1.64v-2l-1.63.33v1.67h-1.06v1.4h1.06v2.78a2 2 0 002.27 2.2zm3.57-7.71v-1.59h-1.68v1.59zm0 7.57V28.4h-1.68v6.24zm4.32.2a2.7 2.7 0 002.78-2l-1.52-.4a1.28 1.28 0 01-1.31 1c-1 0-1.51-.78-1.51-1.87s.54-1.87 1.51-1.87a1.28 1.28 0 011.33.95l1.58-.22a2.74 2.74 0 00-3-2.19 3.08 3.08 0 00-3.1 3.32 3.1 3.1 0 003.19 3.28zm6.08 0c1.52 0 2.54-.82 2.54-2.09 0-2.52-3.3-1.44-3.3-2.67 0-.36.28-.63.79-.63a.91.91 0 011 .68l1.51-.33A2.44 2.44 0 0074 28.2c-1.41 0-2.37.8-2.37 2 0 2.53 3.3 1.46 3.3 2.67 0 .46-.32.76-.88.76a1.16 1.16 0 01-1.18-.79l-1.5.28a2.54 2.54 0 002.55 1.72zm6.53 0a2.78 2.78 0 002.71-1.74l-1.36-.39a1.44 1.44 0 01-1.33.78A1.64 1.64 0 0178.84 32h4.56v-.4a3.08 3.08 0 00-3.1-3.39 3.15 3.15 0 00-3.12 3.34 3.17 3.17 0 003.27 3.29zm1.26-4h-2.91a1.46 1.46 0 011.47-1.39 1.34 1.34 0 011.39 1.41zm4.73 4a2.15 2.15 0 001.77-.8h.06v.61h1.54v-3.96a2.29 2.29 0 00-2.57-2.49 2.68 2.68 0 00-2.83 1.8l1.63.13a1.08 1.08 0 011-.62 1 1 0 011 1.08V31a3.29 3.29 0 00-1.27-.23c-1.64 0-2.64.77-2.64 2.07a2 2 0 002.26 1.99zm.47-1.28c-.62 0-1-.32-1-.8s.42-.8 1.17-.8a2 2 0 011.11.27v.41c-.03.47-.63.91-1.33.91zm5.91 1.09v-2.8c0-1.46.67-1.95 1.56-1.95a1.3 1.3 0 01.46.08v-1.59a1 1 0 00-.47-.09 1.76 1.76 0 00-1.64 1.11v-1h-1.59v6.24zm5.72.2a2.71 2.71 0 002.78-2l-1.53-.4a1.28 1.28 0 01-1.31 1c-1 0-1.51-.78-1.51-1.87s.54-1.87 1.51-1.87a1.29 1.29 0 011.34.95l1.58-.22a2.74 2.74 0 00-3-2.19 3.09 3.09 0 00-3.11 3.32 3.1 3.1 0 003.2 3.27zm5.43-.2v-3.59a1.31 1.31 0 011.29-1.4c.66 0 1 .43 1 1.29v3.69h1.63v-4c0-1.53-.83-2.45-2.16-2.45a2.26 2.26 0 00-1.8.89v-3.6h-1.63v9.16z" fill="#343741"/>
</svg>
