<svg xmlns="http://www.w3.org/2000/svg" width="120" height="60">
    <path d="M22.191 17.575c-.174 0-.217-.087-.13-.217l.91-1.171a.622.622 0 0 1 .477-.216h15.481c.173 0 .216.13.13.26l-.737 1.127a.662.662 0 0 1-.434.26zM15.643 21.564c-.173 0-.217-.086-.13-.217l.911-1.17a.62.62 0 0 1 .477-.217h19.773a.2.2 0 0 1 .217.26l-.347 1.041a.381.381 0 0 1-.391.26zM26.137 25.554c-.174 0-.217-.13-.13-.261l.607-1.084a.573.573 0 0 1 .433-.26h8.673c.173 0 .26.13.26.3l-.087 1.04a.325.325 0 0 1-.3.3z" fill="#00add8"/>
    <g fill="#00add8">
        <path d="M71.147 16.794c-2.732.694-4.6 1.215-7.285 1.908-.651.174-.694.217-1.258-.433a5.8 5.8 0 0 0-2.038-1.648 7.54 7.54 0 0 0-7.848.65A9.22 9.22 0 0 0 48.3 25.51a6.8 6.8 0 0 0 5.854 6.808 8 8 0 0 0 7.371-2.862c.391-.477.737-1 1.171-1.6h-8.374c-.91 0-1.127-.564-.824-1.3.564-1.344 1.605-3.6 2.212-4.727a1.17 1.17 0 0 1 1.084-.693h15.784c-.087 1.17-.087 2.341-.26 3.512a18.493 18.493 0 0 1-3.556 8.5A18.066 18.066 0 0 1 56.4 40.514a15.367 15.367 0 0 1-11.665-2.862 13.621 13.621 0 0 1-5.507-9.627 17.018 17.018 0 0 1 3.686-12.7 19.245 19.245 0 0 1 12.141-7.5A14.943 14.943 0 0 1 66.55 9.943a13.589 13.589 0 0 1 5.03 6.114c.261.391.087.607-.433.737z"/>
        <path d="M85.5 40.774a16.27 16.27 0 0 1-10.581-3.816 13.6 13.6 0 0 1-4.683-8.369 16.556 16.556 0 0 1 3.512-13.095A18.182 18.182 0 0 1 85.89 8.252c4.423-.78 8.586-.347 12.358 2.212a13.493 13.493 0 0 1 6.114 9.669 16.741 16.741 0 0 1-4.986 14.7 19.868 19.868 0 0 1-10.407 5.55c-1.169.217-2.342.261-3.469.391zm10.32-17.519a12.361 12.361 0 0 0-.13-1.431 7.144 7.144 0 0 0-8.846-5.767 9.471 9.471 0 0 0-7.588 7.543 7.141 7.141 0 0 0 3.989 8.2 7.954 7.954 0 0 0 7.068-.26 9.492 9.492 0 0 0 5.507-8.285z"/>
    </g>
    <g fill="#00add8">
        <path d="M76.78 49.038h-2.75a.749.749 0 0 0 .225.494.765.765 0 0 0 .494.142.571.571 0 0 0 .627-.4l1.363.393a1.388 1.388 0 0 1-.69.865 2.628 2.628 0 0 1-1.3.3 2.451 2.451 0 0 1-1.739-.564 2.1 2.1 0 0 1-.6-1.61 2.125 2.125 0 0 1 .59-1.609 2.293 2.293 0 0 1 1.66-.569 2.185 2.185 0 0 1 1.605.556 2.045 2.045 0 0 1 .56 1.518 2.247 2.247 0 0 1-.045.484zm-2.546-1.254a.921.921 0 0 0-.2.519h1.212a.986.986 0 0 0-.18-.51.483.483 0 0 0-.4-.167.575.575 0 0 0-.432.158zM80.208 50.744l-.71-1.371-.7 1.371h-1.859l1.48-2.124-1.429-2.056h1.881l.661 1.3.676-1.3h1.848l-1.429 2.081 1.463 2.1zM86.776 47.045a2.577 2.577 0 0 1 .43 1.592 2.638 2.638 0 0 1-.434 1.614 1.44 1.44 0 0 1-1.221.577 1.3 1.3 0 0 1-.745-.209 1.364 1.364 0 0 1-.476-.577V52.5h-1.689v-5.936h1.48l.05.928a1.552 1.552 0 0 1 .527-.74 1.385 1.385 0 0 1 .861-.272 1.441 1.441 0 0 1 1.217.565zm-1.417 2.349a1.881 1.881 0 0 0 0-1.484.507.507 0 0 0-.447-.226q-.552 0-.577.878v.184c.017.579.209.87.577.87a.51.51 0 0 0 .447-.222zM92.382 46.564l-1.421 4.18H88.9l-1.422-4.18h1.764l.694 3.135.7-3.135zM97.332 49.783l-.134.894a1.215 1.215 0 0 1-.594.151 1.624 1.624 0 0 1-.79-.172.831.831 0 0 1-.414-.5 1.242 1.242 0 0 1-.556.5 2.136 2.136 0 0 1-.932.18 1.519 1.519 0 0 1-.966-.264.91.91 0 0 1-.33-.756 1.072 1.072 0 0 1 .376-.853 2.771 2.771 0 0 1 1.254-.5l.886-.185v-.158a.53.53 0 0 0-.125-.377.456.456 0 0 0-.351-.133.55.55 0 0 0-.6.576l-1.388-.292a1.467 1.467 0 0 1 .606-1.037 2.45 2.45 0 0 1 1.442-.368q2.091 0 2.091 1.664v1.337c0 .224.1.335.292.335a.71.71 0 0 0 .233-.042zm-2.362-.072a.434.434 0 0 0 .162-.363v-.385l-.459.117q-.435.109-.435.435a.306.306 0 0 0 .1.243.373.373 0 0 0 .255.083.592.592 0 0 0 .377-.13zM101.144 46.58l-.159 1.4a.564.564 0 0 0-.217-.092 1.369 1.369 0 0 0-.31-.034.925.925 0 0 0-.635.213.785.785 0 0 0-.242.623v2.057h-1.689v-4.18h1.513l.05.978a1.649 1.649 0 0 1 .46-.786 1.136 1.136 0 0 1 .786-.276.811.811 0 0 1 .443.097z"/>
    </g>
</svg>
