<svg xmlns="http://www.w3.org/2000/svg" width="120" height="60">
    <path d="M54.6 28.312a4.119 4.119 0 0 1-2.08-.561 4.039 4.039 0 0 1-1.53-5.569 4.05 4.05 0 0 1 1.53-1.511 4.128 4.128 0 0 1 2.08-.56 3.948 3.948 0 0 1 2.81 1.13l-.79.79a2.873 2.873 0 0 0-2.02-.8 2.8 2.8 0 0 0-2.09.871 3.043 3.043 0 0 0 0 4.219 3 3 0 0 0 3.889.29 2.366 2.366 0 0 0 .88-1.65H54.6v-1.119h3.77a4.01 4.01 0 0 1-1.02 3.429 3.824 3.824 0 0 1-2.75 1.041zm9.53-2.641a2.65 2.65 0 1 1-5.3 0 2.532 2.532 0 0 1 .76-1.88 2.716 2.716 0 0 1 3.769 0 2.515 2.515 0 0 1 .771 1.88zm-4.14 0a1.606 1.606 0 0 0 .43 1.141 1.441 1.441 0 0 0 2.109 0 1.608 1.608 0 0 0 .441-1.141 1.567 1.567 0 0 0-.43-1.14 1.451 1.451 0 0 0-2.12 0 1.563 1.563 0 0 0-.43 1.14zm9.92 0a2.651 2.651 0 1 1-5.3 0 2.533 2.533 0 0 1 .761-1.88 2.718 2.718 0 0 1 3.77 0 2.518 2.518 0 0 1 .769 1.88zm-4.14 0a1.606 1.606 0 0 0 .43 1.141 1.442 1.442 0 0 0 2.11 0 1.608 1.608 0 0 0 .44-1.141 1.564 1.564 0 0 0-.431-1.14 1.45 1.45 0 0 0-2.119 0 1.563 1.563 0 0 0-.43 1.14zm7.169 5.011a2.47 2.47 0 0 1-.759-.116 2.587 2.587 0 0 1-.665-.32 2.47 2.47 0 0 1-.536-.489 2.738 2.738 0 0 1-.379-.636l1.009-.42a1.632 1.632 0 0 0 .531.681 1.307 1.307 0 0 0 .8.26q1.412 0 1.411-1.661v-.27h-.04a1.711 1.711 0 0 1-1.39.6 2.441 2.441 0 0 1-1.78-.771 2.693 2.693 0 0 1 0-3.729 2.4 2.4 0 0 1 1.78-.781 1.728 1.728 0 0 1 1.39.59h.04v-.43h1.1v4.741a2.877 2.877 0 0 1-.665 2.035 2.4 2.4 0 0 1-1.847.716zm-1.389-5a1.611 1.611 0 0 0 .42 1.13 1.382 1.382 0 0 0 1.05.459 1.3 1.3 0 0 0 1-.45 1.674 1.674 0 0 0 .41-1.139 1.694 1.694 0 0 0-.41-1.151 1.273 1.273 0 0 0-1-.46 1.387 1.387 0 0 0-1.041.47 1.611 1.611 0 0 0-.429 1.141zm4.7-5.29h1.16v7.759h-1.16zm4.34 7.92a2.523 2.523 0 0 1-1.87-.76 2.574 2.574 0 0 1-.75-1.881 2.661 2.661 0 0 1 .71-1.89 2.368 2.368 0 0 1 1.78-.75 2.264 2.264 0 0 1 .74.12 2.238 2.238 0 0 1 .64.345 2.614 2.614 0 0 1 .514.535 2.907 2.907 0 0 1 .366.68l.12.3-3.53 1.46a1.35 1.35 0 0 0 1.28.8 1.5 1.5 0 0 0 1.3-.73l.9.6a2.529 2.529 0 0 1-2.2 1.171zm-.09-4.26a1.357 1.357 0 0 0-.98.439 1.443 1.443 0 0 0-.4 1.1l2.359-.981a.81.81 0 0 0-.37-.405 1.209 1.209 0 0 0-.609-.153zM53.681 38.3a3.366 3.366 0 1 1 0-6.732 2.982 2.982 0 0 1 2.367 1.053l-.594.576a2.205 2.205 0 0 0-1.773-.837 2.435 2.435 0 0 0-1.791.72 2.773 2.773 0 0 0 0 3.708 2.427 2.427 0 0 0 1.791.72 2.524 2.524 0 0 0 1.953-.944l.6.585a3.108 3.108 0 0 1-1.125.85 3.44 3.44 0 0 1-1.428.301zm4.119-6.593v6.444h-.828v-6.444zm.711 4.239a2.331 2.331 0 0 1 .639-1.682 2.174 2.174 0 0 1 1.629-.666 2.145 2.145 0 0 1 1.62.666 2.508 2.508 0 0 1 0 3.365 2.149 2.149 0 0 1-1.62.666 2.178 2.178 0 0 1-1.629-.666 2.331 2.331 0 0 1-.636-1.683zm.828 0a1.611 1.611 0 0 0 .414 1.153 1.416 1.416 0 0 0 2.052 0 1.8 1.8 0 0 0 0-2.295 1.395 1.395 0 0 0-2.052 0 1.6 1.6 0 0 0-.411 1.142zm8.289 2.205h-.792v-.612H66.8a1.471 1.471 0 0 1-.58.54 1.655 1.655 0 0 1-.815.216 1.631 1.631 0 0 1-1.247-.463 1.852 1.852 0 0 1-.436-1.318v-2.773h.828v2.718a.973.973 0 0 0 1.089 1.08 1.034 1.034 0 0 0 .828-.4 1.45 1.45 0 0 0 .333-.958v-2.44h.828zm2.808.144a1.938 1.938 0 0 1-1.485-.684 2.571 2.571 0 0 1 0-3.33 1.937 1.937 0 0 1 1.485-.683 1.885 1.885 0 0 1 .886.207 1.531 1.531 0 0 1 .617.549h.037l-.037-.613v-2.034h.829v6.444h-.792v-.612h-.037a1.539 1.539 0 0 1-.617.549 1.885 1.885 0 0 1-.883.212zm.135-.756a1.267 1.267 0 0 0 1-.44 1.825 1.825 0 0 0 0-2.295 1.271 1.271 0 0 0-1-.45 1.288 1.288 0 0 0-1 .45 1.815 1.815 0 0 0 0 2.286 1.29 1.29 0 0 0 1.003.449zm6.156-2v2.61H75.9v-6.442h2.2a1.988 1.988 0 0 1 1.422.559 1.863 1.863 0 0 1 0 2.726 1.985 1.985 0 0 1-1.422.549zm0-3.042v2.25h1.386a1.137 1.137 0 0 0 1.153-1.125 1.155 1.155 0 0 0-1.15-1.122zm4.977-.792v6.444h-.828v-6.442zm2.641 1.895a2.051 2.051 0 0 1 1.448.49 1.741 1.741 0 0 1 .531 1.346v2.717h-.792v-.612H85.5a1.58 1.58 0 0 1-1.368.756 1.777 1.777 0 0 1-1.219-.432 1.379 1.379 0 0 1-.491-1.08 1.313 1.313 0 0 1 .518-1.089 2.184 2.184 0 0 1 1.381-.405 2.431 2.431 0 0 1 1.215.271v-.19a.941.941 0 0 0-.342-.733 1.173 1.173 0 0 0-.8-.3 1.271 1.271 0 0 0-1.1.585l-.729-.459a2.036 2.036 0 0 1 1.78-.865zm-1.072 3.2a.66.66 0 0 0 .275.54 1.013 1.013 0 0 0 .643.216 1.318 1.318 0 0 0 .932-.388 1.211 1.211 0 0 0 .409-.908 1.7 1.7 0 0 0-1.08-.307 1.407 1.407 0 0 0-.842.243.725.725 0 0 0-.337.604zm5.643 1.422a1.263 1.263 0 0 1-.895-.333 1.234 1.234 0 0 1-.365-.928V34.5h-.774v-.756h.774v-1.352h.828v1.349h1.08v.759h-1.08v2.2a.807.807 0 0 0 .171.6.562.562 0 0 0 .387.157.822.822 0 0 0 .193-.022.909.909 0 0 0 .176-.059l.261.738a2.2 2.2 0 0 1-.756.11zm3.564-6.588a1.579 1.579 0 0 1 .738.152l-.225.73a1.053 1.053 0 0 0-.486-.109.642.642 0 0 0-.5.212.8.8 0 0 0-.194.563v.557h1.152v.761h-1.151v3.654h-.828V34.5h-.828v-.756h.828V33.1a1.417 1.417 0 0 1 .414-1.06 1.489 1.489 0 0 1 1.08-.404zm.756 4.31a2.331 2.331 0 0 1 .639-1.682A2.176 2.176 0 0 1 95.5 33.6a2.145 2.145 0 0 1 1.62.666 2.508 2.508 0 0 1 0 3.365 2.149 2.149 0 0 1-1.62.666 2.18 2.18 0 0 1-1.629-.666 2.331 2.331 0 0 1-.635-1.685zm.828 0a1.612 1.612 0 0 0 .415 1.153 1.415 1.415 0 0 0 2.051 0 1.8 1.8 0 0 0 0-2.295 1.394 1.394 0 0 0-2.051 0 1.6 1.6 0 0 0-.415 1.144zm5.2 2.205h-.829v-4.41h.792v.72h.037a1.192 1.192 0 0 1 .517-.6 1.439 1.439 0 0 1 .77-.248 1.531 1.531 0 0 1 .611.109l-.252.8a1.365 1.365 0 0 0-.485-.063 1.069 1.069 0 0 0-.815.379 1.264 1.264 0 0 0-.346.882zm3.266 0h-.828v-4.41h.792v.613h.036a1.476 1.476 0 0 1 .581-.541 1.627 1.627 0 0 1 1.633.009 1.331 1.331 0 0 1 .54.621 1.722 1.722 0 0 1 1.522-.845 1.493 1.493 0 0 1 1.178.467 1.941 1.941 0 0 1 .416 1.337v2.754h-.828v-2.631a1.421 1.421 0 0 0-.224-.9.929.929 0 0 0-.756-.274.988.988 0 0 0-.8.405 1.478 1.478 0 0 0-.323.953v2.439h-.828v-2.623a1.413 1.413 0 0 0-.226-.9.923.923 0 0 0-.756-.274.986.986 0 0 0-.8.405 1.484 1.484 0 0 0-.324.953z" fill="#767676"/>
    <path d="M17.556 36.964l-4.018 4.019-.01.039a8.986 8.986 0 0 0 5.456 1.815h6.949v-5.563h-6.949a3.45 3.45 0 0 1-1.428-.31z" fill="#34a853"/>
    <path d="M14.034 26.313a9.028 9.028 0 0 0-.506 14.68l.01-.01 4.018-4.019a3.475 3.475 0 1 1 4.6-4.6l4.031-4.031a8.985 8.985 0 0 0-12.153-2.021z" fill="#fbbc05"/>
    <path d="M34.192 20.319l.008-.066a12.5 12.5 0 0 0-20.34 6.1 1.463 1.463 0 0 1 .174-.04 8.784 8.784 0 0 1 6.716-1.341c.027-.016.056-.039.078-.035a6.94 6.94 0 0 1 9.5-.722h.067c-.018-.015-.03-.034-.047-.049z" fill="#ea4335"/>
    <path d="M38.026 26.353a12.536 12.536 0 0 0-3.777-6.091l-.057.057-3.847 3.847c.017.015.029.034.047.049a6.932 6.932 0 0 1 2.5 5.456v.693a3.475 3.475 0 0 1 0 6.949h-6.949l-.01.01v5.514H25.9l.039.039h6.949a9.037 9.037 0 0 0 5.134-16.523z" fill="#4285f4"/>
</svg>
