<svg xmlns="http://www.w3.org/2000/svg" width="120" height="60">
    <path d="M35.373 24.937c.647 0 1.294-.005 1.941.008q-.009 2.121 0 4.244h4.934v-4.248h1.91v10.13q-.956.006-1.91 0c-.006-1.36 0-2.72 0-4.08-1.644-.009-3.289 0-4.934 0q-.011 2.034 0 4.07c-.647.031-1.293.015-1.941.014z" fill="#5899d4"/>
    <path d="M89.892 24.941c.722-.009 1.444 0 2.165 0 .842 1.236 1.654 2.494 2.511 3.72.833-1.24 1.66-2.482 2.5-3.72h2.164c-.24.413-.525.789-.8 1.18-.884 1.271-1.772 2.538-2.653 3.81q1.473 2.106 2.941 4.216c.208.293.414.588.6.9-.737 0-1.474.009-2.211 0-.835-1.265-1.7-2.512-2.555-3.764-.8 1.191-1.619 2.375-2.421 3.567-.074.085-.129.218-.263.2-.69.012-1.383 0-2.073 0 .253-.429.548-.822.83-1.232l2.7-3.884-2.641-3.807c-.271-.399-.554-.774-.794-1.186zm10.2 0c.78-.008 1.559 0 2.338 0 .849 1.376 1.693 2.754 2.547 4.128.893-1.372 1.769-2.757 2.663-4.129h2.355c-.229.418-.513.792-.78 1.185q-1.578 2.293-3.161 4.587a.686.686 0 0 0-.114.459v3.874h-1.941c.006-1.134 0-2.266 0-3.4a5.381 5.381 0 0 0-.02-.762 5.058 5.058 0 0 0-.441-.71c-.821-1.257-1.668-2.495-2.487-3.752-.312-.493-.665-.971-.951-1.481zm-11.171 1.721a4.7 4.7 0 0 0-2.53-1.731 6.3 6.3 0 0 0-2.6-.135 4.817 4.817 0 0 0-2.8 1.452 5.54 5.54 0 0 0-1.408 3.791 5.4 5.4 0 0 0 1.23 3.592 4.656 4.656 0 0 0 2.44 1.471 6.583 6.583 0 0 0 3.061 0 4.6 4.6 0 0 0 2.549-1.644 5.68 5.68 0 0 0 1.118-3.414 5.606 5.606 0 0 0-1.06-3.382zm-1.268 5.193a2.883 2.883 0 0 1-1.666 1.463 3.934 3.934 0 0 1-2.476-.023 2.871 2.871 0 0 1-1.6-1.424 4.151 4.151 0 0 1 .192-4.042 3 3 0 0 1 2.068-1.3 3.451 3.451 0 0 1 2.6.573 3.38 3.38 0 0 1 1.231 2.14 4.317 4.317 0 0 1-.349 2.613zm-19.478-5.048a3.331 3.331 0 0 0-1.767-1.621 4.169 4.169 0 0 0-1.559-.275H61.07a6 6 0 0 0-.985.041c-.024 3.348 0 6.74-.012 10.093h1.942v-2.971h2.931a3.711 3.711 0 0 0 2.567-.977 3.758 3.758 0 0 0 .662-4.29zm-2.191 3.14a1.852 1.852 0 0 1-1.133.352h-2.834c0-1.177-.019-2.358.011-3.533.687-.027 1.377 0 2.065-.009a4.3 4.3 0 0 1 1.462.12 1.7 1.7 0 0 1 1.062 1.272 1.823 1.823 0 0 1-.633 1.798zm12.545 4.362c-.846-.94-1.673-1.9-2.523-2.832a3.465 3.465 0 0 0 1.688-.876 3.5 3.5 0 0 0-.217-4.783 3.722 3.722 0 0 0-2.425-.884c-1.662-.044-3.325-.015-4.988-.019v10.131h1.944v-3.378h1.79c.986 1.125 1.962 2.258 2.953 3.379.779-.007 1.559.008 2.338-.008a3.666 3.666 0 0 0-.56-.73zm-6.516-4.388c-.009-1.063 0-2.126 0-3.189h2.95a1.622 1.622 0 0 1 1.346.637 1.666 1.666 0 0 1-.189 2.131 1.757 1.757 0 0 1-1.256.423q-1.425-.004-2.851-.002z" fill="#2a4a6c"/>
    <path d="M52.938 24.937c-.7.023-1.419-.046-2.114.031a8.791 8.791 0 0 0-.37.8q-2.076 4.639-4.159 9.277h2.1c.289-.637.581-1.273.867-1.91 1.754.005 3.509-.015 5.262.01.263.637.564 1.258.83 1.892.707.018 1.416.008 2.122.008q-2.276-5.053-4.538-10.108zm-2.9 6.4c.561-1.335 1.153-2.659 1.732-3.986.037-.078.074-.154.113-.231q.938 2.1 1.839 4.213c-1.222.008-2.454 0-3.681.008z" fill="#3d6da5"/>
    <path d="M14.613 34.465H13.29v1.322h1.323zm2.475 2.616h-1.323V38.4h1.323zm-3.2-6.1h-1.322V32.3h1.322zm6.6 7.328h-1.32v1.323h1.323zm8.129-3.844h1.322v1.322H28.62zm-2.475 2.616h1.323V38.4h-1.32zm3.2-6.1h1.323V32.3h-1.321zm-6.6 7.328h1.323v1.323h-1.324zm-8.129-12.774H13.29v-1.322h1.323zm2.475-2.616h-1.323V21.6h1.323zm-3.2 6.1h-1.322V27.7h1.322zm6.6-7.328h-1.32v-1.323h1.323zm8.129 3.844h1.322v-1.322H28.62zm-2.475-2.616h1.323V21.6h-1.32zm3.2 6.1h1.323V27.7h-1.321zm-6.6-7.328h1.323v-1.323h-1.324z" fill="#5899d4"/>
    <path d="M16.65 39.6h-.756v.756h.756zm2.045.887h-.756v.756h.761zm-5.483-3.684h-.756v.756h.756zm1.555 1.55h-.756v.756h.756zM10.756 30.7H10v.755h.756zm.41 2.208h-.756v.756h.756zm.818 2.019h-.756v.756h.756zm8.883 6.006h-.756v.756h.756zm5.715-1.333h.756v.756h-.756zm-2.044.887h.755v.756h-.755zm5.482-3.684h.756v.756h-.756zm-1.554 1.55h.755v.756h-.755zm4.011-7.653h.755v.755h-.755zm-.41 2.208h.756v.756h-.756zm-.818 2.019h.756v.756h-.756zm-8.884 6.003h.756v.756h-.756zM16.65 20.4h-.756v-.756h.756zm2.045-.887h-.756v-.756h.761zM13.212 23.2h-.756v-.756h.756zm1.555-1.55h-.756v-.756h.756zm-4.011 7.65H10v-.755h.756zm.41-2.208h-.756v-.756h.756zm.818-2.019h-.756v-.753h.756zm8.883-6.006h-.756v-.756h.756zm5.715 1.333h.756v-.756h-.756zm-2.044-.887h.755v-.756h-.755zM30.02 23.2h.756v-.756h-.756zm-1.554-1.55h.755v-.756h-.755zm4.011 7.65h.755v-.755h-.755zm-.41-2.208h.756v-.756h-.756zm-.818-2.019h.756v-.753h-.756zm-8.884-6.003h.756v-.756h-.756z" fill="#43a9de"/>
    <path d="M23.031 31.614v2.829H20.2v-2.829zM17.2 28.586v2.828h2.829v-2.828zm6 0v2.828h2.829v-2.828zm-3-3.029v2.829h2.829v-2.829z" fill="#2d6daa"/>
    <path d="M20.2 34.8h-1.982v1.984H20.2zm-3.36-3.381h-1.982V33.4h1.984zm6.191 3.381h1.983v1.984h-1.983zm3.36-3.381h1.984V33.4h-1.984zM20.2 25.205h-1.982v-1.984H20.2zm-3.36 3.381h-1.982V26.6h1.984zm6.189-3.381h1.983v-1.984h-1.981zm3.36 3.381h1.984V26.6h-1.982z" fill="#4275be"/>
    <path d="M21.616 19.695l1.125.804v-.098l-1.065-.76.748-.571h-.059v-.054l-.749.57-.749-.57v.054h-.059l.749.571-1.066.76v.098l1.125-.804zM20.202 23.331v.098l1.402-1.005h.024l1.403 1.005v-.098l-1.341-.961 1.051-.763v-.098l-1.113.809h-.023l-1.114-.809v.098l1.052.763-1.341.961zM20.224 34.443l-.316.352h.265l.316-.352h-.265zM19.013 32.828l1.189.1v-.198l-1.227-.101-.001-.017-.075-1.198h-.198l.076 1.198-.023-.002-1.912-.163v.197l1.949.165.001.016.165 1.97h.198l-.165-1.969.023.002zM17.088 37.355l1.13-.844v-.099l-1.13.844v.099zM26.987 20.398h-.079l-.078 1.199h.079l.078-1.199zM24.658 19.511h-.099l-.644.857h.099l.644-.857zM23.296 20.368l-.39-1.298h-.082l.389 1.298h.083zM20.408 19.07h-.082l-.389 1.298h.082l.389-1.298zM25.627 20.388l-1.563.396v.082l1.63-.414.008.013.671 1.132h.092l-.691-1.165.025-.007.783-.198v-.081l-.85.215-.007-.012-.497-.838h-.092l.516.871-.025.006zM17.203 28.674l-.361-.321v.233h-.035l.396.352v-.264zM13.888 28.189l.97-.228v-.082l-.97.228v.082zM14.394 25.535l.72 1.067h.095l-.72-1.067h-.095zM16.842 31.647l.361-.321v-.264l-.396.352h.035v.233zM20.173 25.205h-.265l.316.352h.265l-.316-.352zM17.088 22.744l1.13.844v-.099l-1.13-.844v.099zM14.343 29.971l.979-1.385h-.097l-.932 1.318-.564-.885h-.094l.605.949v.064l-.605.949h.094l.564-.885.932 1.318h.097l-.979-1.385v-.058zM16.842 27.553l1.912-.163.023-.002-.076 1.198h.198l.075-1.198.001-.017 1.227-.101v-.198l-1.189.1-.023.002.165-1.969h-.198l-.165 1.97-.001.016-1.949.165v.197zM15.209 33.398h-.095l-.72 1.067h.095l.72-1.067zM13.888 31.893l.97.228v-.082l-.97-.228v.082zM23.859 23.221l-.258-1.53h-.08l.258 1.53h.08zM29.597 29.019h-.093l-.564.885-.933-1.318h-.096l.979 1.385v.058l-.979 1.385h.096l.933-1.318.564.885h.093l-.604-.949v-.064l.604-.949zM26.145 37.256l-1.131-.844v.099l1.131.844v-.099zM26.145 22.645l-1.131.844v.099l1.131-.844v-.099zM22.743 34.443l.316.352h.265l-.316-.352h-.265zM29.68 24.213l.583-1.018h-.091l-.584 1.018h.092zM26.391 32.447l-1.913.163-.022.002.075-1.198h-.197l-.076 1.198-.001.017-1.226.101v.198l1.189-.1.023-.002-.165 1.969h.198l.164-1.97.002-.016 1.949-.165v-.197zM30.667 27.872v.095l1.4-.919v-.095l-1.4.919zM29.942 24.823l1.307-.072v-.08l-1.307.073v.079zM30.667 28.559l1.81.329v-.08l-1.81-.329v.08zM31.019 25.858l-1.077-.64v.092l1.065.632-.007.016-.743 1.738h.086l.733-1.713.019.011.972.578v-.093l-.96-.57.006-.015.35-.818h-.086l-.339.793-.019-.011zM28.98 22.711l.145 1.502h.08l-.144-1.488.959.171v-.081l-.967-.172-.096-.998h-.08l.095.984-1.504-.268v.081l1.512.269zM28.465 21.414l-.997.46v.088l.997-.461v-.087zM28.839 34.465l-.72-1.067h-.095l.719 1.067h.096zM26.029 31.326l.362.321v-.233h.035l-.397-.352v.264zM26.841 22.919l.172 1.618-.024-.003-1.975-.223v.079l2.008.227.001.016.164 1.969h.079l-.164-1.976.024.003 1.494.169v-.08l-1.526-.172-.002-.016-.172-1.611h-.079zM23.008 25.557l.316-.352h-.265l-.316.352h.265zM26.029 28.674v.264l.397-.352h-.035v-.233l-.362.321zM28.024 26.602h.095l.72-1.067h-.096l-.719 1.067zM29.344 28.107l-.969-.228v.082l.969.228v-.082zM24.44 27.175l-.164-1.97h-.198l.165 1.969-.023-.002-1.189-.1v.198l1.226.101.001.017.076 1.198h.197l-.075-1.198.022.002 1.913.163v-.197l-1.949-.165-.002-.016zM29.344 31.811l-.969.228v.082l.969-.228v-.082zM23.031 36.669v-.098l-1.403 1.005h-.024l-1.402-1.005v.098l1.341.961-1.052.763v.098l1.114-.809h.023l1.113.809v-.098l-1.051-.763 1.341-.961zM16.245 39.602h.08l.078-1.199h-.08l-.078 1.199zM22.824 40.93h.082l.39-1.298h-.083l-.389 1.298zM25.774 39.568l.691-1.165h-.092l-.671 1.132-.008.013-1.63-.414v.082l1.563.396.025.006-.516.871h.092l.497-.838.007-.012.85.215v-.081l-.783-.198-.025-.007zM23.521 38.309h.08l.258-1.53h-.08l-.258 1.53zM23.915 39.632l.644.857h.099l-.644-.857h-.099zM19.937 39.632l.389 1.298h.082l-.389-1.298h-.082zM18.575 40.489h.099l.643-.857h-.099l-.643.857zM17.606 39.612l1.562-.396v-.082l-1.63.414-.007-.013-.672-1.132h-.092l.691 1.165-.025.007-.783.198v.081l.851-.215.007.012.497.838h.092l-.517-.871.026-.006zM19.374 36.779l.258 1.53h.08l-.258-1.53h-.08zM21.616 40.305l-1.125-.804v.098l1.066.76-.749.571h.059v.054l.749-.57.749.57v-.054h.059l-.748-.571 1.065-.76v-.098l-1.125.804zM30.667 32.128l1.4.919v-.095l-1.4-.919v.095zM29.942 35.256l1.307.073v-.08l-1.307-.072v.079zM31.076 34.017l-.733-1.713h-.086L31 34.042l.007.016-1.065.632v.092l1.077-.64.019-.011.339.793h.086l-.35-.818-.006-.015.96-.57v-.093l-.972.578-.019.011zM30.667 31.521l1.81-.329v-.08l-1.81.329v.08zM31.782 29.979l.712-.676h-.017v-.093l-.761.722-1.049-1.001v.088h-.023l1.006.959v.044l-1.006.959h.023v.088l1.049-1.001.761.722v-.093h.017l-.712-.676v-.042zM29.061 37.275l.144-1.488h-.08l-.145 1.502-1.512.269v.081l1.504-.268-.095.984h.08l.096-.998.967-.172v-.081l-.959.171zM27.468 38.126l.997.46v-.087l-.997-.461v.088zM29.588 35.787l.584 1.018h.091l-.583-1.018h-.092zM28.62 35.202l-1.494.169-.024.003.164-1.976h-.079l-.164 1.969-.001.016-2.008.227v.079l1.975-.223.024-.003-.172 1.618h.079l.172-1.611.002-.016 1.526-.172v-.08zM26.83 38.403l.078 1.199h.079l-.078-1.199h-.079zM17.458 20.432l-.691 1.165h.092l.672-1.132.007-.013 1.63.414v-.082l-1.562-.396-.026-.006.517-.871h-.092l-.497.838-.007.012-.851-.215v.081l.783.198.025.007zM15.765 21.874l-.998-.46v.087l.998.461v-.088zM14.171 22.725l-.143 1.488h.08l.144-1.502 1.513-.269v-.081l-1.505.268.095-.984h-.079l-.097.998-.967.172v.081l.959-.171zM12.566 27.872l-1.4-.919v.095l1.4.919v-.095zM13.29 24.744l-1.306-.073v.08l1.306.072v-.079zM12.157 25.983l.733 1.713h.086l-.744-1.738-.006-.016 1.064-.632v-.092l-1.077.64-.019.011-.339-.793h-.085l.349.818.007.015-.96.57v.093l.972-.578.019-.011zM13.644 24.213l-.583-1.018h-.091l.583 1.018h.091zM19.317 20.368l-.643-.857h-.099l.643.857h.099zM14.613 24.798l1.494-.169.023-.003-.163 1.976h.079l.163-1.969.002-.016 2.007-.227v-.079l-1.974.223-.025.003.173-1.618h-.079l-.172 1.611-.002.016-1.526.172v.08zM19.454 23.221l.258-1.53h-.08l-.258 1.53h.08zM16.403 21.597l-.078-1.199h-.08l.078 1.199h.08zM16.392 37.081l-.173-1.618.025.003 1.974.223v-.079l-2.007-.227-.002-.016-.163-1.969h-.079l.163 1.976-.023-.003-1.494-.169v.08l1.526.172.002.016.172 1.611h.079zM13.553 35.787l-.583 1.018h.091l.583-1.018h-.091zM13.29 35.177l-1.306.072v.08l1.306-.073v-.079zM14.767 38.586l.998-.46v-.088l-.998.461v.087zM14.252 37.289l-.144-1.502h-.08l.143 1.488-.959-.171v.081l.967.172.097.998h.079l-.095-.984 1.505.268v-.081l-1.513-.269zM12.566 32.128v-.095l-1.4.919v.095l1.4-.919zM12.213 34.142l1.077.64v-.092l-1.064-.632.006-.016.744-1.738h-.086l-.733 1.713-.019-.011-.972-.578v.093l.96.57-.007.015-.349.818h.085l.339-.793.019.011zM10.739 30.697h.017v.093l.76-.722 1.05 1.001v-.088h.022l-1.005-.959v-.044l1.005-.959h-.022v-.088l-1.05 1.001-.76-.722v.093h-.017l.712.676v.042l-.712.676zM12.566 31.441l-1.81-.329v.08l1.81.329v-.08zM12.566 28.479l-1.81.329v.08l1.81-.329v-.08z" fill="#2a4a6c"/>
</svg>
