<svg xmlns="http://www.w3.org/2000/svg" width="120" height="60">
    <path d="M22.774 29.333H10V16.559h12.774z" fill="#f1511b"/>
    <path d="M36.878 29.333H24.1V16.559h12.778v12.774z" fill="#80cc28"/>
    <path d="M22.774 43.441H10V30.668h12.774z" fill="#00adef"/>
    <path d="M36.878 43.441H24.1V30.668h12.778v12.773z" fill="#fbbc09"/>
    <g fill="#706d6e">
        <path d="M58.419 20.887h1.975v8.394h-1.975zM73.894 20.741a2.021 2.021 0 0 0-1.32.473 2.674 2.674 0 0 0-.76 1.126h-.021v-1.453h-1.975v8.394h1.975v-4.294a2.99 2.99 0 0 1 .492-1.783 1.51 1.51 0 0 1 1.277-.675 2.322 2.322 0 0 1 .594.088 1.476 1.476 0 0 1 .46.186l.083.06v-1.991l-.032-.013a2.026 2.026 0 0 0-.773-.118zM67.386 20.8a5.444 5.444 0 0 0-1.1-.119 4.872 4.872 0 0 0-2.4.578A3.885 3.885 0 0 0 62.3 22.89a5.185 5.185 0 0 0-.544 2.413 4.448 4.448 0 0 0 .529 2.162 3.71 3.71 0 0 0 1.478 1.494 4.4 4.4 0 0 0 2.158.525 4.724 4.724 0 0 0 2.382-.558l.026-.015V27.1l-.083.061a3.712 3.712 0 0 1-.966.5 2.938 2.938 0 0 1-.946.183 2.429 2.429 0 0 1-1.848-.72 2.8 2.8 0 0 1-.682-2 2.906 2.906 0 0 1 .711-2.049 2.418 2.418 0 0 1 1.852-.764 3.169 3.169 0 0 1 1.879.654l.083.06v-1.898l-.027-.015a3.259 3.259 0 0 0-.916-.312zM59.426 17.311a1.186 1.186 0 0 0-.841.33 1.086 1.086 0 0 0-.353.823 1.06 1.06 0 0 0 .349.807 1.2 1.2 0 0 0 .845.322 1.218 1.218 0 0 0 .849-.321 1.056 1.056 0 0 0 .353-.808 1.111 1.111 0 0 0-.343-.815 1.182 1.182 0 0 0-.859-.338zM54.5 20.267v9.014h2.015V17.568h-2.789l-3.545 8.7-3.441-8.7h-2.902v11.713h1.893v-9.015h.065l3.633 9.015h1.429l3.577-9.014h.065zM95.286 20.684a4.384 4.384 0 0 0-3.267 1.206 4.518 4.518 0 0 0-1.181 3.291 4.283 4.283 0 0 0 1.153 3.142 4.181 4.181 0 0 0 3.093 1.16 4.265 4.265 0 0 0 3.2-1.222A4.51 4.51 0 0 0 99.467 25a4.4 4.4 0 0 0-1.107-3.165 4.077 4.077 0 0 0-3.074-1.151zm1.571 6.464a2 2 0 0 1-1.659.7 2.123 2.123 0 0 1-1.7-.714 3.035 3.035 0 0 1-.611-2.018 3.153 3.153 0 0 1 .611-2.072 2.085 2.085 0 0 1 1.684-.726 2.054 2.054 0 0 1 1.64.694 3.088 3.088 0 0 1 .6 2.055 3.3 3.3 0 0 1-.565 2.081zM109.919 27.606a1.393 1.393 0 0 1-.4.176 1.558 1.558 0 0 1-.395.067 1.071 1.071 0 0 1-.851-.31A1.669 1.669 0 0 1 108 26.46V22.5h2v-1.61h-2v-2.5l-.067.021-1.878.575-.037.011v1.9h-2.965V19.83a1.678 1.678 0 0 1 .327-1.12 1.152 1.152 0 0 1 .916-.374 2.138 2.138 0 0 1 .869.2l.074.033v-1.7l-.035-.013a3.379 3.379 0 0 0-1.111-.148 3.26 3.26 0 0 0-1.575.378 2.693 2.693 0 0 0-1.081 1.069 3.186 3.186 0 0 0-.383 1.568v1.162h-1.392V22.5h1.392v6.784h2V22.5h2.965v4.311c0 1.776.837 2.675 2.489 2.675a4.042 4.042 0 0 0 .849-.094 2.326 2.326 0 0 0 .618-.2l.026-.015v-1.624zM79.276 20.684a4.384 4.384 0 0 0-3.268 1.206 4.522 4.522 0 0 0-1.181 3.291 4.281 4.281 0 0 0 1.153 3.142 4.181 4.181 0 0 0 3.093 1.16 4.263 4.263 0 0 0 3.2-1.222A4.51 4.51 0 0 0 83.456 25a4.4 4.4 0 0 0-1.107-3.165 4.078 4.078 0 0 0-3.073-1.151zm1.57 6.464a2 2 0 0 1-1.659.7 2.123 2.123 0 0 1-1.7-.714 3.035 3.035 0 0 1-.611-2.018 3.153 3.153 0 0 1 .611-2.072 2.085 2.085 0 0 1 1.684-.726 2.054 2.054 0 0 1 1.64.694 3.088 3.088 0 0 1 .6 2.055 3.3 3.3 0 0 1-.565 2.081zM87.821 24.355a4.267 4.267 0 0 1-1.185-.616.861.861 0 0 1-.239-.647.721.721 0 0 1 .3-.6 1.364 1.364 0 0 1 .851-.24 3.482 3.482 0 0 1 1.012.156 3.258 3.258 0 0 1 .885.41l.081.056V21.05l-.031-.013a4.421 4.421 0 0 0-.9-.251 5.556 5.556 0 0 0-.985-.1 3.613 3.613 0 0 0-2.31.714 2.282 2.282 0 0 0-.9 1.862 2.607 2.607 0 0 0 .194 1.042 2.1 2.1 0 0 0 .6.78 5.2 5.2 0 0 0 1.215.68 9.031 9.031 0 0 1 1.01.47 1.415 1.415 0 0 1 .445.366.818.818 0 0 1 .124.475c0 .564-.423.839-1.292.839a3.564 3.564 0 0 1-1.092-.2 4.106 4.106 0 0 1-1.12-.568l-.083-.059v1.924l.031.015a5 5 0 0 0 1.06.327 5.655 5.655 0 0 0 1.131.131 3.834 3.834 0 0 0 2.445-.72 2.326 2.326 0 0 0 .911-1.907 2.19 2.19 0 0 0-.49-1.442 4.2 4.2 0 0 0-1.668-1.06zM43.862 31.483h1.834v11.145h-1.834zM47.701 31.483h1.834v11.145h-1.834zM57.035 37.775a4.916 4.916 0 0 0-.9-.69c-.323-.2-.67-.387-1.033-.566q-.51-.252-.9-.463a3.855 3.855 0 0 1-.615-.4 1.272 1.272 0 0 1-.327-.392 1.074 1.074 0 0 1-.1-.493.877.877 0 0 1 .128-.495 1.133 1.133 0 0 1 .369-.353 1.83 1.83 0 0 1 .565-.215 3.367 3.367 0 0 1 .686-.072 3.536 3.536 0 0 1 2.044.543l.553.384v-2.19l-.188-.1a5.079 5.079 0 0 0-2.292-.392 5.4 5.4 0 0 0-1.345.17 3.914 3.914 0 0 0-1.207.53 2.911 2.911 0 0 0-.885.936 2.852 2.852 0 0 0-.123 2.463 2.812 2.812 0 0 0 .593.837 4.484 4.484 0 0 0 .843.642q.458.276.986.543.486.248.907.469a4.347 4.347 0 0 1 .68.434 1.624 1.624 0 0 1 .4.443 1.137 1.137 0 0 1-.26 1.374 2.641 2.641 0 0 1-2 .268 5.214 5.214 0 0 1-.68-.165 4.193 4.193 0 0 1-.635-.257 2.323 2.323 0 0 1-.487-.321l-.586-.518v2.332l.155.105a2.428 2.428 0 0 0 .6.281 6.2 6.2 0 0 0 .72.19c.25.051.494.088.734.115a5.769 5.769 0 0 0 .617.04 6.516 6.516 0 0 0 1.412-.15 3.724 3.724 0 0 0 1.235-.506 2.7 2.7 0 0 0 .886-.946 2.837 2.837 0 0 0 .331-1.409 2.535 2.535 0 0 0-.246-1.133 3.2 3.2 0 0 0-.635-.873z"/>
    </g>
</svg>
