<svg xmlns="http://www.w3.org/2000/svg" width="120" height="60">
    <path d="M32.89 29.018c2.171 2.494-.569 4.745-.569 4.745s5.51-2.846 2.979-6.407c-2.363-3.325-4.179-4.974 5.637-10.667 0 0-15.4 3.849-8.047 12.329" fill="#f8971d"/>
    <path d="M35.3 7.5s4.674 4.674-4.435 11.869c-7.3 5.768-1.666 9.059 0 12.817-4.265-3.846-7.397-7.234-5.297-10.386 3.08-4.626 11.619-6.868 9.732-14.3" fill="#f8971d"/>
    <path fill="#58839f" fill-rule="evenodd" d="M101.354 35.388h.517v-1.995h.682v-.407h-1.907v.407h.708v1.995zM105.307 35.388h.491v-2.402h-.738l-.599 1.636-.652-1.636h-.71v2.402h.463v-1.829h.027l.683 1.829h.353l.682-1.829v1.829z"/>
    <path d="M58.421 45.383q0 4.732-3.192 7.115l-1.541-1.3a6.318 6.318 0 0 0 1.365-2.849 16.4 16.4 0 0 0 .231-3.133V27.817h3.137zM72.5 47.417h-2.319l-.233-1.567a6.778 6.778 0 0 1-4.471 1.857q-4.353 0-4.354-4.007a4.149 4.149 0 0 1 1.771-3.571 9.6 9.6 0 0 1 5.6-1.365h1.046v-1.307q0-2.584-2.993-2.585a12.38 12.38 0 0 0-4.238.842l-.434-1.828a13.462 13.462 0 0 1 5.487-1.192q5.139 0 5.139 4.384zm-2.961-3.339v-3.426h-1.25q-4.209 0-4.209 2.613a1.989 1.989 0 0 0 2.235 2.265 5.056 5.056 0 0 0 3.224-1.452M87.025 32.957a57.012 57.012 0 0 1-4.473 14.461h-3.687L74.42 32.957h3.223l2.757 8.884.609 2.671a54.1 54.1 0 0 0 2.876-11.555zM99.277 47.417h-2.324l-.231-1.567a6.788 6.788 0 0 1-4.472 1.857q-4.356 0-4.356-4.007a4.152 4.152 0 0 1 1.771-3.571 9.6 9.6 0 0 1 5.6-1.365h1.044v-1.307q0-2.584-2.989-2.585a12.386 12.386 0 0 0-4.24.842l-.436-1.828a13.47 13.47 0 0 1 5.488-1.192q5.14 0 5.14 4.384zm-2.963-3.339v-3.426h-1.248q-4.212 0-4.211 2.613a1.99 1.99 0 0 0 2.236 2.265 5.047 5.047 0 0 0 3.223-1.452M24.891 42.3s-1.72 1 1.224 1.338a25.8 25.8 0 0 0 9.318-.4 16.185 16.185 0 0 0 2.477 1.2c-8.81 3.79-19.939-.205-13.019-2.138M23.815 37.374s-1.93 1.426 1.017 1.726a36.439 36.439 0 0 0 12.023-.577 5.311 5.311 0 0 0 1.852 1.128c-10.651 3.117-22.514.247-14.892-2.282" fill="#58839f"/>
    <path d="M44.541 45.945s1.272 1.047-1.4 1.86c-5.083 1.538-21.162 2-25.627.062-1.607-.7 1.4-1.667 2.351-1.872a6.274 6.274 0 0 1 1.553-.175c-1.786-1.259-11.543 2.47-4.956 3.536 17.96 2.913 32.74-1.309 28.083-3.411M25.717 32.27s-8.178 1.94-2.895 2.648A61.724 61.724 0 0 0 33.64 34.8c3.386-.285 6.784-.892 6.784-.892a14.4 14.4 0 0 0-2.058 1.1c-8.306 2.186-24.348 1.169-19.729-1.064a15.475 15.475 0 0 1 7.08-1.673M40.39 40.469c8.442-4.387 4.539-8.6 1.813-8.035a6.435 6.435 0 0 0-.964.26 1.545 1.545 0 0 1 .721-.557c5.39-1.894 9.536 5.588-1.74 8.553a.759.759 0 0 0 .17-.221" fill="#58839f"/>
    <path d="M26.548 52.359c8.1.517 20.549-.289 20.844-4.125 0 0-.567 1.452-6.7 2.61a66.627 66.627 0 0 1-20.509.313s1.036.859 6.362 1.2" fill="#58839f"/>
</svg>
