<svg xmlns="http://www.w3.org/2000/svg" width="120" height="60">
    <path d="M31.951 29.441A10.933 10.933 0 0 1 21.143 40.5a11.057 11.057 0 0 1 0-22.109 10.933 10.933 0 0 1 10.808 11.05" fill="#d33833"/>
    <path d="M10.776 32.179s-.782-11.528 9.84-11.857l-.741-1.235-5.764 1.935-1.647 1.894-1.441 2.758-.823 3.212.247 2.141" fill="#ef3d3a"/>
    <path d="M13.741 21.9a10.813 10.813 0 0 0-3.07 7.583 10.813 10.813 0 0 0 3.07 7.582 10.317 10.317 0 0 0 7.4 3.137 10.317 10.317 0 0 0 7.4-3.137 10.812 10.812 0 0 0 3.069-7.582 10.813 10.813 0 0 0-3.064-7.583 10.325 10.325 0 0 0-7.4-3.137 10.325 10.325 0 0 0-7.4 3.137zm-.48 15.634A11.485 11.485 0 0 1 10 29.483a11.485 11.485 0 0 1 3.261-8.052 10.994 10.994 0 0 1 7.882-3.339 10.991 10.991 0 0 1 7.882 3.339 11.484 11.484 0 0 1 3.262 8.052 11.481 11.481 0 0 1-3.262 8.051 10.991 10.991 0 0 1-7.882 3.339 10.994 10.994 0 0 1-7.882-3.339" fill="#231f20"/>
    <path d="M25.693 29.5l-1.647.247-2.223.253-1.441.041-1.4-.041-1.071-.33-.947-1.029-.741-2.1-.165-.453-.988-.329-.576-.947-.412-1.359.453-1.194 1.071-.37.864.412.412.905.494-.082.165-.206-.165-.947-.041-1.194.247-1.647-.01-.94.751-1.2 1.317-.947 2.306-.988 2.553.371 2.223 1.605 1.03 1.647.658 1.194.165 2.965-.494 2.553-.906 2.264-.865 1.194" fill="#f0d6b7"/>
    <path d="M24.293 36.625l-5.888.247v.989l.494 3.458-.247.288-4.117-1.4-.288-.494-.412-4.652-.947-2.8-.206-.658 3.294-2.265 1.03-.412.905 1.112.782.7.906.288.412.124.494 2.14.371.453.947-.329-.659 1.276 3.582 1.688-.453.247" fill="#335061"/>
    <path d="M14.535 22.256l1.071-.37.864.412.412.905.494-.082.124-.494-.247-.947.247-2.265-.206-1.235.741-.864 1.605-1.277-.452-.617-2.265 1.111-.947.742-.535 1.152-.824 1.112-.247 1.318.165 1.4" fill="#6d6b6d"/>
    <path d="M16.223 18.386a4.633 4.633 0 0 1 3.088-2.264c2.47-.741.124-.536.124-.536l-2.677 1.03-1.029 1.029-.453.824.947-.083M14.988 21.968a2.515 2.515 0 0 1 2.429-3.294l-.123-.494-2.265.536-.659 2.141.165 1.4.453-.288" fill="#dcd9d8"/>
    <path d="M16.306 25.8l.539-.522a.346.346 0 0 1 .284.316c.041.289.165 2.882 1.935 4.282.162.128-1.317-.206-1.317-.206l-1.318-2.058M23.881 25.015s.1-1.248.433-1.152a.463.463 0 0 1 .336.432s-.817.528-.769.72M27.3 20.445s-.679.143-.742.741.742.123.865.082M22.317 20.486s-.906.124-.906.7 1.029.535 1.317.288M16.717 23.162s-1.564-.947-1.729-.041-.535 1.565.247 2.512l-.535-.165-.494-1.276-.165-1.236.947-.988 1.07.083.618.494.041.617M17.458 20.568a5.676 5.676 0 0 1 4.242-4.323c2.915-.576 4.447.124 5.023.782 0 0-2.594-3.087-5.064-2.14s-4.282 2.676-4.241 3.787a18.056 18.056 0 0 1 .041 1.894M27.01 17.439s-1.194-.041-1.235 1.03a.815.815 0 0 0 .083.329s.947-1.071 1.523-.494" fill="#f7e4cd"/>
    <path d="M21.782 18.909s-.2-1.643-1.606-.687c-.906.617-.824 1.482-.659 1.646s.12.5.245.269.084-.969.537-1.174 1.2-.436 1.483-.054" fill="#f7e4cd"/>
    <path d="M17.911 30.038l-3.87 1.729s1.606 6.382.782 8.358l-.576-.206-.041-2.429-1.071-4.611-.453-1.279 4.035-2.718 1.194 1.153M18.309 33.568l.549.67v2.47H18.2s-.082-1.729-.082-1.935.082-.947.082-.947M18.323 37.079l-1.853.082.535.37 1.318.206" fill="#49728b"/>
    <path d="M24.664 36.667l1.523-.041.37 3.787-1.564.206-.329-3.952" fill="#335061"/>
    <path d="M25.075 36.667l2.306-.124s.947-2.388.947-2.511.823-3.459.823-3.459L27.3 28.638l-.371-.329-.988.988v3.829l-.865 3.541" fill="#335061"/>
    <path d="M26.105 36.379l-1.441.288.2 1.153c.536.247 1.441-.412 1.441-.412M26.146 29.173l2.882 2.141.082-.988-2.182-2.017-.782.864" fill="#49728b"/>
    <path d="M19.752 44.778l-.852-3.459-.424-2.552-.07-1.9 3.858-.2h2.4l-.219 4.323.371 3.335-.041.618-3.129.247-1.894-.412" fill="#fff"/>
    <path d="M24.128 36.626a36.382 36.382 0 0 0 .412 7.328 7.85 7.85 0 0 1-3.047.988l3.459-.123.411-.247-.494-6.752-.123-1.442" fill="#dcd9d8"/>
    <path d="M26.628 40.084l1.605-.452 3.047-.165.453-1.4-.824-2.429-.946-.124-1.318.412-1.264.617-.671-.123-.523.206" fill="#fff"/>
    <path d="M26.6 39.261a6.031 6.031 0 0 1 1.235-.453l-.453-2.265.535-.206s.371 2.141.371 2.388c0 0 2.3.124 2.511.124a3.743 3.743 0 0 0 .371-1.935l.453 1.317.041.741-.664.989-.741.164-1.235-.041-.412-.535-1.441.206-.453.164" fill="#dcd9d8"/>
    <path d="M24.981 36.338l-.906-2.306-.947-1.359s.206-.576.494-.576h.947l.906.329-.083 1.524-.411 2.388" fill="#fff"/>
    <path d="M25.158 35.555A19.159 19.159 0 0 1 24.005 33s.206-.494.494-.37.906.453.906.453V32.3l-1.4-.288-.947.124 1.606 3.788.329.041" fill="#dcd9d8"/>
    <path d="M20.122 30.121L18.982 30l-1.071-.33v.371l.523.577 1.647.741" fill="#fff"/>
    <path d="M18.282 30.244a4.538 4.538 0 0 0 1.688.412l.041.494-1.153-.25-.7-.494.124-.165" fill="#dcd9d8"/>
    <path d="M26.623 32.237a7.789 7.789 0 0 1-1.882-.259 5.53 5.53 0 0 1 .024-.612 1.482 1.482 0 0 1 .645-.136 1.125 1.125 0 0 0-.717-.08 1.126 1.126 0 0 0-.119-.378c.393-.14 1.32-1.059 1.842-.755.248.145.354.972.373 1.374a1.4 1.4 0 0 1-.166.846" fill="#d33833"/>
    <path d="M26.623 32.237a7.789 7.789 0 0 1-1.882-.259 5.53 5.53 0 0 1 .024-.612 1.482 1.482 0 0 1 .645-.136 1.125 1.125 0 0 0-.717-.08 1.126 1.126 0 0 0-.119-.378c.393-.14 1.32-1.059 1.842-.755.248.145.354.972.373 1.374a1.4 1.4 0 0 1-.166.846z" fill="none" stroke="#d33833" stroke-width=".421"/>
    <path d="M23.282 31.1c0 .053 0 .106-.006.16-.218.143-.57.141-.809.262a2.1 2.1 0 0 1 .871.22l-.016.4a14.216 14.216 0 0 1-1.236.938 3.276 3.276 0 0 1-1.24.379c-.134-.031-.146-.2-.2-.354a5.078 5.078 0 0 1-.4-1.375c-.029-.639-.093-1.708.594-1.577a6.145 6.145 0 0 1 1.63.6 1.686 1.686 0 0 0 .812.351" fill="#d33833"/>
    <path d="M23.282 31.1c0 .053 0 .106-.006.16-.218.143-.57.141-.809.262a2.1 2.1 0 0 1 .871.22l-.016.4a14.216 14.216 0 0 1-1.236.938 3.276 3.276 0 0 1-1.24.379c-.134-.031-.146-.2-.2-.354a5.078 5.078 0 0 1-.4-1.375c-.029-.639-.093-1.708.594-1.577a6.145 6.145 0 0 1 1.63.6 1.686 1.686 0 0 0 .812.347z" fill="none" stroke="#d33833" stroke-width=".421"/>
    <path d="M23.68 31.856a2.363 2.363 0 0 1-.105-.75c.927-.618 1.1 1.062.105.75" fill="#d33833"/>
    <path d="M23.68 31.856a2.363 2.363 0 0 1-.105-.75c.925-.618 1.101 1.062.105.75z" fill="none" stroke="#d33833" stroke-width=".421"/>
    <path d="M25.022 32.138s-.288-.412-.083-.535.412 0 .536-.206 0-.329.041-.576.247-.289.453-.33.782-.123.864.083l-.247-.741-.494-.165-1.564.906-.083.453v.9M20.7 33.5c-.05-.643-.1-1.284-.16-1.926-.087-.959.23-.791 1.061-.791a2.184 2.184 0 0 1 .828.247c.224.458-.376.356.259.7.535.292 1.481-.177 1.264-.826-.121-.144-.63-.045-.813-.14l-.965-.5c-.409-.212-1.355-.522-1.791-.225-1.106.752.069 2.63.464 3.415" fill="#ef3d3a"/>
    <path d="M21.782 18.909c-1.122-.261-1.68.47-2.02 1.228-.3-.073-.183-.487-.106-.7a1.906 1.906 0 0 1 1.672-1.188c.284.043.67.3.454.657M27.25 20.187h.053a11.63 11.63 0 0 0 .793 1.55c-.214.5-1.623.941-1.6.045.3-.133.83-.027 1.1-.2a3.059 3.059 0 0 1-.345-1.4M22.357 20.2a4.685 4.685 0 0 0 .661 1.238c.154.15.453.333.3.75a.952.952 0 0 1-.435.361c-.535.158-1.781.033-1.359-.634.443.021 1.037.287 1.367-.034-.253-.405-.706-1.208-.539-1.681M27.049 24.684a4.461 4.461 0 0 1-3.022.949.9.9 0 0 1-.115-1.151c.142.246.053.7.45.764.748.128 1.62-.458 2.158-.663.334-.562-.029-.769-.33-1.132a4.486 4.486 0 0 1-1.411-2.773c.249-.181.27.275.306.358a10.115 10.115 0 0 0 1.721 2.364c.145.159.384.311.41.416.077.3-.2.67-.167.873M16.435 24.139c-.252-.144-.312-.778-.608-.8-.424-.026-.346.823-.345 1.319a1.55 1.55 0 0 1-.128-1.5c-.244-.12-.353.132-.489.221.174-1.264 1.849-.586 1.57.753M27.562 25.21a2.319 2.319 0 0 1-2.005 1.522 2.768 2.768 0 0 1 0-.72 5.775 5.775 0 0 0 2-.8M22.293 25.673a6.976 6.976 0 0 0 2.944.38 3.351 3.351 0 0 1 .052.722c-1.226.061-2.674-.242-3-1.1M22.16 26.36c.485 1.218 2.152 1.078 3.558 1.044a.755.755 0 0 1-.363.413 3.569 3.569 0 0 1-2.318-.01 3.159 3.159 0 0 1-.869-.967c-.105-.134-.628-.479-.008-.48" fill="#231f20"/>
    <path d="M26.991 33.078a24.971 24.971 0 0 1-1.791 2.835 13.67 13.67 0 0 0 .447-3.287 1.036 1.036 0 0 1 1.342.452" fill="#81b0c4"/>
    <path d="M30.053 36.581c-.637.128-1.085.747-1.706.707a2.037 2.037 0 0 1 1.706-.707M30.334 37.578a9.349 9.349 0 0 1-1.656.1c.25-.381 1.21-.249 1.656-.1M30.514 38.438c-.583.013-1.309 0-1.864-.045.328-.353 1.486-.131 1.864.045" fill="#231f20"/>
    <path d="M25.892 40.791a13.635 13.635 0 0 1 .338 2.279 2.376 2.376 0 0 1-.94.2c-.031-.682-.122-1.725-.095-2.376.213.015.526-.152.7-.106" fill="#dcd9d8"/>
    <path d="M24.951 29.987c-.293.191-.543.43-.824.634a1.818 1.818 0 0 1-1.424-.4c.008-.029.054-.016.056-.052.668.3 1.517-.121 2.192-.181" fill="#f0d6b7"/>
    <path d="M21.443 34.542c.184-.8.9-1.208 1.556-1.646a13.094 13.094 0 0 1 1.536 3.018 15.7 15.7 0 0 1-3.092-1.372" fill="#81b0c4"/>
    <path d="M25.2 40.9c-.027.651.064 1.694.095 2.376a2.376 2.376 0 0 0 .94-.2 13.635 13.635 0 0 0-.338-2.279c-.176-.052-.489.115-.697.103zm-6.733-3.7a34.03 34.03 0 0 0 1.455 7.147 9.473 9.473 0 0 0 5.194.094c-.273-1.31-.153-2.905-.313-4.3-.12-1.051-.059-2.109-.223-3.181a17.834 17.834 0 0 0-6.118.24zM25 36.972c-.015 1.126.051 2.236.137 3.363.432-.065.725-.108 1.127-.2a24.113 24.113 0 0 0-.38-3.266 2.67 2.67 0 0 0-.884.103zm2.193-.182a2.685 2.685 0 0 0-.64 0c.092.918.316 1.931.395 2.894a2.67 2.67 0 0 0 .727-.185 5.828 5.828 0 0 0-.482-2.711zm3.321 3.034a1.426 1.426 0 0 0 .867-1.752 8.257 8.257 0 0 0-.565-1.915c-.17-.257-.631-.593-1-.358-.6.384-1.653.495-2.09.959a15.513 15.513 0 0 1 .378 2.653 7.788 7.788 0 0 1 2.289.062 8.735 8.735 0 0 0-1.372.347 2.859 2.859 0 0 0 1.492 0zm-5.979-3.91A13.094 13.094 0 0 0 23 32.9c-.653.438-1.372.85-1.556 1.646a15.7 15.7 0 0 0 3.091 1.368zm1.114-3.288a13.67 13.67 0 0 1-.447 3.287 24.971 24.971 0 0 0 1.789-2.835 1.036 1.036 0 0 0-1.342-.452zm-1.262-.449c-.256-.027-.473.294-.806.155-.076.085-.145.176-.223.258a19.529 19.529 0 0 1 1.636 3.182 13.978 13.978 0 0 0 .336-3.185c-.418.026-.65-.379-.943-.41zm-.812-1.071a2.363 2.363 0 0 0 .105.75c.996.312.82-1.368-.105-.75zm-1.105-.362a6.145 6.145 0 0 0-1.63-.6c-.687-.131-.623.938-.594 1.577a5.078 5.078 0 0 0 .4 1.375c.054.156.066.323.2.354a3.276 3.276 0 0 0 1.24-.379 14.216 14.216 0 0 0 1.236-.938l.016-.4a2.1 2.1 0 0 0-.871-.22c.239-.121.591-.119.809-.262 0-.054 0-.107.006-.16a1.686 1.686 0 0 1-.812-.347zM18.367 30c-.356.362 1 .856 1.432.882 0-.229.131-.445.1-.609A4.563 4.563 0 0 1 18.367 30zm4.392.17c0 .036-.048.023-.056.052a1.818 1.818 0 0 0 1.424.4c.281-.2.531-.443.824-.634-.675.059-1.524.478-2.192.18zm4.03 1.223c-.019-.4-.125-1.229-.373-1.374-.522-.3-1.449.615-1.842.755a1.126 1.126 0 0 1 .119.378 1.125 1.125 0 0 1 .717.08 1.482 1.482 0 0 0-.645.136 5.53 5.53 0 0 0-.024.612 7.789 7.789 0 0 0 1.882.259 1.4 1.4 0 0 0 .166-.848zm-9.022-1.043c-.112-.079-.869-1.065-.973-1.024A16.313 16.313 0 0 0 13 31.683a20.68 20.68 0 0 1 1.61 7.978c1.251.585 2.349 1.428 4.046 1.516-.2-1.389-.376-2.629-.487-3.937-.427-.18-1.038.008-1.437-.056 0-.48.609-.21.66-.533.039-.245-.337-.264-.215-.649.312.114.476.364.809.458.3-.665-.005-1.841.039-2.4.009-.105.052-.578.286-.5.207.073-.012 1.26.011 1.786a2.768 2.768 0 0 0 .138 1.258 46.741 46.741 0 0 1 5.08-.416 12.311 12.311 0 0 1-1.362-.613c-.276-.155-1.145-.479-1.224-.74-.127-.417.333-.64.411-1-.827.451-.989-.433-1.185-1.059a8.333 8.333 0 0 1-.322-1.319 14.181 14.181 0 0 1-2.089-1.12zm8.3-.9c1.142-.553 1.348 2.069.9 2.914.069.252.307.349.4.575-.637 1.142-1.344 2.207-2 3.335.484-.3 1.175-.054 1.744-.279.208-.083.358-.559.516-.94a20.413 20.413 0 0 0 1.09-3.369 4.245 4.245 0 0 0 .142-.927c-.049-.364-.542-.633-.793-.857-.461-.415-.752-.78-1.234-1.168-.2.288-.614.482-.774.716zM15.156 19.319c-.544.6-.43 1.72-.364 2.518a1.461 1.461 0 0 1 2.276 1.1c.47-.012.176-.586.091-.956-.278-1.208.467-2.519.033-3.624a2.984 2.984 0 0 0-2.036.961zm3.893-3.474a5.5 5.5 0 0 0-3.316 2.35c.392-.057.664-.254 1.05-.279a2.606 2.606 0 0 0 .506.02c.334-.083.617-.834.869-1.113s.542-.389.744-.637c.13-.063.323-.059.33-.254-.056-.06-.116-.106-.183-.087zm6.411.328c-1.278-.721-3.442-1.263-4.8-.586a6.621 6.621 0 0 0-3.086 2.6c.473 1.106-.14 2.121-.179 3.244-.021.6.282 1.12.3 1.771-.162.267-.656.3-1 .281-.116-.575-.317-1.223-.91-1.288a1.378 1.378 0 0 0-1.485 1.329c-.045.853.656 2.268 1.649 2.169.383-.038.478-.422.9-.418.226.452-.35.594-.409.917a2.609 2.609 0 0 0 .084.563 7.7 7.7 0 0 0 .979 2.277c.5.719 1.489.828 2.55.9.19-.408.888-.375 1.344-.268a4.485 4.485 0 0 1-1.473-1.2 3.023 3.023 0 0 1-1-1.8c.913 1.266 1.666 2.371 3.325 2.928a4.421 4.421 0 0 0 3.685-.87 4.218 4.218 0 0 0 .924-1.137 9.642 9.642 0 0 0 1.452-5.835 6.473 6.473 0 0 0-.336-2.331c-.307-.615-1.343-1.165-1.949-.609-.113-.6.5-.967 1.229-.752a6.881 6.881 0 0 0-1.793-1.882zm2.381 19.71c1-.5 2.866-1.337 3.492 0a11.424 11.424 0 0 1 .622 1.837c.169.718-.184 2.229-.922 2.47a4.38 4.38 0 0 1-2.2.042 1.189 1.189 0 0 1-.268-.351 3.025 3.025 0 0 0-1.529.261c.042.415-.239.481-.5.567-.2.773.39 1.783.25 2.488-.1.5-.718.58-1.172.674a3.841 3.841 0 0 0 .051.748 1.133 1.133 0 0 1-1.012.654 12.7 12.7 0 0 1-5.054-.249c-.39-.956-.7-2.119-1.022-3.211a6.572 6.572 0 0 1-3.5-1.069c-.36-.166-.858-.258-.992-.544a4.911 4.911 0 0 1-.109-1.311 19.928 19.928 0 0 0-.492-3.83c-.152-.589-.416-1.109-.6-1.676a12.106 12.106 0 0 1-.547-1.7c-.116-.778.616-.821 1.084-1.158.724-.521 1.292-.809 2.075-1.279a4.71 4.71 0 0 0 1.012-.654c.158-.322-.272-.775-.387-1.027a3.087 3.087 0 0 1-.3-1.132 2.179 2.179 0 0 1-1.457-.936 3.587 3.587 0 0 1-.412-3.108c.033-.08.2-.24.227-.364a4.273 4.273 0 0 0-.1-.83c-.046-1.335.226-2.486 1.124-2.888.365-1.454 1.671-1.937 2.9-2.66a9.143 9.143 0 0 1 1.491-.635c1.878-.691 4.76-.561 6.319.618a8.493 8.493 0 0 1 2.1 2.32c1 2.018.927 5.39.229 7.845a7.946 7.946 0 0 1-.42 1.21c-.133.276-.545.829-.5 1.073s.94.927 1.13 1.11c.343.331.994.77 1.047 1.187a4.216 4.216 0 0 1-.324 1.48c-.427 1.43-.844 2.752-1.329 4.027" fill="#231f20"/>
    <path d="M21.177 25.984c.054-.072.352-.182.769.019 0 0-.494.082-.453.906l-.206-.041s-.212-.747-.11-.884" fill="#f7e4cd"/>
    <path d="M24.787 33.064a.227.227 0 1 1-.226-.226.227.227 0 0 1 .226.226M25.014 34.114a.227.227 0 1 1-.227-.226.227.227 0 0 1 .227.226" fill="#1d1919"/>
    <g style="isolation:isolate">
        <g style="isolation:isolate">
            <path d="M48.746 24.9a8.276 8.276 0 0 0-1.138.208.626.626 0 0 0-.456.339 1.466 1.466 0 0 0-.1.556v6.8a3.9 3.9 0 0 1-.378 1.721 3.754 3.754 0 0 1-1.038 1.312 4.8 4.8 0 0 1-1.494.787 5.753 5.753 0 0 1-1.763.265 4.115 4.115 0 0 1-2.618-.782 2.579 2.579 0 0 1-.995-2.145 1.979 1.979 0 0 1 .456-1.338 1.568 1.568 0 0 1 1.255-.529 1.631 1.631 0 0 1 1.2.443 1.479 1.479 0 0 1 .447 1.094 1.6 1.6 0 0 1-.386 1.029 5.972 5.972 0 0 1-.882.873v.113a.647.647 0 0 0 .34.3 1.247 1.247 0 0 0 .531.122 1.987 1.987 0 0 0 1.642-.748 3.585 3.585 0 0 0 .6-2.26v-6.966a1.246 1.246 0 0 0-.1-.521.839.839 0 0 0-.462-.365 3.3 3.3 0 0 0-.633-.191 8.999 8.999 0 0 0-.615-.113v-.678h6.583zM59.046 34.474a5.224 5.224 0 0 1-.734.934 4.433 4.433 0 0 1-.977.751 5.322 5.322 0 0 1-1.176.5 5.008 5.008 0 0 1-1.368.17 6.093 6.093 0 0 1-2.219-.365 4.345 4.345 0 0 1-1.542-.981 3.919 3.919 0 0 1-.907-1.455 5.361 5.361 0 0 1-.3-1.819 4.568 4.568 0 0 1 1.251-3.144 4.427 4.427 0 0 1 1.489-1 5.085 5.085 0 0 1 2.011-.382 5.722 5.722 0 0 1 2 .3 3.546 3.546 0 0 1 1.294.816 2.971 2.971 0 0 1 .721 1.168 4.4 4.4 0 0 1 .226 1.412v.564h-5.874a4.525 4.525 0 0 0 .686 2.71 2.861 2.861 0 0 0 3.648.482A4.192 4.192 0 0 0 58.386 34zm-3.317-3.3c0-.347-.018-.7-.052-1.068a3.565 3.565 0 0 0-.183-.9 1.368 1.368 0 0 0-.4-.616.99.99 0 0 0-.647-.209 1.2 1.2 0 0 0-1.068.678 4.6 4.6 0 0 0-.434 2.145zM71.344 36.55h-5.22v-.634l.4-.044a1.105 1.105 0 0 0 .356-.086.553.553 0 0 0 .26-.278 1.411 1.411 0 0 0 .079-.539v-4.064a2.249 2.249 0 0 0-.327-1.333 1.114 1.114 0 0 0-.962-.448 1.95 1.95 0 0 0-.649.105 2.388 2.388 0 0 0-.588.3 1.986 1.986 0 0 0-.405.356c-.1.121-.187.228-.257.321v4.664a1.3 1.3 0 0 0 .087.508.606.606 0 0 0 .287.308 1.623 1.623 0 0 0 .347.139 2.614 2.614 0 0 0 .408.087v.634h-5.28v-.634c.145-.012.291-.027.439-.048a2.166 2.166 0 0 0 .377-.082.639.639 0 0 0 .383-.3 1.13 1.13 0 0 0 .1-.521v-5.046a1.122 1.122 0 0 0-.139-.53 1.24 1.24 0 0 0-.365-.426 1.438 1.438 0 0 0-.4-.173 2.783 2.783 0 0 0-.526-.1v-.634l4.151-.222.13.131v1.259h.035c.162-.145.359-.318.591-.521a5.538 5.538 0 0 1 .642-.5 3.1 3.1 0 0 1 .843-.356 4.036 4.036 0 0 1 1.111-.148 2.684 2.684 0 0 1 2.124.8 3.11 3.11 0 0 1 .708 2.133v4.255a1.157 1.157 0 0 0 .1.513.678.678 0 0 0 .356.3 2.861 2.861 0 0 0 .343.122 2.439 2.439 0 0 0 .465.087zM83.294 36.55H79.2q-.756-1.326-1.38-2.248t-1.18-1.711l-.512.433v1.893a1.257 1.257 0 0 0 .091.513.581.581 0 0 0 .352.3 2.2 2.2 0 0 0 .365.121 2.632 2.632 0 0 0 .417.07v.634h-5.392v-.634c.145-.012.291-.027.437-.048a2.442 2.442 0 0 0 .384-.082.623.623 0 0 0 .381-.3 1.159 1.159 0 0 0 .1-.521v-9.684a1.568 1.568 0 0 0-.126-.6.965.965 0 0 0-.369-.465 1.584 1.584 0 0 0-.5-.174 4.228 4.228 0 0 0-.6-.086v-.634L76 23.106l.13.139v8.962q.642-.573 1.444-1.329t1.289-1.25a1.151 1.151 0 0 0 .317-.447 1.456 1.456 0 0 0 .03-.187c0-.1-.091-.191-.274-.26a4.053 4.053 0 0 0-.826-.183v-.616h4.412v.6a9.037 9.037 0 0 0-1.322.456 7.784 7.784 0 0 0-.993.569q-.356.234-.689.491t-.766.64q.849 1.233 1.569 2.283t1.508 2.226a1.311 1.311 0 0 0 .667.547 3.263 3.263 0 0 0 .8.174zM88.879 36.55H83.39v-.634c.15-.012.3-.026.443-.044a1.555 1.555 0 0 0 .373-.086.724.724 0 0 0 .391-.3 1.029 1.029 0 0 0 .113-.517v-5.054a1.017 1.017 0 0 0-.139-.534 1.15 1.15 0 0 0-.347-.369 1.845 1.845 0 0 0-.474-.2 3.117 3.117 0 0 0-.577-.122v-.634l4.255-.226.13.131v6.9a.971.971 0 0 0 .131.517.786.786 0 0 0 .373.317 2.878 2.878 0 0 0 .382.139 2.538 2.538 0 0 0 .435.087zM87.611 24.7a1.472 1.472 0 0 1-.508 1.125 1.8 1.8 0 0 1-2.415 0 1.5 1.5 0 0 1 0-2.254 1.794 1.794 0 0 1 2.419 0 1.487 1.487 0 0 1 .504 1.129zM101.142 36.55h-5.22v-.634l.4-.044a1.112 1.112 0 0 0 .357-.086.557.557 0 0 0 .26-.278 1.434 1.434 0 0 0 .078-.539v-4.064a2.257 2.257 0 0 0-.326-1.333 1.116 1.116 0 0 0-.963-.448 1.948 1.948 0 0 0-.648.105 2.354 2.354 0 0 0-.588.3 1.934 1.934 0 0 0-.405.356c-.1.121-.188.228-.257.321v4.664a1.3 1.3 0 0 0 .087.508.6.6 0 0 0 .286.308 1.655 1.655 0 0 0 .348.139 2.614 2.614 0 0 0 .408.087v.634h-5.28v-.634a7.51 7.51 0 0 0 .438-.048 2.159 2.159 0 0 0 .378-.082.636.636 0 0 0 .382-.3 1.117 1.117 0 0 0 .1-.521v-5.046a1.11 1.11 0 0 0-.139-.53 1.237 1.237 0 0 0-.364-.426 1.445 1.445 0 0 0-.4-.173 2.772 2.772 0 0 0-.525-.1v-.634l4.151-.222.13.131v1.259h.035c.162-.145.359-.318.59-.521a5.627 5.627 0 0 1 .643-.5 3.1 3.1 0 0 1 .842-.356 4.043 4.043 0 0 1 1.112-.148 2.682 2.682 0 0 1 2.123.8 3.11 3.11 0 0 1 .708 2.133v4.255a1.156 1.156 0 0 0 .1.513.67.67 0 0 0 .356.3 2.8 2.8 0 0 0 .343.122 2.439 2.439 0 0 0 .465.087zM105.97 36.845a5.565 5.565 0 0 1-1.646-.247 5.357 5.357 0 0 1-1.246-.526l-.26.591h-.678l-.113-3.24h.634a4.291 4.291 0 0 0 .435.882 4.834 4.834 0 0 0 .694.881 3.914 3.914 0 0 0 .934.66 2.425 2.425 0 0 0 1.125.27 1.863 1.863 0 0 0 1.176-.309 1.141 1.141 0 0 0 .387-.951.913.913 0 0 0-.174-.573 1.5 1.5 0 0 0-.477-.391 4.494 4.494 0 0 0-.743-.3q-.4-.122-.994-.3a9.533 9.533 0 0 1-1.012-.352 3.464 3.464 0 0 1-.873-.56 2.454 2.454 0 0 1-.86-1.954 2.344 2.344 0 0 1 1.029-1.98 4.447 4.447 0 0 1 2.7-.756 6.193 6.193 0 0 1 1.455.161 7.237 7.237 0 0 1 1.116.352l.182-.513h.66l.139 2.962h-.608a3.587 3.587 0 0 0-1.042-1.559 2.355 2.355 0 0 0-1.589-.656 1.758 1.758 0 0 0-1.051.278.9.9 0 0 0-.382.773 1 1 0 0 0 .559.955 7.48 7.48 0 0 0 1.565.556 5.1 5.1 0 0 1 2.271 1.09 2.33 2.33 0 0 1 .72 1.759 2.538 2.538 0 0 1-1.116 2.206 4.975 4.975 0 0 1-2.917.791z"/>
        </g>
    </g>
</svg>
