<svg xmlns="http://www.w3.org/2000/svg" xmlns:xlink="http://www.w3.org/1999/xlink" width="120" height="60">
    <defs>
        <linearGradient id="a" x1="35.033" y1="-48.498" x2="29.11" y2="-54.606" gradientTransform="matrix(1 0 0 -1 0 -28)" gradientUnits="userSpaceOnUse">
            <stop offset=".18" stop-color="#0052cc"/>
            <stop offset="1" stop-color="#2684ff"/>
        </linearGradient>
        <linearGradient id="b" x1="28.538" y1="-55.48" x2="21.688" y2="-62.145" xlink:href="#a"/>
    </defs>
    <path d="M57.015 17.162H60.2v16.2c0 4.285-1.876 7.249-6.27 7.249a11.379 11.379 0 0 1-3.829-.6V36.9a9.023 9.023 0 0 0 3.3.6c2.694 0 3.624-1.611 3.624-3.934zM66.019 15.922a1.989 1.989 0 0 1 2.122 1.847 1.856 1.856 0 0 1 0 .279 2.126 2.126 0 1 1-4.248.185v-.185a1.989 1.989 0 0 1 1.842-2.126 1.923 1.923 0 0 1 .284 0zm-1.563 6.806h3.049v17.718h-3.049zM75.087 40.446h-2.976V22.728h2.976v3.116c1.027-2.09 2.8-3.58 6.274-3.366v2.976c-3.9-.4-6.274.781-6.274 4.538zM95.64 37.256a6.24 6.24 0 0 1-5.988 3.544c-4.711 0-7.087-4.007-7.087-9.213 0-5 2.481-9.214 7.442-9.214a5.815 5.815 0 0 1 5.637 3.471v-3.116h3.049v17.718h-3.049zm-5.174.709c2.73 0 5.174-1.739 5.174-5.67v-1.417c0-3.934-2.231-5.67-4.832-5.67-3.435 0-5.207 2.267-5.207 6.379.012 4.252 1.712 6.378 4.865 6.378z" fill="#253858"/>
    <path d="M41.016 13.538H27.091a6.286 6.286 0 0 0 6.286 6.286h2.561V22.3a6.283 6.283 0 0 0 6.274 6.29h.012V14.746a1.208 1.208 0 0 0-1.208-1.208z" fill="#2684ff"/>
    <path d="M34.114 20.477H20.2a6.286 6.286 0 0 0 6.286 6.285h2.565v2.473a6.286 6.286 0 0 0 6.274 6.286V21.685a1.208 1.208 0 0 0-1.211-1.208z" fill="url(#a)"/>
    <path d="M27.232 27.415H13.307a6.283 6.283 0 0 0 6.278 6.285h2.569v2.472a6.286 6.286 0 0 0 6.286 6.286V28.623a1.208 1.208 0 0 0-1.208-1.208z" fill="url(#b)"/>
</svg>
