<svg xmlns="http://www.w3.org/2000/svg" width="120" height="60">
    <path d="M50.245 19.032V32.35l4.1-4.073h3.905l-5.47 5.289 5.871 7.305h-3.777l-4.163-5.314-.466.466v4.848h-2.909V19.032z"/>
    <path d="M68.218 28.277h2.922v12.594h-2.922v-1.319a5.588 5.588 0 0 1-8.185-.206 7.018 7.018 0 0 1-1.694-4.81 6.8 6.8 0 0 1 1.694-4.72 5.459 5.459 0 0 1 4.241-1.888 5.36 5.36 0 0 1 3.944 1.81zm-6.905 6.259a4.386 4.386 0 0 0 .97 2.948 3.175 3.175 0 0 0 2.508 1.15 3.336 3.336 0 0 0 2.609-1.112 4.784 4.784 0 0 0 0-5.844 3.292 3.292 0 0 0-2.586-1.125 3.217 3.217 0 0 0-2.509 1.138 4.2 4.2 0 0 0-.992 2.845zM77.3 30.993v9.878h-2.927v-9.878h-1.034v-2.716h1.034v-4.862a5.273 5.273 0 0 1 .828-3.362 4.056 4.056 0 0 1 3.31-1.37 5.7 5.7 0 0 1 1.952.452v2.974l-.3-.155a3.651 3.651 0 0 0-1.552-.478 1.052 1.052 0 0 0-1.047.556 5.353 5.353 0 0 0-.272 2.095v4.15h3.168v2.716zM85.53 19.032V32.35l4.1-4.073h3.905l-5.469 5.289 5.87 7.305h-3.777L86 35.557l-.466.466v4.848h-2.913V19.032z"/>
    <path d="M103.635 28.277h2.922v12.594h-2.922v-1.319a5.588 5.588 0 0 1-8.185-.206 7.023 7.023 0 0 1-1.694-4.81 6.807 6.807 0 0 1 1.694-4.72 5.459 5.459 0 0 1 4.241-1.888 5.358 5.358 0 0 1 3.944 1.81zm-6.905 6.259a4.386 4.386 0 0 0 .97 2.948 3.176 3.176 0 0 0 2.508 1.15 3.336 3.336 0 0 0 2.612-1.112 4.784 4.784 0 0 0 0-5.844 3.291 3.291 0 0 0-2.586-1.125 3.213 3.213 0 0 0-2.508 1.138 4.193 4.193 0 0 0-.996 2.845z"/>
    <g>
        <path d="M52.618 22.868l1.493-3.57h.289l1.493 3.57h-.377l-.463-1.117h-1.6l-.458 1.117zm1.639-3.158l-.734 1.765h1.448zM56.276 22.868V19.3h1.479a1.113 1.113 0 0 1 1.056 1.121 1.078 1.078 0 0 1-1.026 1.131h-1.161v1.317h-.348zm.348-1.63h1.141a.751.751 0 0 0 .694-.819.775.775 0 0 0-.724-.81h-1.111v1.629zM58.615 22.868l1.494-3.57h.291l1.494 3.57h-.378l-.462-1.117h-1.6l-.458 1.117zm1.64-3.158l-.734 1.765h1.448zM63.578 19.277a1.4 1.4 0 0 1 1.317.78l-.281.171a1.123 1.123 0 0 0-1.056-.634 1.389 1.389 0 0 0-1.323 1.484 1.44 1.44 0 0 0 1.338 1.5 1.219 1.219 0 0 0 1.1-.664l.292.151a1.56 1.56 0 0 1-1.413.829 1.792 1.792 0 0 1-1.67-1.84 1.725 1.725 0 0 1 1.696-1.777zM68.272 19.3v3.57h-.352V21.2H65.8v1.67h-.347V19.3h.347v1.588h2.12V19.3zM71.477 22.556v.311h-2.4V19.3h2.353v.311h-2.004V20.9h1.75v.3h-1.75v1.363z"/>
    </g>
    <path d="M35.9 32.238a6.114 6.114 0 0 0-4.49 1.962l-2.855-1.648A7.751 7.751 0 0 0 28.988 30a7.751 7.751 0 0 0-.433-2.555L31.41 25.8a6.128 6.128 0 1 0 4.49-10.3 6.127 6.127 0 0 0-5.891 7.818l-2.869 1.657a7.772 7.772 0 0 0-4.5-2.618v-2.766A6.129 6.129 0 0 0 21.216 7.5a6.129 6.129 0 0 0-1.421 12.091v2.769A7.783 7.783 0 0 0 13.443 30a7.783 7.783 0 0 0 6.351 7.64v2.769A6.129 6.129 0 0 0 21.215 52.5a6.129 6.129 0 0 0 1.421-12.091V37.64a7.772 7.772 0 0 0 4.5-2.618l2.869 1.657A6.127 6.127 0 0 0 35.9 44.5a6.13 6.13 0 1 0 0-12.259zm0-13.576a2.971 2.971 0 1 1-2.971 2.971 2.971 2.971 0 0 1 2.971-2.971zm-17.655-5.033a2.971 2.971 0 1 1 2.97 2.971 2.971 2.971 0 0 1-2.97-2.971zm5.941 32.742a2.971 2.971 0 1 1-2.971-2.971 2.971 2.971 0 0 1 2.971 2.971zM25.672 30a4.457 4.457 0 1 1-8.913 0 4.457 4.457 0 1 1 8.913 0zM35.9 41.338a2.971 2.971 0 1 1 2.971-2.971 2.971 2.971 0 0 1-2.971 2.971z"/>
</svg>
