<svg xmlns="http://www.w3.org/2000/svg" width="120" height="60">
    <path fill="#004462" d="M68.145 30.637h4.994v-1.099h-4.994v-3.815h5.6v-1.115h-6.847v11.203h7.076v-1.115h-5.829v-4.059zM81.831 29.524l-.884-.41c-1.186-.545-1.749-.979-1.749-1.967a1.548 1.548 0 0 1 1.735-1.555 2.216 2.216 0 0 1 2.035 1.2l.017.028.979-.607.028-.017-.017-.029a3.332 3.332 0 0 0-3.042-1.686 2.719 2.719 0 0 0-2.965 2.7c0 1.626.947 2.383 2.476 3.076l.884.41c1.315.588 2.077 1.152 2.077 2.295 0 1.1-.936 1.866-2.276 1.866a3 3 0 0 1-2.836-1.719l-.017-.029-1.04.555.015.029a4.061 4.061 0 0 0 3.911 2.279c2.087 0 3.489-1.2 3.489-2.981 0-1.577-.791-2.54-2.82-3.438zM94 24.477a5.733 5.733 0 1 0 5.766 5.732A5.615 5.615 0 0 0 94 24.477zm4.47 5.732A4.676 4.676 0 0 1 97.2 33.5a4.551 4.551 0 0 1-6.394 0 4.911 4.911 0 0 1 0-6.578 4.55 4.55 0 0 1 6.394 0 4.675 4.675 0 0 1 1.27 3.287zM107.18 29.524l-.884-.41c-1.185-.545-1.749-.979-1.749-1.967a1.548 1.548 0 0 1 1.735-1.555 2.214 2.214 0 0 1 2.034 1.2l.018.028.979-.607.028-.017-.017-.029a3.332 3.332 0 0 0-3.042-1.686 2.719 2.719 0 0 0-2.965 2.7c0 1.626.947 2.383 2.476 3.076l.884.41c1.315.588 2.077 1.152 2.077 2.295 0 1.1-.936 1.866-2.276 1.866a3 3 0 0 1-2.836-1.719l-.017-.029-1.04.555.015.029a4.06 4.06 0 0 0 3.911 2.279c2.087 0 3.489-1.2 3.489-2.981 0-1.577-.791-2.54-2.82-3.438z"/>
    <g fill="#004462">
        <path d="M51.022 28.211v7.6h1.283v-5.828l-1.283-1.772zM51.082 24.241l-.06-.08v2.02l5.696 7.745 4.396-6.094v7.979h1.284V24.16l-5.68 7.517-5.636-7.436z"/>
    </g>
    <g fill="#00aede">
        <path d="M32.77 25.365l-6.7-3.875v7.759l6.7-3.884M25.2 29.249V21.49l-6.706 3.875 6.706 3.884M24.764 20.745l-6.7-3.9v7.771l6.7-3.874M40.785 30.007l-6.711-3.885v7.757l6.711-3.872M17.192 24.619v-7.771l-6.75 3.9 6.75 3.874M17.192 43.142v-7.768l-6.75 3.883 6.75 3.885M33.2 24.619v-7.771l-6.69 3.9 6.69 3.874M41.219 38.512v-7.759l-6.694 3.872 6.694 3.887M17.192 33.88v-7.77l-6.75 3.9 6.75 3.873M16.76 34.625L10 30.753v7.758l6.76-3.886M41.219 29.249V21.49l-6.694 3.875 6.694 3.884M40.785 20.745l-6.711-3.9v7.771l6.711-3.874M40.785 39.257l-6.711-3.883v7.768l6.711-3.885M16.76 25.365L10 21.49v7.759l6.76-3.884"/>
    </g>
    <g fill="#004462">
        <path d="M33.2 33.88v-7.758l-6.69 3.885 6.69 3.873M32.77 34.625l-6.7-3.872v7.758l6.7-3.886M25.2 38.512v-7.759l-6.706 3.872 6.706 3.887M24.764 39.257l-6.7-3.883v7.768l6.7-3.885M24.764 30.007l-6.7-3.885v7.757l6.7-3.872M26.069 12.228v7.757l6.7-3.883-6.7-3.874M18.491 16.1l6.709 3.885v-7.757L18.491 16.1M32.77 43.887l-6.7-3.871v7.755l6.7-3.884M25.2 47.772v-7.756l-6.706 3.871 6.706 3.885M33.2 43.142v-7.768l-6.69 3.883 6.69 3.885"/>
    </g>
</svg>
