<svg xmlns="http://www.w3.org/2000/svg" width="120" height="60">
    <path d="M10 40.53a2.693 2.693 0 0 1 2.822-1.273 33.857 33.857 0 0 0 7.735-.046 10.256 10.256 0 0 1 2.543-.019l3.953.326a8.8 8.8 0 0 1 1.211.17.859.859 0 0 1 .717.672.84.84 0 0 1-.477.945 2.485 2.485 0 0 1-1.146.328l-4.248-.2a31.528 31.528 0 0 0-3.675.1 27.519 27.519 0 0 1-5.086.031c-.938-.082-1.888-.03-2.832-.046A1.651 1.651 0 0 1 10 40.907zm18.944-16.78l.14 3.216a16.124 16.124 0 0 1-.065 2.077 15.383 15.383 0 0 0 0 4.339 5.544 5.544 0 0 1-.056 1.875 1.612 1.612 0 0 1-1.714 1.5l-.063-.006a17.182 17.182 0 0 1-3.078-.449 3.156 3.156 0 0 1-1.764-1.372 19.4 19.4 0 0 1-1.144-1.846 15.041 15.041 0 0 0-2.192-3.078 15.52 15.52 0 0 1-1.362-1.921 3.976 3.976 0 0 0-.3-.481.643.643 0 0 0-1.131.214 2.269 2.269 0 0 0-.118.748L16 32.916a2.145 2.145 0 0 1-.163.733 2.013 2.013 0 0 0-.044 1.814.727.727 0 0 1-.316.978.717.717 0 0 1-.208.069 4.324 4.324 0 0 1-3.32-.093 1.5 1.5 0 0 1-.931-1.41l-.112-3.124a2.038 2.038 0 0 1 .664-1.727 2.8 2.8 0 0 0 .529-.663 1.253 1.253 0 0 0-.05-1.506 5.914 5.914 0 0 1-1.15-4.37l.07-3.117.007-.757a.94.94 0 0 1 1.206-1.062 6.523 6.523 0 0 0 2.311-.432 1.4 1.4 0 0 1 1.853.686 1.358 1.358 0 0 1 .065.168c.119.257.21.526.316.789a1.584 1.584 0 0 0 .956.99 2.261 2.261 0 0 1 1.126.969l2.97 4.28a7.424 7.424 0 0 0 1.047 1.219c.424.385.775.265.844-.318a13.871 13.871 0 0 0 .13-2.732 30.6 30.6 0 0 1 .047-4.25 1.418 1.418 0 0 1 1.784-1.627l1.047.06a2.021 2.021 0 0 1 2.107 1.678 5.454 5.454 0 0 1 .188 1.212l.01 2.369zm22.622 5.117a9.508 9.508 0 0 1 .27-2.992 3.948 3.948 0 0 1 3.487-2.775 5.694 5.694 0 0 1 4.253.884 3.794 3.794 0 0 0 .4.247.867.867 0 0 0 1.224-.131c.015-.02.03-.04.043-.06a3.531 3.531 0 0 1 3.784-.343 2.118 2.118 0 0 1 .711 2.543 6.886 6.886 0 0 0-.319 4.257l.3 2.918.248 3.2a4.518 4.518 0 0 1-1 2.977 7.414 7.414 0 0 1-2.273 1.945 1.647 1.647 0 0 1-1.616.2 4.816 4.816 0 0 0-3.591-.052 5.351 5.351 0 0 1-2.992.175 4.116 4.116 0 0 1-2.995-2.394 1.267 1.267 0 0 1 .067-1.579 1.346 1.346 0 0 1 1.581-.224l.436.185.423.21c1.323.489 2.7.792 4.04 1.227a2.245 2.245 0 0 0 2.722-1.634 2.188 2.188 0 0 0 .052-.289 6.292 6.292 0 0 0 .055-1.776.644.644 0 0 0-.937-.612 6.548 6.548 0 0 0-1.369.615 3.937 3.937 0 0 1-2.639.512 3.592 3.592 0 0 1-2.864-2.357 5.909 5.909 0 0 0-1.16-2.031 1.809 1.809 0 0 1-.323-1.047c-.05-.6-.014-1.211-.014-1.8zm9.468.956a13.158 13.158 0 0 0-.382-1.735 2.554 2.554 0 0 0-2.412-1.8A2.664 2.664 0 0 0 56 28.3a.96.96 0 0 0-.072.272 21.047 21.047 0 0 0 .1 2.342 2.008 2.008 0 0 0 1.572 1.797A2.581 2.581 0 0 0 60.2 32a3.469 3.469 0 0 0 .834-2.174zm-28.1 3.3v-.757a2.346 2.346 0 0 1 .771-1.956 2.406 2.406 0 0 1 2.031-.578 3.358 3.358 0 0 1 .468.066 2.208 2.208 0 0 0 1.883-.4 4.7 4.7 0 0 1 2.641-.908 5.648 5.648 0 0 0 1.294-.222 1.56 1.56 0 0 0 1.148-1.9.994.994 0 0 0-1.1-.943 6.164 6.164 0 0 0-4.361 1.5.98.98 0 0 1-.651.314 12.832 12.832 0 0 1-2.7-.27 1.211 1.211 0 0 1-.4-2.286 6.755 6.755 0 0 1 5.109-1.55 9.076 9.076 0 0 0 3.014-.051 4.734 4.734 0 0 1 5.179 3.694 3.189 3.189 0 0 1-.128 1.3 3.841 3.841 0 0 0 .149 2.76 2.474 2.474 0 0 1 .068 1.377 5.473 5.473 0 0 0 .016 2.244 1.319 1.319 0 0 1-1.419 1.8c-.5.009-1.01-.01-1.513.022a1.8 1.8 0 0 1-1.556-.5.832.832 0 0 0-.582-.291.841.841 0 0 0-.615.217 1.683 1.683 0 0 1-.557.348l-4.549.792a4.346 4.346 0 0 1-1.922-.391 2.475 2.475 0 0 1-1.725-2.555v-.857zm6.424 1.207a1.572 1.572 0 0 0 .469-.04l3.373-1.435a.764.764 0 0 0 .087-1.29 2.185 2.185 0 0 0-2.413-.848 4.444 4.444 0 0 1-1.029.078 7.891 7.891 0 0 0-1.218.121 1.593 1.593 0 0 0-1.153 1.908 1.429 1.429 0 0 0 1.321 1.461 5.609 5.609 0 0 0 .565.044zm54.374-4.546A9.82 9.82 0 0 1 92.7 33.7a4.885 4.885 0 0 1-1.778 1.8 1.833 1.833 0 0 1-1.621.257 1.574 1.574 0 0 0-1.731.423 1.8 1.8 0 0 1-1.814.449 12.939 12.939 0 0 0-2.537-.23 2.72 2.72 0 0 1-1.731-.633L79.5 34.325a1.584 1.584 0 0 1-.706-1.269 8.382 8.382 0 0 0-.641-2.843 3.777 3.777 0 0 1 .621-3.49.917.917 0 0 1 .519-.375 2.749 2.749 0 0 0 1.762-1.478 2.109 2.109 0 0 1 2.562-1.251 1.357 1.357 0 0 0 .564.022 14.471 14.471 0 0 1 4.12.024 5.069 5.069 0 0 1 4.588 2.966 7.638 7.638 0 0 1 .841 3.152zm-5.2.513a4.734 4.734 0 0 0-.6-2.826 2.4 2.4 0 0 0-3.919-.531 5.141 5.141 0 0 0-.405 5.725 2.9 2.9 0 0 0 2.982.944 2.665 2.665 0 0 0 1.883-2.367l.058-.947zm14.436-7.372l3.186.37a6.075 6.075 0 0 1 1.8.788 2.113 2.113 0 0 1 .734.837.9.9 0 0 1-.652 1.425 4.132 4.132 0 0 1-3.729-.272 4.283 4.283 0 0 0-1.329-.473 1.9 1.9 0 0 0-1.612.363.91.91 0 0 0-.012 1.582 1.094 1.094 0 0 0 .407.235 13.133 13.133 0 0 0 3.406.728 3.2 3.2 0 0 1 1.968.548 16.884 16.884 0 0 0 1.5.8 2.271 2.271 0 0 1 1.362 2.2c-.075 2.133-.9 3.5-3 3.86a5.877 5.877 0 0 0-2.253.653 1.742 1.742 0 0 1-.731.161l-2.074.177a11.338 11.338 0 0 1-4.588-1.286 2.906 2.906 0 0 1-.426-.372 1.173 1.173 0 0 1 .58-2.138 9.11 9.11 0 0 1 2.624-.193 2.46 2.46 0 0 1 1.18.721 3.072 3.072 0 0 0 2.544.772 3.142 3.142 0 0 0 1.161-.371 1.063 1.063 0 0 0 .587-1.008 1.046 1.046 0 0 0-.708-.925c-.17-.082-.359-.119-.533-.192a15.777 15.777 0 0 1-1.719-.764 4.021 4.021 0 0 0-2.532-.57 3.144 3.144 0 0 1-3.517-2.1A3.592 3.592 0 0 1 97.8 24.42a5.836 5.836 0 0 1 3.841-1.372 5.471 5.471 0 0 0 1.332-.131zm-28.563 5.7a6.265 6.265 0 0 0 .024 1.209l.363 4.894a1.816 1.816 0 0 1-1.6 2.009 1.779 1.779 0 0 1-.494-.012 2.92 2.92 0 0 1-2.63-4.325 4.347 4.347 0 0 0 .232-2.767l-.587-4.012a2.837 2.837 0 0 1 .085-1.029 1.45 1.45 0 0 1 1.472-1.227 10.653 10.653 0 0 1 1.8.035 1.616 1.616 0 0 1 1.593 1.758v1.136c.042.013-.158 1.559-.251 2.331zm-2.1-10.571h.283a1.646 1.646 0 0 1 1.463 2.672 1.045 1.045 0 0 1-.926.559 11.8 11.8 0 0 1-1.875-.085 1.287 1.287 0 0 1-.962-.466 1.318 1.318 0 0 1-.3-1.02 1.7 1.7 0 0 1 1.476-1.69c.282-.025.566 0 .848 0v.025z"/>
</svg>
