<svg xmlns="http://www.w3.org/2000/svg" width="120" height="60">
    <path d="M13.59 48.63a3.58 3.58 0 01-2.54-1A3.27 3.27 0 0110 45.2a3.31 3.31 0 011.05-2.46 3.52 3.52 0 012.54-1 3.52 3.52 0 012.57 1 3.31 3.31 0 010 4.89 3.59 3.59 0 01-2.57 1M53.5 11.37h-5.72V35a34.24 34.24 0 00.22 5h-.1c-.2-.41-.65-1.16-1.34-2.25L30.07 11.37h-6.92v36.69h5.74V24a37.54 37.54 0 00-.2-5h.15a12.18 12.18 0 001.08 2.13L47 48.06h6.5zm28 31.55H67.3V32.07h12.3v-5.14H67.3V16.54h13.35v-5.17H61.36v36.69h20.09zM110 11.37H83.52v5.17h10.26v31.52h5.94V16.54H110z" fill="#5b27d9"/>
</svg>
