<svg xmlns="http://www.w3.org/2000/svg" width="120" height="60">
    <path d="M44.958 35.145l-2.736-5.735a36 36 0 0 1-1.553-3.618l-.053.053c.088 1.023.106 2.312.123 3.388l.071 5.912h-1.994V22.933h2.295l2.965 5.967a22.165 22.165 0 0 1 1.253 3.142l.053-.053c-.053-.618-.176-2.365-.176-3.478l-.035-5.576H47.1v12.208zM50.728 31.21v.135c0 1.236.459 2.541 2.206 2.541A3.29 3.29 0 0 0 55.158 33l.759 1.183a4.821 4.821 0 0 1-3.212 1.183c-2.523 0-4.111-1.817-4.111-4.676a4.864 4.864 0 0 1 1.112-3.49 3.4 3.4 0 0 1 2.736-1.2 3.448 3.448 0 0 1 2.453.918c.776.706 1.165 1.8 1.165 3.882v.407zm1.711-3.742c-1.093 0-1.693.865-1.693 2.312h3.3c-.001-1.444-.635-2.312-1.607-2.312zM66.388 35.18h-1.824l-1.094-4.111c-.282-1.058-.582-2.439-.582-2.439h-.036a25.4 25.4 0 0 1-.582 2.523l-1.076 4.023h-1.819l-2.439-8.842 1.924-.271.97 4.324c.247 1.112.46 2.347.46 2.347h.053a24.189 24.189 0 0 1 .512-2.4L62 26.205h1.906l1.007 4.028c.371 1.447.565 2.541.565 2.541h.053s.212-1.355.442-2.4l.917-4.166h2.013zM80.217 35.145l-1.058-1.889a13.652 13.652 0 0 0-2.083-3.023 1.038 1.038 0 0 0-.8-.365v5.277h-1.989V22.933h3.724c2.736 0 3.97 1.588 3.97 3.5a3.123 3.123 0 0 1-3.035 3.354 9.2 9.2 0 0 1 1.888 2.439l1.8 2.93zm-2.824-10.57H76.28v3.865h1.041c1.058 0 1.626-.135 2-.512a2.059 2.059 0 0 0 .542-1.483c.007-1.236-.664-1.871-2.465-1.871zM85.3 31.21v.135c0 1.236.459 2.541 2.206 2.541A3.29 3.29 0 0 0 89.729 33l.758 1.183a4.818 4.818 0 0 1-3.211 1.183c-2.523 0-4.112-1.817-4.112-4.676a4.865 4.865 0 0 1 1.113-3.49 3.4 3.4 0 0 1 2.736-1.2 3.45 3.45 0 0 1 2.453.918c.776.706 1.165 1.8 1.165 3.882v.407zm1.713-3.742c-1.094 0-1.694.865-1.694 2.312h3.294c-.001-1.444-.631-2.312-1.601-2.312zM94.264 35.34c-1.959 0-1.959-1.761-1.959-2.523v-7.608a14.45 14.45 0 0 0-.17-2.611l1.995-.442a11.084 11.084 0 0 1 .159 2.453v7.571c0 1.2.052 1.4.193 1.606a.545.545 0 0 0 .636.136l.317 1.2a3.029 3.029 0 0 1-1.171.218zM97.634 24.892a1.264 1.264 0 0 1-1.253-1.277V23.6a1.279 1.279 0 1 1 1.269 1.289zm-.97 10.255v-8.79l1.96-.357v9.141zM104.182 35.376c-2.439 0-3.794-1.712-3.794-4.589 0-3.252 1.942-4.8 3.93-4.8a3.249 3.249 0 0 1 2.47.971l-.966 1.287a2.192 2.192 0 0 0-1.5-.688 1.516 1.516 0 0 0-1.412.9 5.919 5.919 0 0 0-.37 2.488 3.611 3.611 0 0 0 .6 2.44 1.573 1.573 0 0 0 1.183.512 2.569 2.569 0 0 0 1.8-.882l.917 1.183a3.73 3.73 0 0 1-2.858 1.178zM108.7 35.342a1.311 1.311 0 1 1 1.3-1.317v.006a1.306 1.306 0 0 1-1.3 1.311zm0-2.361a1.055 1.055 0 1 0 1.008 1.1v-.049a1.024 1.024 0 0 0-1-1.051h-.008zm.258 1.777c-.057-.1-.081-.136-.136-.244-.145-.264-.189-.339-.242-.359a.1.1 0 0 0-.046-.011v.614h-.289v-1.471h.542a.406.406 0 0 1 .433.378.3.3 0 0 1 0 .052.376.376 0 0 1-.328.406.359.359 0 0 1 .059.064c.084.106.353.571.353.571zm-.151-1.213a.608.608 0 0 0-.165-.022h-.106v.4h.1c.128 0 .183-.015.223-.051a.2.2 0 0 0 .056-.147.172.172 0 0 0-.115-.18z"/>
    <path d="M31.93 27.634c-1.037-4.764-6.749-7.565-12.76-6.258S9.127 27.6 10.162 32.366s6.749 7.566 12.759 6.258 10.044-6.224 9.009-10.99zM21.047 34.39a4.391 4.391 0 1 1 4.39-4.39 4.39 4.39 0 0 1-4.39 4.39z" fill="#008c99"/>
    <path d="M22.017 23.853a6.3 6.3 0 1 0 6.305 6.3 6.3 6.3 0 0 0-6.3-6.3zm-.972 9.982A3.835 3.835 0 1 1 24.88 30a3.835 3.835 0 0 1-3.835 3.835z" fill="#70ccd3"/>
</svg>
