<svg xmlns="http://www.w3.org/2000/svg" width="120" height="60">
  <path fill="#999" d="M83.87,43.4h-.89v-1.22h2.1v-.55h-2.68v2.31h1.44c.51,0,.81,.24,.81,.67v.47c0,.48-.33,.75-.92,.75s-.9-.27-.9-.75v-.43h-.58v.42c.11,.82,.86,1.4,1.68,1.29,.67-.09,1.2-.62,1.29-1.29v-.44c0-.67-.53-1.22-1.2-1.23-.05,0-.11,0-.16,0"/>
  <polygon fill="#999" points="81.74 42.18 81.74 41.64 78.9 41.64 78.9 46.28 79.48 46.28 79.48 44.41 81.51 44.41 81.51 43.86 79.48 43.86 79.48 42.18 81.74 42.18"/>
  <path fill="#999" d="M76.53,41.74h.29v-.53h-.36c-.62-.04-1.15,.42-1.19,1.04,0,.08,0,.15,0,.23v.48h-.39v.53h.39v2.8h.56v-2.8h.92v-.53h-.92v-.44c0-.55,.22-.78,.69-.78"/>
  <path fill="#999" d="M69.22,45.75c-.45,0-.68-.21-.68-.74v-1.52h.91v-.53h-.91v-.98h-.56v.98h-.45v.53h.45v1.65c0,.8,.37,1.15,1.12,1.15h.41v-.53h-.29Z"/>
  <path fill="#999" d="M66.91,42.89c-.38-.01-.75,.13-1.03,.4l-.11-.34h-.39v3.33h.56v-2.09c-.01-.43,.33-.8,.76-.81,.04,0,.07,0,.11,0,.1,0,.19,.01,.28,.03v-.51c-.06,0-.13,0-.19,0"/>
  <path fill="#999" d="M73,42.87c-.69-.09-1.33,.41-1.41,1.1-.01,.09-.01,.18,0,.28v.74c.02,.78,.67,1.4,1.46,1.38,.76-.02,1.36-.63,1.38-1.38v-.74c.07-.7-.45-1.32-1.14-1.38-.09,0-.19,0-.28,0Zm.86,2.08c0,.59-.26,.88-.86,.88s-.86-.3-.86-.88v-.67c0-.59,.26-.88,.86-.88s.86,.29,.86,.88v.67Z"/>
  <path fill="#999" d="M64.24,42.95l-.11,.34c-.27-.29-.65-.45-1.04-.42-.82,0-1.3,.41-1.3,1.4v.69c0,.99,.48,1.4,1.3,1.4,.39,.02,.78-.13,1.04-.42l.11,.34h.39v-3.33h-.39Zm-1.05,2.88c-.56,0-.84-.28-.84-.91v-.62c0-.63,.28-.9,.84-.9,.43-.05,.82,.26,.87,.69,0,.04,0,.07,0,.11v.83c.01,.44-.33,.8-.77,.81-.04,0-.07,0-.11,0"/>
  <path fill="#999" d="M59.89,41.64h-1.82v4.64h.58v-1.69h1.25c.9,0,1.42-.47,1.42-1.23v-.51c0-.76-.51-1.23-1.42-1.23m.85,1.73c0,.44-.26,.67-.82,.67h-1.27v-1.86h1.28c.55,0,.81,.24,.81,.68v.51Z"/>
  <path fill="#009639" d="M10.28,40.38c.19,.33,.46,.6,.79,.78l16.11,9.3h0c.66,.39,1.48,.39,2.14,0l16.11-9.3c.67-.38,1.08-1.09,1.07-1.85V20.7h0c0-.77-.4-1.48-1.07-1.85L29.32,9.54h0c-.66-.39-1.48-.39-2.14,0h0S11.07,18.84,11.07,18.84c-.67,.38-1.08,1.09-1.07,1.85h0v18.61c0,.38,.09,.75,.28,1.07"/>
  <path fill="#fff" d="M23.1,37.08c0,1.14-.93,2.07-2.07,2.07s-2.07-.93-2.07-2.07h0s0-14.22,0-14.22c.08-1.19,1.1-2.09,2.29-2.02,.02,0,.04,0,.06,0,1.08-.01,2.11,.45,2.82,1.26l.63,.75,8.66,10.36v-10.3h0c0-1.14,.93-2.07,2.07-2.07,1.14,0,2.07,.93,2.07,2.07h0s0,0,0,0v14.22c-.08,1.19-1.11,2.09-2.3,2.02-.02,0-.04,0-.06,0-1.08,.01-2.11-.45-2.82-1.26l-9.28-11.11v10.3h0Z"/>
  <polygon points="110 22.99 107.27 22.99 104.26 27.76 101.33 22.99 98.5 22.99 102.72 29.88 98.46 37 101.15 37 104.14 32.2 107.07 37 109.9 37 105.65 30.06 110 22.99"/>
  <polygon points="94.97 22.99 94.97 32.53 89.47 22.99 87.19 22.99 87.19 37 89.47 37 89.47 27.52 94.97 37 97.27 37 97.27 22.99 94.97 22.99"/>
  <rect x="82.88" y="22.99" width="2.43" height="14.01"/>
  <path d="M81.01,27.98v-.79c0-2.71-2-4.47-5.5-4.47s-5.48,1.76-5.48,4.47v5.62c0,2.71,2.02,4.47,5.5,4.47s5.48-1.76,5.48-4.47v-3.29h-5.58v2.26h3.15v.89c0,1.46-1.11,2.36-3.07,2.36s-3.05-.89-3.05-2.36v-5.34c0-1.46,1.11-2.36,3.07-2.36s3.05,.89,3.05,2.36v.65h2.43Z"/>
  <polygon points="65.85 22.99 65.85 32.53 60.34 22.99 58.07 22.99 58.07 37 60.34 37 60.34 27.52 65.85 37 68.14 37 68.14 22.99 65.85 22.99"/>
</svg>