<svg xmlns="http://www.w3.org/2000/svg" width="120" height="60">
    <path d="M26.466 21.117H11.694a1.692 1.692 0 0 0-1.688 1.683v3.974h4.1v-.649a.915.915 0 0 1 .914-.913h8.129a.913.913 0 0 1 .911.913v.649h4.1V22.8a1.691 1.691 0 0 0-1.694-1.683zM24.053 33.871a.913.913 0 0 1-.912.913h-8.129a.915.915 0 0 1-.913-.913v-.649H10V37.2a1.69 1.69 0 0 0 1.687 1.687H26.46a1.69 1.69 0 0 0 1.687-1.687v-3.978h-4.094zM10 27.95h4.099v4.099H10zM24.055 27.95h4.099v4.099h-4.099z" fill="#ed1944"/>
    <path d="M110 33.445a1.155 1.155 0 1 0-1.157 1.152A1.154 1.154 0 0 0 110 33.445zm-1.153.869a.872.872 0 1 1 .87-.874v.005a.869.869 0 0 1-.87.869z" fill="#4e4540"/>
    <path d="M109.28 33.234a.363.363 0 0 0-.1-.262.417.417 0 0 0-.308-.108h-.416v1.13h.235v-.371h.146l.208.371h.269l-.24-.416a.347.347 0 0 0 .206-.344zm-.237 0a.162.162 0 0 1-.152.172.158.158 0 0 1-.031 0h-.173v-.341h.167c.12 0 .189.056.189.168zM40.733 30.078v-.156c0-2.728-1.789-4.709-4.223-4.709s-4.257 2.015-4.257 4.726v.161c0 2.727 1.789 4.692 4.223 4.692s4.257-2.003 4.257-4.714zm-6.516-.029v-.106c0-1.721.886-2.988 2.259-2.988 1.338 0 2.289 1.286 2.289 3.007v.1c0 1.72-.886 3.006-2.26 3.006-1.333 0-2.288-1.305-2.288-3.019zM50.082 30.113v-.243c0-3.111-1.738-4.657-3.581-4.657a3.114 3.114 0 0 0-2.693 1.65v-1.477h-1.964v11.835h1.964v-4.014A3.138 3.138 0 0 0 46.5 34.77c1.861 0 3.582-1.563 3.582-4.657zm-6.309-.035v-.173c0-1.808 1.007-2.954 2.189-2.954s2.139 1.13 2.139 2.971v.156c0 1.843-.939 2.955-2.139 2.955s-2.189-1.147-2.189-2.955zM58.589 33.363l-1.023-1.217a2.93 2.93 0 0 1-2.121.974 2.366 2.366 0 0 1-2.33-2.38h5.77c.018-.279.018-.558.018-.679 0-2.763-1.321-4.848-3.824-4.848-2.259 0-3.926 1.981-3.926 4.744v.14c0 2.884 1.841 4.692 4.2 4.692a4.232 4.232 0 0 0 3.236-1.426zm-3.51-6.5c1.147 0 1.808 1.062 1.912 2.52H53.1c.13-1.565.9-2.52 1.979-2.52zM64.673 25.213a2.89 2.89 0 0 0-2.52 1.53v-1.357h-1.964V34.6h1.964v-5.581c0-1.269.712-2.033 1.738-2.033s1.652.712 1.652 2V34.6h1.962v-6.172c-.005-1.964-1.063-3.215-2.832-3.215zM75.418 31.973v-.018c0-1.442-1.078-2.1-2.5-2.745-1.078-.486-1.806-.8-1.806-1.408v-.042c0-.5.433-.9 1.163-.9a4.1 4.1 0 0 1 2.189.818l.832-1.444a5.26 5.26 0 0 0-2.988-.99 2.757 2.757 0 0 0-3.042 2.694v.033c0 1.511 1.147 2.137 2.52 2.728 1.094.468 1.808.764 1.808 1.425v.017c0 .574-.47 1.009-1.286 1.009a4.215 4.215 0 0 1-2.538-1.078l-.92 1.407a5.439 5.439 0 0 0 3.423 1.286c1.763.005 3.145-.986 3.145-2.792zM81.5 34.337V32.72a2.223 2.223 0 0 1-1.059.261.881.881 0 0 1-.99-1.008v-4.9h2.078v-1.687h-2.08V22.9h-1.967v2.484h-1.01l.325 1.685h.685v5.3a2.1 2.1 0 0 0 2.38 2.364 3.354 3.354 0 0 0 1.638-.396zM89.017 26.221a3.657 3.657 0 0 0-2.7-.939 6.555 6.555 0 0 0-3.042.73l.555 1.565a5.251 5.251 0 0 1 2.225-.558 1.742 1.742 0 0 1 1.98 1.873v.383a6.247 6.247 0 0 0-2.12-.364c-1.945 0-3.266.971-3.266 2.952v.088a2.689 2.689 0 0 0 2.815 2.815 2.929 2.929 0 0 0 2.555-1.3v1.13h1.929V28.88a3.569 3.569 0 0 0-.931-2.659zm-.968 5.284a1.844 1.844 0 0 1-2 1.79 1.4 1.4 0 0 1-1.494-1.457V31.8c0-.974.659-1.546 1.789-1.546a4.463 4.463 0 0 1 1.7.329zM98.29 33.4l-1.059-1.3a2.565 2.565 0 0 1-1.873.939c-1.339 0-2.288-1.2-2.288-2.988v-.088c0-1.739.938-2.971 2.226-2.971a2.481 2.481 0 0 1 1.858.92l1.095-1.442a3.882 3.882 0 0 0-2.949-1.254c-2.416 0-4.207 1.98-4.207 4.725v.174c0 2.747 1.739 4.676 4.136 4.676A3.851 3.851 0 0 0 98.29 33.4zM104.301 29.816l-1.379 1.481 1.849 3.3h2.277l-2.747-4.781z" fill="#4e4540"/>
    <path fill="#4e4540" d="M104.632 25.386l-3.146 4.049v-7.386h-1.962v12.548h1.962v-2.659l5.474-6.552h-2.328z"/>
</svg>
