<svg xmlns="http://www.w3.org/2000/svg" width="120" height="60">
    <path d="M107.507 24.04l-2.257 6.4c-.41 1.149-.615 1.806-1 2.914h-.041c-.3-.955-.564-1.724-.954-2.852l-2.2-6.473h-2.616l4.544 11.879c-.1.256-.2.523-.318.8a2.468 2.468 0 0 1-2.277 1.529h-1.129v2.021h1.16a4.587 4.587 0 0 0 4.267-2.893c1.447-3.622 3.909-9.787 5.314-13.326zm-63.018 9.592c0 4.3-1.97 6.627-5.95 6.627a5.118 5.118 0 0 1-5.386-3.909h2.4a2.98 2.98 0 0 0 3.026 2.062c2.719 0 3.683-1.693 3.683-4.914-.02 0-.02-.02-.041-.02a4.367 4.367 0 0 1-3.98 1.918c-3.345 0-5.478-2.421-5.478-5.817 0-3.529 2.308-5.909 5.5-5.909a4.578 4.578 0 0 1 3.981 1.857c-.021-.246-.021-.5-.021-.749v-.748h2.267zm-9.233-4.073c0 2.308 1.293 3.96 3.509 3.96 1.99 0 3.529-1.406 3.529-4.032 0-2.329-1.354-3.888-3.529-3.888s-3.509 1.559-3.509 3.96zm12.977 1.015a3.629 3.629 0 0 0 3.735 3.735 3.2 3.2 0 0 0 3.026-1.785h2.287a5.3 5.3 0 0 1-5.406 3.682c-3.662 0-5.95-2.462-5.95-6.175s2.38-6.33 5.95-6.33c3.868 0 5.653 2.944 5.653 6.135v.749h-9.3zm6.915-1.805a3.266 3.266 0 0 0-3.324-3.211 3.414 3.414 0 0 0-3.508 3.211zm6.042-4.729v1.518a2.92 2.92 0 0 1 2.872-1.8 3.58 3.58 0 0 1 .585.041v2.082a4.711 4.711 0 0 0-.79-.072c-2.144 0-2.554 1.58-2.554 3.96v6.155h-2.288v-9.75c0-.749 0-1.406-.02-2.124h2.2zm26.949 10.176a4.147 4.147 0 0 1-3.775 1.99c-2.76 0-4.114-1.692-4.114-4.77v-7.4h2.278v6.534c0 2.329.769 3.735 2.626 3.735 2.441 0 2.872-2.216 2.872-4.822V24.04h2.288v10.084c0 .615 0 1.2.02 1.785h-2.2v-1.693zm7.314-10.176h2.216v1.76h-2.216v7.13c0 1.128.565 1.467 1.447 1.467a4.965 4.965 0 0 0 .564-.041v1.693a7.173 7.173 0 0 1-.882.092c-2.1 0-3.437-.7-3.437-3.078V25.8H91.36v-1.76h1.785v-3.211h2.308zM10 31.6h2.37v4.309H10zm8.925-11.069a7.658 7.658 0 0 0-4.237-.79H10v9.808h4.668a7.632 7.632 0 0 0 4.462-.924 4.665 4.665 0 0 0 2.021-4.041 4.439 4.439 0 0 0-2.226-4.053zM15.211 27.5H12.37v-5.656l2.677-.02c2.442-.031 3.662.831 3.662 2.78 0 2.096-1.509 2.896-3.498 2.896zm50.831-7.756H70c5.929.042 8.781 2.934 8.8 8.125.02 4.422-2.267 7.992-8.412 8.053h-4.335V19.741zm2.4 14.157h1.385c4.3 0 6.545-1.641 6.545-6.042-.011-3.867-2.237-6.083-6.32-6.083-.79 0-1.61.02-1.61.02zM29.46 35.919a15.243 15.243 0 0 1-.112-1.631 4.36 4.36 0 0 1-4 1.857c-2.493 0-4.3-1.221-4.3-3.437 0-2.554 2.442-3.395 5.612-3.826.79-.113 1.672-.205 2.441-.267 0-2.349-1.3-3.057-2.667-3.057a2.228 2.228 0 0 0-2.359 2.206h-2.216c0-2.411 1.9-4.032 4.626-4.032s4.832 1.128 4.832 5.478v2.308a24.571 24.571 0 0 0 .3 4.411H29.46zm-5.95-3.242c0 1.108.9 1.806 2.35 1.806 2.123 0 3.262-1.293 3.262-3.6a5.183 5.183 0 0 1 .02-.636c-3.867.399-5.632.779-5.632 2.43z" fill="#231f20"/>
</svg>
