<svg xmlns="http://www.w3.org/2000/svg" width="120" height="60">
    <defs>
        <radialGradient id="a" cx="15.498" cy="23.958" r="59.091" gradientTransform="matrix(.95 0 0 .95 28.177 -7.361)" gradientUnits="userSpaceOnUse">
            <stop offset="0" stop-color="#fff"/>
            <stop offset=".5" stop-color="#4c6b97"/>
            <stop offset="1" stop-color="#231f20"/>
        </radialGradient>
    </defs>
    <ellipse cx="60" cy="30" rx="42.772" ry="22.5" fill="url(#a)"/>
    <ellipse cx="60" cy="30" rx="41.102" ry="20.829" fill="#6181b6"/>
    <g fill="#fff">
        <path d="M68.326 36.732l2.039-10.492c.46-2.369.077-4.135-1.137-5.252-1.176-1.08-3.173-1.605-6.1-1.605h-3.536l1.011-5.2a.67.67 0 0 0-.656-.8h-4.874a.669.669 0 0 0-.656.541l-2.165 11.14a6.267 6.267 0 0 0-1.458-3.22c-1.429-1.636-3.69-2.466-6.72-2.466h-9.446a.668.668 0 0 0-.656.541L29.59 42.472a.668.668 0 0 0 .656.8h4.912a.668.668 0 0 0 .656-.541l1.06-5.454h3.656a15.781 15.781 0 0 0 4.789-.618 9.369 9.369 0 0 0 3.515-2.105 10.829 10.829 0 0 0 2.077-2.578l-.876 4.5a.668.668 0 0 0 .656.8h4.873a.668.668 0 0 0 .656-.541l2.405-12.377h3.344c1.425 0 1.842.284 1.956.406s.317.5.077 1.74l-1.939 9.976a.669.669 0 0 0 .656.8h4.951a.668.668 0 0 0 .656-.548zm-22.593-8.669a5.348 5.348 0 0 1-1.714 3.337 6.639 6.639 0 0 1-4.017.98h-2.177l1.574-8.1h2.814c2.068 0 2.9.442 3.236.813.463.512.562 1.54.284 2.97zM89.165 21.849c-1.429-1.636-3.69-2.466-6.72-2.466H73a.67.67 0 0 0-.657.541l-4.382 22.548a.668.668 0 0 0 .656.8h4.912a.668.668 0 0 0 .656-.541l1.06-5.454H78.9a15.777 15.777 0 0 0 4.789-.618 9.369 9.369 0 0 0 3.515-2.105 10.469 10.469 0 0 0 3.288-5.888c.56-2.876.113-5.166-1.327-6.817zm-5.094 6.214a5.348 5.348 0 0 1-1.714 3.337 6.639 6.639 0 0 1-4.017.98h-2.177l1.574-8.1h2.814c2.068 0 2.9.442 3.236.813.463.512.562 1.54.284 2.97z"/>
    </g>
    <g fill="#000004">
        <path d="M42.213 23.61q2.8 0 3.732 1.033t.444 3.547a5.934 5.934 0 0 1-1.963 3.737A7.206 7.206 0 0 1 40 33.047h-2.986l1.834-9.437zM30.246 42.6h4.912l1.165-6h4.207a15.076 15.076 0 0 0 4.582-.585 8.684 8.684 0 0 0 3.27-1.962 9.789 9.789 0 0 0 3.084-5.523q.78-4.01-1.175-6.246t-6.217-2.238h-9.446zM55.073 14.057h4.874l-1.165 5.994h4.341q4.1 0 5.653 1.43t.933 4.631L67.67 36.6h-4.951l1.939-9.977a2.71 2.71 0 0 0-.244-2.322 3.427 3.427 0 0 0-2.445-.619h-3.9L55.564 36.6h-4.873zM80.551 23.61q2.8 0 3.732 1.033t.444 3.547a5.934 5.934 0 0 1-1.963 3.737 7.206 7.206 0 0 1-4.424 1.12h-2.988l1.834-9.437zM68.584 42.6H73.5l1.165-6h4.207a15.076 15.076 0 0 0 4.582-.585 8.684 8.684 0 0 0 3.27-1.962 9.789 9.789 0 0 0 3.076-5.518q.78-4.01-1.175-6.246t-6.217-2.238h-9.442z"/>
    </g>
</svg>
