<svg xmlns="http://www.w3.org/2000/svg" width="120" height="60">
    <path d="M27.677 30v-8.128h-6.214l-3.336-3.337v-6.208H10v8.127h6.215l3.333 3.332v4.3l-3.334 3.334H10v8.127h8.127v-6.213L21.461 30zM12.709 15.036h2.709v2.709h-2.709zm2.709 21.8h-2.709v-2.709h2.709z" fill="#ffae1a"/>
    <g fill="#222">
        <path d="M36.67 47.673h-3.581V30h3.581v1.068a4.448 4.448 0 0 1 3.235-1.357c3.755 0 5.892 3.119 5.892 6.758S43.66 43.2 39.905 43.2a4.448 4.448 0 0 1-3.235-1.357zm0-9.1a2.712 2.712 0 0 0 2.426 1.5c1.935 0 3.091-1.559 3.091-3.61 0-2.079-1.156-3.639-3.091-3.639a2.733 2.733 0 0 0-2.426 1.5zM58.793 42.908h-3.581v-1.184a4.678 4.678 0 0 1-3.466 1.476c-2.888 0-4.534-1.906-4.534-4.765V30h3.581v7.711c0 1.357.664 2.282 2.08 2.282a2.293 2.293 0 0 0 2.31-1.791V30h3.61zM64.743 47.673h-3.581V30h3.581v1.068a4.444 4.444 0 0 1 3.235-1.357c3.754 0 5.891 3.119 5.891 6.758S71.732 43.2 67.978 43.2a4.444 4.444 0 0 1-3.235-1.357zm0-9.1a2.712 2.712 0 0 0 2.426 1.5c1.935 0 3.09-1.559 3.09-3.61 0-2.079-1.155-3.639-3.09-3.639a2.732 2.732 0 0 0-2.426 1.5zM79.01 47.673h-3.581V30h3.581v1.068a4.448 4.448 0 0 1 3.235-1.357c3.755 0 5.892 3.119 5.892 6.758S86 43.2 82.245 43.2a4.448 4.448 0 0 1-3.235-1.357zm0-9.1a2.714 2.714 0 0 0 2.426 1.5c1.936 0 3.091-1.559 3.091-3.61 0-2.079-1.155-3.639-3.091-3.639a2.734 2.734 0 0 0-2.426 1.5zM100.989 38.691c-.462 2.744-2.484 4.5-5.719 4.5-3.754.009-6.27-2.738-6.27-6.724 0-3.9 2.6-6.758 6.21-6.758 3.783 0 5.863 2.628 5.863 6.411v1.1h-8.604c.116 1.935 1.213 3.09 2.8 3.09a2.22 2.22 0 0 0 2.4-1.617zm-8.433-3.639h5a2.259 2.259 0 0 0-2.31-2.426 2.653 2.653 0 0 0-2.69 2.426zM103.415 32.886h-1.964V30h1.964v-3.5h3.552V30h2.833v2.888h-2.831v5.661a1.313 1.313 0 0 0 1.473 1.472 3.071 3.071 0 0 0 1.56-.433v3.177a5.432 5.432 0 0 1-2.311.405c-2.628 0-4.274-1.3-4.274-4.159z"/>
    </g>
</svg>
