<svg xmlns="http://www.w3.org/2000/svg" width="120" height="60">
    <path d="M64.731 23.934a1.507 1.507 0 0 1-1.5 1.5 2.705 2.705 0 0 0-1.7.537 4.254 4.254 0 0 0-1.3 1.357A8.663 8.663 0 0 0 59.08 29.7v5.368a1.538 1.538 0 0 1-1.554 1.5 1.507 1.507 0 0 1-1.5-1.5V23.934a1.483 1.483 0 0 1 1.5-1.47 1.515 1.515 0 0 1 1.554 1.47v.2a3.759 3.759 0 0 1 .594-.566 6.2 6.2 0 0 1 3.56-1.1 1.466 1.466 0 0 1 1.5 1.47zM63.9 29.5a7 7 0 0 1 6.9-7.063 6.759 6.759 0 0 1 6.81 6.555v.141a.759.759 0 0 1-.029.254 1.362 1.362 0 0 1-1.469 1.131h-8.988a3.7 3.7 0 0 0 .96 1.864 4.372 4.372 0 0 0 2.716 1.272 4.62 4.62 0 0 0 2.938-.707 1.6 1.6 0 0 1 2.12-.085 1.293 1.293 0 0 1 0 1.837 7.145 7.145 0 0 1-5.058 1.865 7.013 7.013 0 0 1-6.9-7.064zm3.079-1.385h8a4.621 4.621 0 0 0-4.182-3 3.95 3.95 0 0 0-3.815 3.001zM92 35.039a1.538 1.538 0 0 1-1.526 1.526 1.521 1.521 0 0 1-1.5-1.215 6.9 6.9 0 0 1-3.843 1.215 7.067 7.067 0 0 1 0-14.128 6.692 6.692 0 0 1 3.786 1.186v-5.311a1.54 1.54 0 0 1 3.08 0v16.727zm-6.866-9.522a3.656 3.656 0 0 0-2.656 1.158 4.1 4.1 0 0 0 0 5.651 3.657 3.657 0 0 0 2.656 1.159 3.611 3.611 0 0 0 2.656-1.159 4.1 4.1 0 0 0 0-5.651 3.614 3.614 0 0 0-2.655-1.158zM97.377 18.905a1.525 1.525 0 0 1-1.525 1.554 1.543 1.543 0 0 1-1.526-1.554v-.594a1.519 1.519 0 0 1 1.526-1.525 1.5 1.5 0 0 1 1.525 1.525v.594zm0 5.114v11.02a1.5 1.5 0 0 1-1.525 1.526 1.52 1.52 0 0 1-1.526-1.526v-11.02a1.509 1.509 0 0 1 1.526-1.554 1.492 1.492 0 0 1 1.525 1.554zM99.319 32.522a1.47 1.47 0 0 1 2.119-.226 5.188 5.188 0 0 0 3.108 1.244 3.768 3.768 0 0 0 1.922-.54 1.158 1.158 0 0 0 .508-.848.421.421 0 0 0-.085-.283c-.028-.084-.141-.2-.367-.338a6.546 6.546 0 0 0-2.26-.792h-.029a10.824 10.824 0 0 1-2.458-.734 4.729 4.729 0 0 1-1.95-1.639 3.433 3.433 0 0 1-.48-1.78 3.968 3.968 0 0 1 1.667-3.108 6.081 6.081 0 0 1 3.476-1.046 7.269 7.269 0 0 1 4.238 1.554 1.561 1.561 0 0 1 .452 2.091 1.5 1.5 0 0 1-2.091.4 4.843 4.843 0 0 0-2.6-1.046 2.877 2.877 0 0 0-1.7.509.86.86 0 0 0-.451.65.307.307 0 0 0 .056.226.762.762 0 0 0 .311.282 5.754 5.754 0 0 0 2.063.678l.028.029h.028a10.161 10.161 0 0 1 2.628.819 4.388 4.388 0 0 1 2.006 1.667 3.66 3.66 0 0 1 .542 1.864 4.075 4.075 0 0 1-1.78 3.277 6.425 6.425 0 0 1-3.673 1.131 8.208 8.208 0 0 1-5.03-1.95 1.508 1.508 0 0 1-.2-2.091z" fill="#636466"/>
    <path d="M45.737 38.642c-1.984 1.035-12.267 5.263-14.456 6.4s-3.4 1.13-5.135.3S13.475 40.1 11.5 39.161c-.986-.471-1.5-.869-1.5-1.244v-3.76s14.246-3.1 16.546-3.926 3.1-.855 5.055-.138S45.26 32.921 47.2 33.63v3.706c0 .372-.446.78-1.457 1.306z" fill="#a41e11"/>
    <path d="M45.737 34.881c-1.984 1.035-12.267 5.263-14.456 6.4s-3.4 1.13-5.135.3S13.475 36.342 11.5 35.4s-2.013-1.591-.076-2.349 12.822-5.028 15.122-5.851 3.1-.855 5.055-.138 12.178 4.785 14.112 5.494 2.009 1.293.024 2.327z" fill="#d82c20"/>
    <path d="M45.737 32.511c-1.984 1.035-12.267 5.263-14.456 6.4s-3.4 1.13-5.135.3S13.475 33.972 11.5 33.03c-.986-.471-1.5-.868-1.5-1.244v-3.76s14.246-3.1 16.546-3.926 3.1-.855 5.055-.138S45.26 26.79 47.2 27.5v3.707c-.006.37-.452.778-1.463 1.304z" fill="#a41e11"/>
    <path d="M45.737 28.751c-1.984 1.034-12.267 5.262-14.456 6.4s-3.4 1.13-5.135.3-12.671-5.24-14.646-6.182-2.013-1.59-.076-2.349 12.818-5.028 15.118-5.853 3.1-.855 5.055-.138 12.178 4.785 14.112 5.494 2.009 1.293.024 2.328z" fill="#d82c20"/>
    <path d="M45.737 26.153c-1.984 1.035-12.267 5.263-14.456 6.4s-3.4 1.13-5.135.3-12.671-5.239-14.646-6.181c-.982-.472-1.5-.872-1.5-1.244v-3.76s14.246-3.1 16.546-3.926 3.1-.855 5.055-.138S45.26 20.432 47.2 21.141v3.706c0 .372-.446.78-1.457 1.306z" fill="#a41e11"/>
    <path d="M45.737 22.392c-1.984 1.035-12.267 5.263-14.456 6.4s-3.4 1.13-5.135.3-12.671-5.239-14.646-6.181-2.013-1.591-.076-2.349 12.818-5.028 15.118-5.853 3.1-.855 5.055-.137 12.178 4.785 14.112 5.493 2.009 1.293.024 2.327z" fill="#d82c20"/>
    <path fill="#fff" d="M33.471 18.772l-3.223.334-.721 1.736-1.165-1.937-3.722-.335 2.777-1.001-.833-1.537 2.6 1.017 2.451-.803-.663 1.59 2.499.936zM29.335 27.194l-6.015-2.495 8.619-1.323-2.604 3.818z"/>
    <ellipse cx="20.995" cy="21.522" rx="4.607" ry="1.786" fill="#fff"/>
    <path fill="#7a0c00" d="M37.28 19.246l5.101 2.016-5.096 2.014-.005-4.03z"/>
    <path fill="#ad2115" d="M31.637 21.478l5.643-2.232.005 4.03-.554.216-5.094-2.014z"/>
</svg>
