<svg xmlns="http://www.w3.org/2000/svg" width="120" height="60">
    <path d="M22.732 44.255l-1.083-.1a23.463 23.463 0 0 0-2.068-10.591c-2.38-5.22-5.136-6.33-5.164-6.341l.194-.518.082-.528a46.039 46.039 0 0 1 10.428 3.133 45.644 45.644 0 0 1 7.642 4.116l-.641.878a45.79 45.79 0 0 0-7.444-4 41.711 41.711 0 0 0-5.553-1.988 35.21 35.21 0 0 1 4.046 2.789 23.1 23.1 0 0 1 6.688 9.918l-1.035.332c-.019-.059-1.93-5.889-6.331-9.4a33.978 33.978 0 0 0-4.406-2.979 19.521 19.521 0 0 1 2.483 4.137 24.115 24.115 0 0 1 2.162 11.142z" fill="#626366"/>
    <path d="M16.246 26.61A1.616 1.616 0 1 1 14.631 25a1.616 1.616 0 0 1 1.615 1.615z" fill="#f99d33"/>
    <path d="M23.526 23.6a1.616 1.616 0 1 1-1.616-1.62 1.616 1.616 0 0 1 1.616 1.62zM30.763 26.654a1.616 1.616 0 1 1-1.616-1.616 1.616 1.616 0 0 1 1.616 1.616zM33.778 33.89a1.616 1.616 0 1 1-1.615-1.615 1.616 1.616 0 0 1 1.615 1.615zM30.763 41.127a1.616 1.616 0 1 1-1.616-1.615 1.616 1.616 0 0 1 1.616 1.615zM23.526 44.143a1.616 1.616 0 1 1-1.616-1.616 1.616 1.616 0 0 1 1.616 1.616zM16.246 41.17a1.616 1.616 0 1 1-1.615-1.615 1.616 1.616 0 0 1 1.615 1.615zM13.231 33.89a1.616 1.616 0 1 1-1.615-1.615 1.616 1.616 0 0 1 1.615 1.615zM37.645 23.148H42.3v2.723a5.8 5.8 0 0 1 2-2.445 4.839 4.839 0 0 1 2.742-.835 5.075 5.075 0 0 1 2.207.557l-1.689 4.671a3.741 3.741 0 0 0-1.571-.478 2.507 2.507 0 0 0-2.127 1.551q-.855 1.551-.855 6.083l.02 1.054v8.746h-5.382V23.148M54 14.242a3.3 3.3 0 0 1 2.445 1.034 3.553 3.553 0 0 1 .02 4.989 3.309 3.309 0 0 1-2.425 1.014 3.388 3.388 0 0 1-2.485-1.034 3.534 3.534 0 0 1-1.01-2.545A3.462 3.462 0 0 1 54 14.242m-2.723 8.906h5.446v21.627h-5.442V23.148M77.638 23.148h5.407v21.627h-5.407v-2.286a10.762 10.762 0 0 1-3.2 2.186 8.991 8.991 0 0 1-3.459.656 9.655 9.655 0 0 1-7.256-3.24A11.368 11.368 0 0 1 60.663 34a11.611 11.611 0 0 1 2.962-8.209 9.439 9.439 0 0 1 7.2-3.2 9.155 9.155 0 0 1 3.657.735 9.965 9.965 0 0 1 3.16 2.207v-2.385m-5.7 4.452a5.5 5.5 0 0 0-4.195 1.789 6.366 6.366 0 0 0-1.669 4.553 6.487 6.487 0 0 0 1.69 4.611 5.543 5.543 0 0 0 4.194 1.808 5.637 5.637 0 0 0 4.254-1.768 6.529 6.529 0 0 0 1.69-4.672 6.3 6.3 0 0 0-1.69-4.571 5.688 5.688 0 0 0-4.274-1.75M88.651 14.799h5.427v17.274l7.991-8.925h6.798l-9.303 10.376L110 44.775h-6.739l-9.183-9.959v9.959h-5.427V14.799" fill="#626366"/>
</svg>
