<svg xmlns="http://www.w3.org/2000/svg" width="120" height="60">
    <path d="M41.99 37.272l1.249-2.9a8.324 8.324 0 0 0 4.916 1.528c1.309 0 2.135-.5 2.135-1.27-.02-2.135-7.836-.463-7.9-5.822-.017-2.716 2.4-4.808 5.825-4.808a8.957 8.957 0 0 1 5.52 1.652l-1.169 2.958a8.814 8.814 0 0 0-4.552-1.45c-1.068 0-1.773.5-1.773 1.148.02 2.095 7.9.947 7.977 6.063 0 2.78-2.357 4.735-5.741 4.735a11.03 11.03 0 0 1-6.487-1.834M89.915 33.324a3.606 3.606 0 1 1 0-3.546l3.445-1.913a7.555 7.555 0 1 0 0 7.373zM55.951 17.732h4.311v21.092h-4.311zM95.052 17.732v21.092h4.311v-6.326l5.117 6.326H110l-6.507-7.515 6.024-7.01h-5.278l-4.876 5.822V17.732h-4.311zM73.074 33.364a3.974 3.974 0 0 1-3.364 1.793 3.606 3.606 0 1 1 0-7.212 3.976 3.976 0 0 1 3.364 1.855zm0-9.065v1.712A5.08 5.08 0 0 0 68.783 24c-3.787 0-6.768 3.344-6.768 7.534s2.985 7.572 6.768 7.572a5.078 5.078 0 0 0 4.291-2.015V38.8h4.311V24.3z"/>
    <g>
        <g fill="#e01e5a">
            <path d="M15.338 33.344a2.659 2.659 0 1 1-2.659-2.659h2.659zM16.668 33.344a2.659 2.659 0 1 1 5.318 0v6.648a2.659 2.659 0 0 1-5.318 0z"/>
        </g>
        <g fill="#36c5f0">
            <path d="M19.327 22.667a2.659 2.659 0 1 1 2.659-2.659v2.659zM19.327 24.017a2.659 2.659 0 1 1 0 5.318h-6.668a2.659 2.659 0 0 1 0-5.318z"/>
        </g>
        <g fill="#2eb67d">
            <path d="M29.984 26.676a2.659 2.659 0 1 1 2.659 2.659h-2.659zM28.654 26.676a2.659 2.659 0 0 1-5.318 0v-6.668a2.659 2.659 0 0 1 5.318 0z"/>
        </g>
        <g fill="#ecb22e">
            <path d="M26 37.333a2.659 2.659 0 1 1-2.659 2.659v-2.659zM26 36a2.659 2.659 0 0 1 0-5.318h6.668a2.659 2.659 0 1 1 0 5.318z"/>
        </g>
    </g>
</svg>
