<svg xmlns="http://www.w3.org/2000/svg" width="120" height="60">
    <g fill="#26222f">
        <path d="M33.4 38.566a11.906 11.906 0 0 0-3.461-1.139 21.527 21.527 0 0 0-3.769-.307 18.054 18.054 0 0 1-3.067-.263 8.377 8.377 0 0 1-2.673-.92 5.67 5.67 0 0 1-1.884-1.8 5.4 5.4 0 0 1-.7-2.936 5.675 5.675 0 0 1 .789-2.717 5.849 5.849 0 0 1 1.8-1.8 9.1 9.1 0 0 1 2.586-1.008 15.418 15.418 0 0 1 5.126-.175 8.021 8.021 0 0 1 2.016.526 6.421 6.421 0 0 1 1.8.964 6.492 6.492 0 0 1 1.4 1.489l.219.351 1.665-.7-.35-.482a9.478 9.478 0 0 0-1.49-1.709 6.711 6.711 0 0 0-1.928-1.271 9.726 9.726 0 0 0-2.41-.788A15.946 15.946 0 0 0 26 23.625a15.062 15.062 0 0 0-3.374.394 11.248 11.248 0 0 0-3.2 1.227 7.17 7.17 0 0 0-2.41 2.322 6.58 6.58 0 0 0-.921 3.549 7.259 7.259 0 0 0 .877 3.681 6.562 6.562 0 0 0 2.278 2.366 9.348 9.348 0 0 0 3.2 1.227 20.173 20.173 0 0 0 3.681.35 26.548 26.548 0 0 1 3.154.22 9.144 9.144 0 0 1 2.936.876 6.017 6.017 0 0 1 2.147 1.753 4.721 4.721 0 0 1 .789 2.892 4.62 4.62 0 0 1-.789 2.716 6.428 6.428 0 0 1-2.059 1.84 9.588 9.588 0 0 1-2.849 1.052 15.405 15.405 0 0 1-3.111.351 13.168 13.168 0 0 1-5-.964 11.573 11.573 0 0 1-4.206-2.848l-.307-.351-1.314 1.139.35.351a16.3 16.3 0 0 0 4.382 3.067 13.542 13.542 0 0 0 6.091 1.314 16.128 16.128 0 0 0 3.461-.394 12.774 12.774 0 0 0 3.418-1.271 8.516 8.516 0 0 0 2.629-2.366 6.281 6.281 0 0 0 1.051-3.68 7.01 7.01 0 0 0-.964-3.725 8.184 8.184 0 0 0-2.54-2.147zM56.276 34.36a11.053 11.053 0 0 0-3.155-2.5A8.654 8.654 0 0 0 49 30.9a9.217 9.217 0 0 0-3.9.877 9.793 9.793 0 0 0-3.155 2.366A11.559 11.559 0 0 0 39.8 37.6a11.119 11.119 0 0 0-.788 4.119 12.064 12.064 0 0 0 .7 3.944 11.19 11.19 0 0 0 2.015 3.417 10.21 10.21 0 0 0 3.155 2.454 9.015 9.015 0 0 0 4.075.964 10.024 10.024 0 0 0 3.944-.92 10.47 10.47 0 0 0 3.154-2.366 10.89 10.89 0 0 0 2.1-3.418 10.541 10.541 0 0 0 .745-4.075 10.9 10.9 0 0 0-.7-3.856 9.482 9.482 0 0 0-1.924-3.503zM49 50.747A7.207 7.207 0 0 1 45.759 50a8.1 8.1 0 0 1-2.541-2.015 8.735 8.735 0 0 1-1.709-2.885 11.323 11.323 0 0 1-.7-3.418 9.535 9.535 0 0 1 .57-3.242 10.181 10.181 0 0 1 1.664-2.94 8.716 8.716 0 0 1 2.629-2.1A7.045 7.045 0 0 1 49 32.607a7.158 7.158 0 0 1 3.2.745 9.153 9.153 0 0 1 2.629 2.016 9.643 9.643 0 0 1 1.752 2.891 9.072 9.072 0 0 1 .658 3.374 9.565 9.565 0 0 1-.57 3.243 10.207 10.207 0 0 1-1.665 2.936 8.716 8.716 0 0 1-2.629 2.1 6.766 6.766 0 0 1-3.375.835zM68.019 50.265c-.307.088-.57.132-.789.176s-.482.087-.745.131a3.993 3.993 0 0 1-.7.044A1.474 1.474 0 0 1 64.469 50a2.041 2.041 0 0 1-.482-1.314V23.1h-1.752v25.544a3.855 3.855 0 0 0 .92 2.541 3.2 3.2 0 0 0 2.629 1.1 8.4 8.4 0 0 0 1.051-.044c.307-.044.614-.088.877-.131s.569-.088.92-.176l.613-.131-.788-1.621zM75.555 32.651a10.478 10.478 0 0 0-2.41 2.41v-3.856h-1.753v20.9h1.753V39.092a10.4 10.4 0 0 1 1.008-2.366 8.27 8.27 0 0 1 1.533-1.926 8.552 8.552 0 0 1 2.1-1.315 8.269 8.269 0 0 1 2.629-.569l.482-.044v-1.711h-.482a8.633 8.633 0 0 0-4.86 1.49z"/>
    </g>
    <g fill="#da4326">
        <path d="M100.487 12.145l-14.46 15.642 18.184-8.369a14.307 14.307 0 0 0-3.724-7.273zM89.752 7.5A14.314 14.314 0 0 0 84.1 8.639l-1.929 16.344 9.684-17.308a10.786 10.786 0 0 0-2.103-.175zM104.343 20.3l-17.22 9.639 16.168-1.928a14.986 14.986 0 0 0 1.183-5.784 13.864 13.864 0 0 0-.131-1.927zM97.989 34.4a15.183 15.183 0 0 0 4.645-5.083L87.517 32.3zM92.775 7.807l-8.413 18.271 15.643-14.459a15.023 15.023 0 0 0-7.23-3.812zM91.022 36.857a14.449 14.449 0 0 0 4.6-1.139l-8.5-1.008zM76.344 16.176a14.2 14.2 0 0 0-1.227 4.732l2.283 4.075zM82.829 9.209a14.627 14.627 0 0 0-5.171 4.644l2.147 10.736z"/>
    </g>
</svg>
