<svg xmlns="http://www.w3.org/2000/svg" width="120" height="60">
    <path d="M20.673 33.131A4.078 4.078 0 0 1 20.252 35a4.147 4.147 0 0 1-1.177 1.43 5.675 5.675 0 0 1-1.795.934 7.462 7.462 0 0 1-2.28.328 8.131 8.131 0 0 1-2.654-.4A8.048 8.048 0 0 1 10 35.916l1.29-2.116a8.4 8.4 0 0 0 1.691 1.14 3.521 3.521 0 0 0 1.58.374 2.313 2.313 0 0 0 1.551-.5 1.671 1.671 0 0 0 .589-1.345 2.14 2.14 0 0 0-.1-.683 1.963 1.963 0 0 0-.392-.644 5.684 5.684 0 0 0-.823-.711q-.495-.392-1.28-.934-.607-.468-1.178-.935a8.749 8.749 0 0 1-1.037-.934 4.358 4.358 0 0 1-.757-1.15 3.5 3.5 0 0 1-.309-1.467 3.745 3.745 0 0 1 .393-1.7 3.95 3.95 0 0 1 1.093-1.29 4.954 4.954 0 0 1 1.627-.841 6.751 6.751 0 0 1 2.056-.3 8.215 8.215 0 0 1 2.308.29 7.645 7.645 0 0 1 2.037.934l-1.177 1.869a4.347 4.347 0 0 0-2.533-.841 2.073 2.073 0 0 0-1.336.421 1.3 1.3 0 0 0-.524 1.056 1.523 1.523 0 0 0 .468 1.084 15.274 15.274 0 0 0 1.607 1.355q1.149.851 1.869 1.477a8.353 8.353 0 0 1 1.2 1.2 3.357 3.357 0 0 1 .607 1.131 4.544 4.544 0 0 1 .168 1.271M34 29.57a6.724 6.724 0 0 0-1-3.906 3.158 3.158 0 0 0-2.729-1.43 3.335 3.335 0 0 0-2.878 1.523 7.093 7.093 0 0 0-1.066 4.122 6.691 6.691 0 0 0 1.037 3.99 3.348 3.348 0 0 0 2.87 1.449 2.8 2.8 0 0 0 1.8-.561 4.187 4.187 0 0 0 1.166-1.449 6.663 6.663 0 0 0 .626-1.869 10.659 10.659 0 0 0 .187-1.869m4.215-.149a9.466 9.466 0 0 1-.542 3.271 8.225 8.225 0 0 1-1.518 2.608A6.746 6.746 0 0 1 31 37.654a6.661 6.661 0 0 1-1.3-.121 4.284 4.284 0 0 1-1.15-.412 5.8 5.8 0 0 1-1.074-.738 10.612 10.612 0 0 1-1.1-1.121v9.57h-3.9V22.224h3.878v2.2a6.948 6.948 0 0 1 2.318-1.944 6.338 6.338 0 0 1 2.869-.617 6.428 6.428 0 0 1 2.7.561 6.313 6.313 0 0 1 2.112 1.542 6.959 6.959 0 0 1 1.374 2.383 9.339 9.339 0 0 1 .486 3.075M39.935 15.168h3.972v22.121h-3.972zM56.916 37.29v-2.019a7.477 7.477 0 0 1-2.355 1.869 6.631 6.631 0 0 1-2.8.561 5.907 5.907 0 0 1-3-.71 4.046 4.046 0 0 1-1.766-2.1 3.255 3.255 0 0 1-.225-.692q-.074-.364-.14-.832a10.7 10.7 0 0 1-.075-1.074V22.2h3.972v8.636a10.972 10.972 0 0 0 .1 1.747 3.381 3.381 0 0 0 .383 1.094 2.551 2.551 0 0 0 2.458 1.271 3.094 3.094 0 0 0 3.094-1.869A4.316 4.316 0 0 0 56.86 32a11.7 11.7 0 0 0 .093-1.673V22.2h3.972v15.09zM74.065 37.29v-8.654a10.754 10.754 0 0 0-.1-1.748 3.388 3.388 0 0 0-.374-1.084 2.561 2.561 0 0 0-2.458-1.262 3.74 3.74 0 0 0-1.925.467 2.806 2.806 0 0 0-1.2 1.374 4.253 4.253 0 0 0-.289 1.1 13.693 13.693 0 0 0-.075 1.645v8.131h-4.008V22.224h4.009v2.019A7.466 7.466 0 0 1 70 22.374a6.613 6.613 0 0 1 2.8-.561 5.725 5.725 0 0 1 3.009.738 4.2 4.2 0 0 1 1.766 2.094c.085.224.15.448.215.682a6.345 6.345 0 0 1 .15.794 10.012 10.012 0 0 1 .075 1.066v10.056zM90.794 37.589l-6-8.318v8.019h-4.009V15.168h4.009v12.991h.421l5.336-6.178 3.01 1.29-5.122 5.486 6.066 7.542-3.711 1.29z"/>
    <path fill="#97999b" d="M97.944 36.879v-2.655l9.346-4.598-9.346-4.551v-2.711L110 28.421v2.467l-12.056 5.991zM99.112 18.467a1.355 1.355 0 1 1-1.374 1.346 1.337 1.337 0 0 1 1.318-1.355h.028zm0 .215a1.113 1.113 0 0 0-1.084 1.14 1.084 1.084 0 1 0 2.168 0 1.113 1.113 0 0 0-1.074-1.149h-.01zm-.252 1.925h-.243v-1.514a2.806 2.806 0 0 1 .43 0 .8.8 0 0 1 .467.113.361.361 0 0 1 .14.308.374.374 0 0 1-.3.365c.131 0 .224.14.252.364a1.269 1.269 0 0 0 .094.374h-.252a1.121 1.121 0 0 1-.1-.393.281.281 0 0 0-.3-.265h-.188zm0-.831h.177c.2 0 .365-.075.365-.262s-.1-.224-.374-.224h-.168z"/>
</svg>
