<svg xmlns="http://www.w3.org/2000/svg" width="120" height="60">
    <path d="M27.826 47.347a17.352 17.352 0 0 1-14.547-26.8.478.478 0 0 0 .044-.44 18.453 18.453 0 0 1-1.273-6.163 49.357 49.357 0 0 0 4.867 2.27.471.471 0 0 0 .176.034.476.476 0 0 0 .288-.1 17.354 17.354 0 0 1 20.889 0 .479.479 0 0 0 .466.063 49.668 49.668 0 0 0 4.866-2.27 18.441 18.441 0 0 1-1.274 6.159.48.48 0 0 0 .044.44 17.349 17.349 0 0 1-14.546 26.8z" fill="#addddd" fill-rule="evenodd"/>
    <path d="M27.826 13.131a16.732 16.732 0 0 1 10.156 3.4.953.953 0 0 0 .576.193.938.938 0 0 0 .353-.067 48.675 48.675 0 0 0 4.164-1.9 17.8 17.8 0 0 1-1.19 5.173.951.951 0 0 0 .086.877 16.869 16.869 0 1 1-28.29 0 .959.959 0 0 0 .087-.878 17.687 17.687 0 0 1-1.191-5.172 47.726 47.726 0 0 0 4.163 1.9.942.942 0 0 0 .353.067.954.954 0 0 0 .577-.193 16.727 16.727 0 0 1 10.156-3.4m0-.957a17.755 17.755 0 0 0-10.733 3.592 50 50 0 0 1-5.537-2.635 19.2 19.2 0 0 0 1.322 7.151 17.827 17.827 0 1 0 29.9 0 19.211 19.211 0 0 0 1.322-7.151 50 50 0 0 1-5.538 2.635 17.75 17.75 0 0 0-10.732-3.592z" fill="#231f20"/>
    <path fill="#fff" d="M16.341 35.145h4.305v3.109h-4.305z"/>
    <path d="M20.168 35.624v2.151h-3.347v-2.151h3.347m.958-.957h-5.263v4.066h5.263v-4.066z" fill="#231f20"/>
    <path fill="#fff" d="M22.561 35.145h4.307v6.22h-4.307z"/>
    <path d="M26.39 35.624v5.262h-3.35v-5.262h3.35m.957-.957h-5.264v7.177h5.264v-7.177z" fill="#231f20"/>
    <path fill="#fff" d="M28.783 35.145h4.307v7.177h-4.307z"/>
    <path d="M32.612 35.624v6.22h-3.35v-6.22h3.35m.957-.957h-5.264V42.8h5.264v-8.133z" fill="#231f20"/>
    <g>
        <path fill="#fff" d="M35.005 35.145h4.305v2.393h-4.305z"/>
        <path d="M38.832 35.624v1.435h-3.349v-1.435h3.349m.957-.957h-5.263v3.35h5.263v-3.35z" fill="#231f20"/>
    </g>
    <path fill="#231f20" d="M13.949 34.667h27.755v.957H13.949z"/>
    <g>
        <path d="M20.826 31.738a6.1 6.1 0 1 1 6.1-6.1 6.11 6.11 0 0 1-6.1 6.1z" fill="#fff" fill-rule="evenodd"/>
        <path d="M20.826 20.014a5.623 5.623 0 1 1-5.626 5.621 5.622 5.622 0 0 1 5.622-5.621m0-.957a6.58 6.58 0 1 0 6.58 6.578 6.587 6.587 0 0 0-6.58-6.578z" fill="#231f20"/>
        <path d="M24.749 27.517l1.234.513.128-.31-1.235-.514c-.038.106-.076.21-.127.311zm.393-1.681h1.336v-.364h-1.336v.145c0 .058.003.164 0 .219zM20.631 19.99v1.346l.2-.006.169.006V19.99zM19.31 21.6l-.51-1.232-.3.132.5 1.231a4.28 4.28 0 0 1 .31-.131zm-1.44.893l-.938-.945-.236.238.938.943c.077-.082.154-.159.236-.236zm-.994 1.376l-1.233-.513-.128.308 1.234.516c.039-.106.081-.21.127-.311zm-.392 1.6h-1.336v.364h1.336v-.219c0-.056-.002-.086 0-.142zm.265 1.734l-1.225.511.128.309 1.224-.511a4.176 4.176 0 0 1-.127-.306zm8.127-3.026l1.226-.511-.128-.311-1.225.511c.051.104.089.208.127.314zm-.884-1.451l.938-.943-.234-.238-.938.945c.079.08.159.157.234.239zm-1.368-1l.512-1.245-.308-.127-.512 1.246c.104.042.208.082.308.131zM25.286 23.093l.425-.245-.084-.146-.427.247zm-1.33-1.526l.3-.4-.131-.1-.307.4zm-1.806-.9l.127-.487-.158-.043-.131.489zm-1.886-.188v-.489h-.18v.487c.053-.007.126.009.18.005zm-1.89.626l-.246-.429-.144.082.246.427zM16.817 22.4l-.4-.309-.1.133.395.306zm-.95 1.789l-.485-.13-.041.162.48.13zm-.232 2.011h-.487v.182h.485c-.007-.051.01-.123.002-.182zm9.357-3.569l.4-.289-.1-.136-.4.292zm-1.48-1.377l.263-.429-.142-.087-.263.429zm-1.89-.7l.077-.494-.164-.027-.077.5zm-1.852.046l-.115-.482-.163.038.117.48zm-1.857.788l-.289-.4-.135.1.287.4zM16.5 22.832l-.429-.262-.087.142.427.263zm-.759 1.881l-.494-.079-.027.166.493.079zm.015 2.03l-.478.116.038.161.476-.113z" fill="#231f20" fill-rule="evenodd"/>
        <path fill="#ca2026" fill-rule="evenodd" d="M20.231 25.841l.583-5.774.583 5.774h-1.166z"/>
        <path d="M22.172 25.637a1.347 1.347 0 1 1-1.347-1.347 1.347 1.347 0 0 1 1.347 1.347z" fill="#231f20" fill-rule="evenodd"/>
    </g>
    <g>
        <path d="M34.664 31.738a6.1 6.1 0 1 1 6.1-6.1 6.11 6.11 0 0 1-6.1 6.1z" fill="#fff" fill-rule="evenodd"/>
        <path d="M34.664 20.014a5.623 5.623 0 1 1-5.624 5.621 5.623 5.623 0 0 1 5.624-5.621m0-.957a6.58 6.58 0 1 0 6.579 6.578 6.586 6.586 0 0 0-6.579-6.578z" fill="#231f20"/>
        <path d="M38.586 27.517l1.235.513.128-.31-1.234-.514c-.039.106-.081.21-.129.311zm.393-1.681h1.337v-.364h-1.337c0 .056.005.087.005.145s-.003.164-.005.219zM34.468 19.99v1.346l.2-.006.168.006V19.99zm-1.32 1.61l-.507-1.232-.31.128.51 1.235c.101-.049.203-.092.307-.131zm-1.44.893l-.938-.945-.236.238.938.943c.077-.082.154-.159.236-.236zm-.994 1.376l-1.234-.513-.128.308 1.235.516c.039-.106.081-.21.127-.311zm-.392 1.6h-1.336v.364h1.336v-.219c0-.056-.003-.086 0-.142zm.265 1.734l-1.225.511.127.309 1.225-.511a4.176 4.176 0 0 1-.127-.306zm8.128-3.026l1.224-.511-.128-.311-1.225.511c.048.104.09.208.129.314zm-.886-1.451l.938-.943-.234-.238-.937.945c.079.08.159.157.233.239zm-1.367-1l.511-1.245-.308-.127-.511 1.246c.103.042.207.082.308.131zM39.125 23.093l.423-.245-.083-.146-.427.247zm-1.332-1.526l.306-.4-.132-.1-.306.4zm-1.8-.9l.127-.487-.159-.043-.13.489zm-1.893-.185v-.492h-.18v.487c.054-.007.127.009.18.005zm-1.89.626l-.245-.429-.145.082.246.427zM30.654 22.4l-.4-.309-.1.133.395.306zm-.95 1.789l-.484-.13-.042.162.48.13zm-.231 2.011h-.487v.182h.485c-.008-.051.009-.123.002-.182zm9.357-3.569l.4-.289-.1-.136-.4.292zm-1.481-1.377l.263-.429-.142-.087-.263.429zm-1.889-.7l.077-.494-.164-.027-.078.5zm-1.853.046l-.115-.482-.161.038.115.48zm-1.855.788l-.29-.4-.134.1.286.4zm-1.416 1.444l-.429-.262-.088.142.427.263zm-.759 1.881l-.494-.079-.028.166.493.079zm.014 2.03l-.477.116.038.161.475-.113z" fill="#231f20" fill-rule="evenodd"/>
        <path fill="#ca2026" fill-rule="evenodd" d="M34.069 25.841l.582-5.774.584 5.774h-1.166z"/>
        <path d="M36.009 25.637a1.346 1.346 0 1 1-1.345-1.347 1.346 1.346 0 0 1 1.345 1.347z" fill="#231f20" fill-rule="evenodd"/>
    </g>
    <g>
        <path d="M58.791 19.516a3.833 3.833 0 0 1 2.025 2.023 3.7 3.7 0 0 1 .3 1.48v1.149a.518.518 0 0 1-.393.544l-2.748.724c-.262.081-.394-.02-.394-.3V23.17a.722.722 0 0 0-.725-.725h-.241a.722.722 0 0 0-.726.725v2.749a2.135 2.135 0 0 0 .122.575 1.37 1.37 0 0 0 .331.484l3.959 2.96a1.967 1.967 0 0 1 .619.861 5.313 5.313 0 0 1 .2.982v5.2a3.7 3.7 0 0 1-.3 1.481 3.84 3.84 0 0 1-2.025 2.024 3.682 3.682 0 0 1-1.48.3h-1.153a3.671 3.671 0 0 1-1.48-.3 3.831 3.831 0 0 1-2.025-2.024 3.7 3.7 0 0 1-.3-1.481v-2.9a.518.518 0 0 1 .393-.544l2.749-.724c.262-.08.393.02.393.3v3.716a.722.722 0 0 0 .726.725h.241a.722.722 0 0 0 .725-.725v-3.991a3.251 3.251 0 0 0-.121-.694 1.185 1.185 0 0 0-.363-.544l-3.9-2.992a2.777 2.777 0 0 1-.648-.844 2.668 2.668 0 0 1-.2-1.119v-3.626a3.7 3.7 0 0 1 .3-1.48 3.824 3.824 0 0 1 2.025-2.023 3.655 3.655 0 0 1 1.48-.3h1.149a3.666 3.666 0 0 1 1.485.3zM70.664 22.869v2.688a.373.373 0 0 1-.423.423H68.1v14.17a.375.375 0 0 1-.423.424h-2.693a.429.429 0 0 1-.287-.122.385.385 0 0 1-.136-.3V25.98h-2.115a.373.373 0 0 1-.423-.423v-2.688a.375.375 0 0 1 .423-.424h7.8a.375.375 0 0 1 .418.424zM80.332 40.15c.04.282-.081.424-.362.424h-2.75a.426.426 0 0 1-.453-.424l-.242-2.961h-1.873l-.242 2.961a.426.426 0 0 1-.453.424h-2.749c-.283 0-.4-.142-.363-.424l2.266-17.281a.441.441 0 0 1 .484-.424h3.987a.442.442 0 0 1 .484.424zm-4.049-6.345l-.574-6.677h-.242l-.573 6.677zM89.152 22.869v2.688a.372.372 0 0 1-.422.423h-2.145v14.17a.374.374 0 0 1-.422.424h-2.69a.424.424 0 0 1-.286-.122.385.385 0 0 1-.136-.3V25.98h-2.116a.373.373 0 0 1-.423-.423v-2.688a.375.375 0 0 1 .423-.424h7.8a.374.374 0 0 1 .417.424zM96.948 22.536a3.824 3.824 0 0 1 2.024 2.024 3.669 3.669 0 0 1 .3 1.482v1.147a.518.518 0 0 1-.393.544l-2.749.725c-.263.081-.393-.019-.393-.3v-1.966a.722.722 0 0 0-.726-.725h-.24a.724.724 0 0 0-.726.725v1.843a2.2 2.2 0 0 0 .121.573 1.378 1.378 0 0 0 .332.484l3.958 2.961a1.984 1.984 0 0 1 .62.861 5.5 5.5 0 0 1 .2.982v3.082a3.668 3.668 0 0 1-.3 1.481 3.824 3.824 0 0 1-2.024 2.024 3.683 3.683 0 0 1-1.481.3H94.32a3.683 3.683 0 0 1-1.481-.3 3.833 3.833 0 0 1-2.024-2.024 3.667 3.667 0 0 1-.3-1.481v-1.692a.515.515 0 0 1 .393-.544l2.75-.725c.261-.08.392.02.392.3v2.508a.724.724 0 0 0 .726.725h.24a.722.722 0 0 0 .726-.725v-1.871a3.325 3.325 0 0 0-.121-.7 1.179 1.179 0 0 0-.362-.544l-3.9-2.991a2.8 2.8 0 0 1-.651-.847 2.673 2.673 0 0 1-.2-1.117v-2.713a3.668 3.668 0 0 1 .3-1.482 3.833 3.833 0 0 1 2.024-2.024 3.684 3.684 0 0 1 1.481-.3h1.147a3.684 3.684 0 0 1 1.488.3zM106.193 19.424a3.7 3.7 0 0 1 1.481.3 3.853 3.853 0 0 1 2.025 2.026 3.718 3.718 0 0 1 .3 1.479v13.537a3.731 3.731 0 0 1-.3 1.481 3.89 3.89 0 0 1-.818 1.207 3.825 3.825 0 0 1-1.207.817 3.671 3.671 0 0 1-1.481.3h-4.532a.374.374 0 0 1-.423-.424v-20.3a.374.374 0 0 1 .423-.424zm.271 3.958a.72.72 0 0 0-.724-.725h-.967V37.34h.967a.719.719 0 0 0 .724-.725z"/>
    </g>
</svg>
