<svg xmlns="http://www.w3.org/2000/svg" width="120" height="60">
    <g>
        <path d="M16.6 34.265c.435.535.917 1.078 1.448 1.623a6.522 6.522 0 0 0-3.191 2.092 5.989 5.989 0 0 0-1.408 4.169h-2.66a38.2 38.2 0 0 1 5.811-7.884zM47.44 42.875H44.2c-7.426-3.875-13.945-6.607-20.87-7.2a13.42 13.42 0 0 1 .516-3.27l-.638-.172a14.189 14.189 0 0 0-.537 3.392q-1.081-.072-2.181-.072a9.01 9.01 0 0 0-1.7.157 23.073 23.073 0 0 1-1.734-1.922 29.5 29.5 0 0 1 13.034-7.469 15.762 15.762 0 0 0 7.415 9.2c.247-.141.489-.288.726-.443l5.86 6.308.256-.022a3.265 3.265 0 0 1 2.75 1 1.843 1.843 0 0 1 .343.513z" fill="#d1a41a"/>
        <path d="M44.581 21.776a14.167 14.167 0 0 1-7.009 12.83c-7.057-3.515-8.386-12.423-7.183-17.2.334 1.828.943 2.973 2.257 3.535a19.71 19.71 0 0 1 9.715-.084 5.413 5.413 0 0 0 1.936-3.4 25.8 25.8 0 0 1 .284 4.319z" fill="#ffdc76"/>
    </g>
    <g>
        <path d="M26.829 27.288l1.077 3.19-3.271-2.193 2.194-.997zM23.678 28.684l1.157 1.994-2.433-1.237 1.276-.757zM21.046 30.239l.558 1.994-1.675-1.156 1.117-.838zM38.874 35.583l-1.037 1.596 1.835-.838-.798-.758zM40.509 37.418l-1.675 1.276 2.313-.598-.638-.678zM36.441 20.108l1.236 2.713.798-2.752-2.034.039zM30.179 24.057l1.955 1.037-1.755.12-.2-1.157zM30.658 26.171l1.196.478-.997.28-.199-.758zM44.617 24.815l-1.595.678 1.316.199.279-.877zM43.979 26.769l-1.236.359.997.359.239-.718z"/>
    </g>
    <g>
        <path d="M29.537 29.762h3.849v.475h-3.849zM29.537 28.622h3.849v.475h-3.849zM41.291 29.762h3.849v.475h-3.849zM41.291 28.622h3.849v.475h-3.849zM39.934 25.805h-6.272v-.428h1.952a3.978 3.978 0 0 0 0-2.512.576.576 0 0 0-.539-.311 1.882 1.882 0 0 0-1.6 1.23l-.4-.15a2.308 2.308 0 0 1 2-1.507 1 1 0 0 1 .908.523 4.155 4.155 0 0 1 .072 2.727h3.426a2.78 2.78 0 0 1 2.992-1.967v.427a2.307 2.307 0 0 0-2.547 1.54h1.869v.425z"/>
        <path d="M40.215 27.917a2.356 2.356 0 0 1-.456-2.114h-.436a2.4 2.4 0 0 0 .283 1.839h-4.349a10.25 10.25 0 0 0 .69-1.839H35.5a9.079 9.079 0 0 1-.788 1.947l-.1.178 2.442 1.537-1.375.906.236.357 1.536-1.013 1.662 1.085.228-.362-1.541-.952 2.414-1.567zm-2.766 1.292l-1.806-1.138h3.53z"/>
    </g>
    <g>
        <path d="M45.3 21.26a19.143 19.143 0 0 0-.66-4.752c-1.154.439-3.254 1.86-3.73 3.313a23.117 23.117 0 0 0-7.095.09c-.376-1.564-2.262-2.76-3.686-3.434a11.4 11.4 0 0 0-.8 5.027l-.008.006a16.006 16.006 0 0 0 8.185 13.99 15.741 15.741 0 0 0 7.788-14.244zm-3.842-1.348l.051.009zm-.287-.05l.122.021zm3.411 1.9a14.167 14.167 0 0 1-7.01 12.838c-7.057-3.516-8.387-12.424-7.183-17.2.334 1.827.942 2.973 2.257 3.535a19.706 19.706 0 0 1 9.714-.084 5.41 5.41 0 0 0 1.937-3.4 25.8 25.8 0 0 1 .284 4.314z"/>
        <path d="M47.59 41.9a4.57 4.57 0 0 0-3.33-1.166c-.841-1-5.72-6.139-5.72-6.139l-.338.426 5.89 6.341.256-.022a3.276 3.276 0 0 1 2.751 1 1.887 1.887 0 0 1 .341.519H44.2c-7.425-3.874-13.944-6.606-20.87-7.2a13.483 13.483 0 0 1 .516-3.27l-.637-.173a14.212 14.212 0 0 0-.537 3.393q-1.081-.072-2.18-.073a8.939 8.939 0 0 0-1.7.158 23.6 23.6 0 0 1-1.734-1.922 29.463 29.463 0 0 1 13.13-7.492l-.149-.645a30.345 30.345 0 0 0-13.4 7.591A10.318 10.318 0 0 1 14.51 28.6a5.022 5.022 0 0 1 1.027-3.945c1.378-1.713 3.336-1.833 5.35-1.5a1.228 1.228 0 0 0 .13.81c.532.787 3.394 1.063 5.1.3-1.26-1.767-3.814-2.629-4.521-2.283a1.2 1.2 0 0 0-.533.569 11.364 11.364 0 0 0-1.892-.213 5.048 5.048 0 0 0-4.15 1.9 5.66 5.66 0 0 0-1.166 4.451 11.123 11.123 0 0 0 2.321 5.015c-.219.234-.43.466-.633.693C12.342 37.986 10 41.83 10 42.467v.33h4.226l-.074-.391a5.159 5.159 0 0 1 1.214-4.016 5.927 5.927 0 0 1 3.222-1.974 43.644 43.644 0 0 0 5.233 4.269h3.141v-.33a1.078 1.078 0 0 0-.52-.917 2.344 2.344 0 0 0-1.966-.13 4.789 4.789 0 0 1-1.128-2.984c6.816.6 13.336 3.356 20.692 7.2h4.048l.053-.265a1.727 1.727 0 0 0-.551-1.359zm-32.732-3.931a6 6 0 0 0-1.408 4.168h-2.662a38.317 38.317 0 0 1 5.812-7.884q.651.8 1.448 1.624a6.517 6.517 0 0 0-3.19 2.092z"/>
    </g>
    <g fill="#7a7a7a">
        <path d="M58.731 32.317h-3.787v-.939h8.607v.939h-3.787v10.141h-1.033zM62.847 38.843a4.032 4.032 0 0 1 .282-1.526 3.63 3.63 0 0 1 .782-1.2 3.492 3.492 0 0 1 1.2-.79 4.092 4.092 0 0 1 1.534-.282 4.028 4.028 0 0 1 1.526.282 3.537 3.537 0 0 1 2 1.995 4.27 4.27 0 0 1 0 3.052 3.537 3.537 0 0 1-2 1.995 4.028 4.028 0 0 1-1.526.282 4.092 4.092 0 0 1-1.534-.282 3.478 3.478 0 0 1-1.2-.79 3.63 3.63 0 0 1-.782-1.2 4.028 4.028 0 0 1-.282-1.536zm.939 0a3.345 3.345 0 0 0 .2 1.151 2.692 2.692 0 0 0 .571.938 2.733 2.733 0 0 0 .908.634 3.125 3.125 0 0 0 2.378 0 2.733 2.733 0 0 0 .908-.634 2.678 2.678 0 0 0 .571-.938 3.475 3.475 0 0 0 0-2.3 2.673 2.673 0 0 0-.571-.939 2.762 2.762 0 0 0-.908-.634 3.125 3.125 0 0 0-2.378 0 2.762 2.762 0 0 0-.908.634 2.688 2.688 0 0 0-.571.939 3.335 3.335 0 0 0-.2 1.149zM72.08 37.263c0-.136 0-.3-.015-.494s-.019-.388-.024-.586-.013-.384-.023-.556-.016-.3-.016-.4h.939c.011.271.018.532.024.783a2.434 2.434 0 0 0 .035.49h.047a2.542 2.542 0 0 1 .939-1.026 2.742 2.742 0 0 1 1.534-.43 2.451 2.451 0 0 1 1.314.368 2.09 2.09 0 0 1 .861 1.2 2.34 2.34 0 0 1 1.025-1.189 2.916 2.916 0 0 1 1.432-.376 3.09 3.09 0 0 1 1.377.266 2.216 2.216 0 0 1 .837.7 2.609 2.609 0 0 1 .423.993 5.686 5.686 0 0 1 .118 1.158v4.3h-.94V38.2a4.592 4.592 0 0 0-.078-.852 2.241 2.241 0 0 0-.274-.744 1.433 1.433 0 0 0-.548-.524 1.876 1.876 0 0 0-.915-.2 2.148 2.148 0 0 0-1.08.243 1.906 1.906 0 0 0-.665.618 2.526 2.526 0 0 0-.344.814 3.665 3.665 0 0 0-.1.829v4.069h-.939v-4.35a3.1 3.1 0 0 0-.368-1.612 1.232 1.232 0 0 0-1.134-.611 2.671 2.671 0 0 0-.979.18 2.118 2.118 0 0 0-.8.548 2.652 2.652 0 0 0-.532.923 3.952 3.952 0 0 0-.2 1.307v3.615h-.94zM91 41.394a3.375 3.375 0 0 1-1.2.947 3.484 3.484 0 0 1-1.455.3 4.092 4.092 0 0 1-1.534-.282 3.478 3.478 0 0 1-1.2-.79 3.646 3.646 0 0 1-.782-1.2 4.27 4.27 0 0 1 0-3.052 3.646 3.646 0 0 1 .782-1.2 3.492 3.492 0 0 1 1.2-.79 4.092 4.092 0 0 1 1.534-.282 3.359 3.359 0 0 1 1.479.329 3.894 3.894 0 0 1 1.213.923l-.751.564a3.247 3.247 0 0 0-.893-.712 2.184 2.184 0 0 0-1.048-.259 2.929 2.929 0 0 0-1.19.235 2.768 2.768 0 0 0-.907.634 2.673 2.673 0 0 0-.571.939 3.475 3.475 0 0 0 0 2.3 2.678 2.678 0 0 0 .571.938 2.739 2.739 0 0 0 .907.634 2.912 2.912 0 0 0 1.19.235 2.2 2.2 0 0 0 1.088-.274 2.85 2.85 0 0 0 .853-.728zM98.075 39.422q0 .533.008.955t.023.782q.017.361.04.673c.015.209.039.418.07.626h-.877a6.83 6.83 0 0 1-.093-1.173h-.032a2.648 2.648 0 0 1-1.009 1.033 3.164 3.164 0 0 1-1.526.328 3.678 3.678 0 0 1-.923-.117 2.418 2.418 0 0 1-.814-.376 1.931 1.931 0 0 1-.814-1.651 1.933 1.933 0 0 1 .423-1.315 2.631 2.631 0 0 1 1.04-.727 4.928 4.928 0 0 1 1.315-.313q.7-.07 1.228-.071h1.1v-.438a1.53 1.53 0 0 0-.579-1.346 2.473 2.473 0 0 0-1.456-.407 3.3 3.3 0 0 0-2.206.814l-.548-.642a3.352 3.352 0 0 1 1.283-.759 4.609 4.609 0 0 1 1.472-.258 3.288 3.288 0 0 1 2.1.618 2.392 2.392 0 0 1 .783 2zm-1.875-.594a8.254 8.254 0 0 0-1.15.078 4.012 4.012 0 0 0-1 .266 1.857 1.857 0 0 0-.712.5 1.167 1.167 0 0 0-.266.782 1.147 1.147 0 0 0 .149.587 1.31 1.31 0 0 0 .383.423 1.811 1.811 0 0 0 .524.25 2.065 2.065 0 0 0 .587.086 3.022 3.022 0 0 0 1.237-.219 2.1 2.1 0 0 0 .774-.571 1.99 1.99 0 0 0 .4-.8 3.77 3.77 0 0 0 .11-.9v-.485zM104.116 36.073h-2.066v4.711a1.017 1.017 0 0 0 .266.751 1 1 0 0 0 .736.266 2.212 2.212 0 0 0 .54-.07 3.478 3.478 0 0 0 .524-.18l.078.845a5.628 5.628 0 0 1-.61.172 2.8 2.8 0 0 1-.61.078 2.25 2.25 0 0 1-.861-.148 1.488 1.488 0 0 1-.9-.986 2.5 2.5 0 0 1-.1-.728v-4.711h-1.567v-.845h1.565v-2.082h.939v2.082h2.066z"/>
    </g>
    <path d="M55.133 28l4.345-10.386h.834L64.656 28h-1.1l-1.346-3.247h-4.664L56.215 28zm4.767-9.192l-2.135 5.135h4.215zM65.777 28V17.609h4.3a3.236 3.236 0 0 1 3.072 3.262 3.132 3.132 0 0 1-2.983 3.29h-3.38v3.833h-1.01zm1.01-4.74h3.32a2.185 2.185 0 0 0 2.019-2.384 2.254 2.254 0 0 0-2.106-2.355h-3.233v4.739zM72.582 28l4.344-10.386h.834L82.105 28h-1.1l-1.347-3.247H75L73.664 28zm4.769-9.187l-2.135 5.135h4.213zM87.02 17.549a4.079 4.079 0 0 1 3.832 2.268l-.819.5a3.267 3.267 0 0 0-3.072-1.843c-2.488 0-3.847 2.224-3.847 4.315A4.189 4.189 0 0 0 87 27.161a3.55 3.55 0 0 0 3.2-1.931l.848.438a4.536 4.536 0 0 1-4.11 2.413c-2.853 0-4.857-2.72-4.857-5.353a5.015 5.015 0 0 1 4.939-5.179zM100.677 17.609V28h-1.024v-4.862h-6.159V28h-1.008V17.609h1.008v4.622h6.159v-4.622zM110 27.087v.907h-6.977V17.609h6.846v.907h-5.837v3.744h5.091v.863h-5.091v3.965H110z" fill="#d22128"/>
</svg>
