<svg xmlns="http://www.w3.org/2000/svg" width="120" height="60">
    <path d="M85.4 32.1c-.1.888-.682 1.668-2.577 1.668-1.667 0-2.23-.66-2.23-1.441a2.634 2.634 0 0 1 .022-.27l.509-4.162c.108-.888.671-1.668 2.565-1.668 1.657 0 2.231.65 2.231 1.441a2.674 2.674 0 0 1-.022.271l-.054.487c-.022.152-.076.217-.217.217h-.639c-.151 0-.194-.086-.173-.217l.043-.314a1.364 1.364 0 0 0 .011-.206c0-.487-.357-.78-1.245-.78-.974 0-1.385.358-1.461.943l-.466 3.8a1.58 1.58 0 0 0-.01.206c0 .5.357.791 1.234.791.974 0 1.407-.357 1.472-.943l.054-.509a.2.2 0 0 1 .227-.206h.626c.163 0 .184.087.174.206l-.074.686M89.849 26.315c.141 0 .206.065.228.206l1.255 6.957c.022.13-.032.206-.173.206h-.671a.21.21 0 0 1-.227-.206l-.293-1.68h-2.284l-.714 1.68c-.055.13-.109.206-.26.206h-.628c-.152 0-.184-.076-.13-.206l2.948-6.957a.284.284 0 0 1 .281-.206h.671m-.368 2.666a15.056 15.056 0 0 1-.108-1.6c-.033.1-.3 1.149-.487 1.582l-.856 1.994h1.808zM97.113 32.1c-.1.888-.682 1.668-2.576 1.668-1.667 0-2.23-.66-2.23-1.441a2.61 2.61 0 0 1 .021-.27l.509-4.162c.108-.888.671-1.668 2.566-1.668 1.656 0 2.23.65 2.23 1.441a2.674 2.674 0 0 1-.022.271l-.054.487c-.022.152-.076.217-.216.217H96.7c-.152 0-.195-.086-.173-.217l.043-.314a1.364 1.364 0 0 0 .011-.206c0-.487-.357-.78-1.245-.78-.975 0-1.386.358-1.462.943l-.465 3.8a1.438 1.438 0 0 0-.011.206c0 .5.357.791 1.234.791.974 0 1.408-.357 1.472-.943l.055-.509c.01-.141.075-.206.227-.206h.628c.162 0 .184.087.173.206l-.076.683M99.906 29.382h2.8l.347-2.85c.021-.152.086-.217.238-.217h.66c.141 0 .184.065.163.217l-.856 6.935c-.021.152-.065.217-.2.217h-.658c-.151 0-.206-.076-.184-.217l.39-3.186H99.8l-.4 3.186c-.021.141-.064.217-.216.217h-.66c-.141 0-.206-.065-.184-.217l.855-6.935c.021-.152.086-.217.227-.217h.661c.151 0 .194.065.173.217l-.347 2.85M105.211 33.684c-.141 0-.206-.065-.184-.217l.855-6.935c.022-.152.087-.217.227-.217h3.7c.141 0 .206.055.184.206l-.065.488c-.022.152-.087.206-.227.206h-2.837L106.6 29.4h2.653c.141 0 .2.054.173.205l-.054.466c-.022.141-.087.206-.227.206h-2.653l-.314 2.5h2.956c.151 0 .216.044.2.2l-.065.5c-.022.152-.076.206-.228.206h-3.821"/>
    <g>
        <path d="M38.6 33.684a.28.28 0 0 1-.314-.271L37.1 26.586c-.033-.173.043-.27.238-.27h1.008c.2 0 .249.1.282.27l.6 3.684a12.69 12.69 0 0 1 .076 1.572 15.239 15.239 0 0 1 .476-1.561l1.507-3.695c.075-.173.162-.27.357-.27h.965c.184 0 .238.1.162.27l-2.861 6.827a.359.359 0 0 1-.368.271H38.6M45.846 26.316c.185 0 .26.086.293.27l1.192 6.827c.032.173-.033.271-.228.271h-.953c-.2 0-.26-.1-.293-.271l-.217-1.322h-2.015l-.542 1.322a.339.339 0 0 1-.347.271h-.9c-.184 0-.249-.1-.173-.271l2.86-6.827a.368.368 0 0 1 .369-.27h.953m-.585 3.413a17.371 17.371 0 0 1-.087-1.983 19.636 19.636 0 0 1-.563 1.972l-.52 1.214h1.376zM50.03 30.877l-.3 2.525c-.021.2-.1.282-.292.282h-.943c-.152 0-.271-.054-.238-.282l.845-6.8c.022-.2.108-.281.292-.281h2.2c1.777 0 2.482.769 2.482 1.657a2.075 2.075 0 0 1-.011.25l-.109.942a1.747 1.747 0 0 1-1.365 1.528L53.4 33.4c.054.173-.1.282-.282.282h-.932c-.173 0-.206-.13-.249-.282l-.759-2.525H50.03m.422-3.348l-.271 2.135h1.084c.748 0 1.192-.217 1.268-.759l.065-.444a1.453 1.453 0 0 0 .011-.2c0-.477-.325-.737-1.051-.737zM59.989 33.413c-.022.184-.087.271-.282.271h-.813c-.151 0-.2-.043-.249-.13l-1.658-3.587a7.567 7.567 0 0 1-.325-.888l-.531 4.334c-.021.184-.087.271-.282.271h-.856c-.2 0-.26-.087-.238-.271l.834-6.827a.266.266 0 0 1 .3-.27h.812c.131 0 .2.032.228.108l1.723 3.738a4.842 4.842 0 0 1 .271.759l.531-4.335a.261.261 0 0 1 .292-.27h.856c.2 0 .249.086.228.27l-.845 6.827M63 33.4c-.022.2-.1.282-.293.282h-.942c-.185 0-.26-.087-.239-.282l.845-6.8c.022-.2.109-.281.293-.281h.943c.2 0 .249.086.227.281L63 33.4M68.583 28.19a.624.624 0 0 0 .011-.108c0-.455-.336-.683-.986-.683-.694 0-1.084.26-1.138.791l-.011.108a1.266 1.266 0 0 0-.011.174.461.461 0 0 0 .369.455l1.788.672a1.5 1.5 0 0 1 1.116 1.408c0 .054-.011.163-.022.26l-.076.733c-.1.911-.769 1.767-2.752 1.767-1.766 0-2.438-.748-2.438-1.583a1.6 1.6 0 0 1 .021-.26l.076-.606c.022-.2.109-.282.293-.282h.91c.195 0 .249.1.228.282l-.055.411a1.667 1.667 0 0 0-.01.206c0 .455.379.661 1.072.661.726 0 1.149-.249 1.225-.791l.043-.3a1.017 1.017 0 0 0 .011-.152c0-.357-.433-.542-.824-.694l-1.506-.595a1.384 1.384 0 0 1-.932-1.268c0-.055.011-.152.022-.26l.065-.536c.108-.91.672-1.766 2.633-1.766 1.745 0 2.341.747 2.341 1.549a1.942 1.942 0 0 1-.011.217l-.043.444a.271.271 0 0 1-.3.271h-.91c-.173 0-.249-.065-.228-.271l.033-.249M72.68 29.3h2.329l.336-2.7c.022-.2.109-.281.3-.281h.943c.184 0 .239.086.217.281l-.842 6.8c-.022.2-.087.282-.271.282h-.943c-.195 0-.26-.1-.238-.282l.357-2.893h-2.34L72.17 33.4c-.022.184-.1.282-.292.282h-.943c-.184 0-.26-.087-.238-.282l.845-6.8c.021-.2.108-.281.292-.281h.943c.195 0 .249.086.228.281l-.325 2.7"/>
    </g>
    <g fill="#315ea9">
        <path d="M21.012 29.858a4.748 4.748 0 1 0 2.852-6.079 4.747 4.747 0 0 0-2.852 6.079M14.968 38.662a3.429 3.429 0 1 0 4.673-1.3 3.43 3.43 0 0 0-4.673 1.3M10.04 32.007a1.985 1.985 0 1 0 2.339-1.553 1.984 1.984 0 0 0-2.339 1.553"/>
    </g>
</svg>
