<svg xmlns="http://www.w3.org/2000/svg" width="120" height="60">
    <defs>
        <linearGradient id="a" x1="15.2" y1="24.359" x2="34.551" y2="35.531" gradientUnits="userSpaceOnUse">
            <stop offset="0" stop-color="#95ea55"/>
            <stop offset="1" stop-color="#63ac43"/>
        </linearGradient>
        <linearGradient id="b" x1="21.816" y1="26.886" x2="27.935" y2="33.004" gradientUnits="userSpaceOnUse">
            <stop offset="0" stop-color="#fff69a"/>
            <stop offset="1" stop-color="#ffc317"/>
        </linearGradient>
    </defs>
    <g>
        <path d="M71.97 28.407l-3.039-8.463a1.417 1.417 0 0 1-.1-.407.736.736 0 0 1 .754-.715.782.782 0 0 1 .755.618l2.518 7.292L75.4 19.42a.761.761 0 0 1 .733-.6h.079a.789.789 0 0 1 .774.6l2.514 7.312 2.558-7.33a.728.728 0 0 1 .716-.58.715.715 0 0 1 .736.7 1.434 1.434 0 0 1-.1.407l-3.058 8.482a.885.885 0 0 1-.814.675h-.058a.836.836 0 0 1-.815-.675l-2.5-7.192-2.518 7.192a.834.834 0 0 1-.813.675H72.8a.887.887 0 0 1-.831-.675M94.123 19.56a.752.752 0 0 1 .735-.757.744.744 0 0 1 .757.757v1.717a4.08 4.08 0 0 1 3.452-2.455.718.718 0 0 1 .739.756.738.738 0 0 1-.661.755c-1.94.233-3.529 1.689-3.529 4.579v3.4a.747.747 0 1 1-1.493 0V19.56zM104.6 29.163A4.911 4.911 0 0 1 99.694 24v-.04a4.875 4.875 0 0 1 4.714-5.163c2.905 0 4.56 2.4 4.56 5.028a.689.689 0 0 1-.685.694h-7.1a3.442 3.442 0 0 0 3.458 3.357 3.993 3.993 0 0 0 2.83-1.152.632.632 0 0 1 1.065.463.629.629 0 0 1-.23.478 4.967 4.967 0 0 1-3.7 1.5m2.907-5.74c-.153-1.806-1.179-3.379-3.137-3.379a3.4 3.4 0 0 0-3.19 3.379zM83.537 26.055v-.039c0-2.107 1.741-3.23 4.273-3.23a10.569 10.569 0 0 1 3.076.427v-.35c0-1.8-1.1-2.726-2.979-2.726a5.064 5.064 0 0 0-2.327.456.75.75 0 0 1-.269.059.663.663 0 0 1-.659-.639.617.617 0 0 1 .407-.62 6.646 6.646 0 0 1 3-.569 4.376 4.376 0 0 1 3.227 1.1 3.939 3.939 0 0 1 1.026 2.92v5.516a.708.708 0 0 1-.718.735.683.683 0 0 1-.71-.7v-.954a4.384 4.384 0 0 1-3.615 1.721c-1.857 0-3.735-1.063-3.735-3.113m7.368-.774v-.967a10.484 10.484 0 0 0-2.941-.425c-1.873 0-2.918.813-2.918 2.068V26c0 1.256 1.158 1.991 2.514 1.991 1.836 0 3.345-1.122 3.345-2.706M44.883 19.45a1.41 1.41 0 0 0-1.893-.707 1.383 1.383 0 0 0-.693 1.893l3.173 6.9c.5 1.081 1.025 1.647 2.012 1.647 1.054 0 1.514-.617 2.013-1.647 0 0 2.767-6.026 2.8-6.089a.4.4 0 0 1 .4-.257.441.441 0 0 1 .438.447v5.893a1.491 1.491 0 1 0 2.965 0v-4.825a1.483 1.483 0 0 1 1.575-1.534 1.445 1.445 0 0 1 1.513 1.534v4.822a1.48 1.48 0 0 0 1.473 1.653 1.5 1.5 0 0 0 1.494-1.653v-4.822a1.481 1.481 0 0 1 1.573-1.534 1.446 1.446 0 0 1 1.513 1.534v4.822a1.492 1.492 0 1 0 2.967 0v-5.488a3.44 3.44 0 0 0-3.573-3.43 4.589 4.589 0 0 0-3.171 1.348 3.505 3.505 0 0 0-3.062-1.346 5.035 5.035 0 0 0-3 1.346 3.582 3.582 0 0 0-2.67-1.346 3.282 3.282 0 0 0-3.226 2.19l-2.026 4.777zM108.579 19.629a.711.711 0 1 1 1.421 0 .711.711 0 1 1-1.421 0m1.284 0a.572.572 0 0 0-.574-.581.578.578 0 0 0-.576.583.575.575 0 1 0 1.15 0"/>
        <path d="M109.017 19.343a.076.076 0 0 1 .076-.076h.237a.268.268 0 0 1 .2.071.215.215 0 0 1 .061.157.211.211 0 0 1-.138.209l.105.128a.086.086 0 0 1 .024.058.07.07 0 0 1-.071.069.093.093 0 0 1-.075-.039l-.147-.186h-.121v.15a.074.074 0 0 1-.075.075.075.075 0 0 1-.077-.075v-.543zm.305.259c.074 0 .114-.039.114-.1 0-.064-.043-.1-.117-.1h-.151v.2h.154zM46.744 40.669h-.024a.356.356 0 0 1-.337-.253l-2.463-5.527a.5.5 0 0 1-.048-.18.3.3 0 0 1 .312-.3c.181 0 .253.108.313.24l2.235 5.275L49 34.625a.3.3 0 0 1 .588.084.37.37 0 0 1-.036.156l-2.472 5.551a.356.356 0 0 1-.336.253zM51.129 39.527a.312.312 0 0 1-.121-.24.319.319 0 0 1 .313-.312.346.346 0 0 1 .2.072 3.914 3.914 0 0 0 2.836 1.093c1.261 0 2.127-.709 2.127-1.67v-.024c0-.889-.469-1.406-2.379-1.79-2.019-.409-2.836-1.094-2.836-2.367v-.025a2.433 2.433 0 0 1 2.7-2.21 4.122 4.122 0 0 1 2.68.865.325.325 0 0 1 .132.252.319.319 0 0 1-.312.313.328.328 0 0 1-.2-.073 3.6 3.6 0 0 0-2.319-.793c-1.237 0-2.054.709-2.054 1.586v.024c0 .89.456 1.43 2.451 1.839 1.946.4 2.763 1.093 2.763 2.319v.024c0 1.358-1.165 2.3-2.787 2.3a4.756 4.756 0 0 1-3.194-1.183zM59.034 34.709a.281.281 0 0 1 .289-.3.29.29 0 0 1 .3.3v1.118a2.96 2.96 0 0 1 2.523-1.514 3.043 3.043 0 0 1 2.98 3.184v.024a3.065 3.065 0 0 1-2.98 3.208 2.948 2.948 0 0 1-2.523-1.466v2.992a.28.28 0 0 1-.288.3.291.291 0 0 1-.3-.3zm5.455 2.836v-.024a2.466 2.466 0 0 0-2.4-2.644 2.567 2.567 0 0 0-2.5 2.632v.024a2.559 2.559 0 0 0 2.5 2.631 2.4 2.4 0 0 0 2.4-2.619zM66.892 32.066a.287.287 0 0 1 .288-.3.3.3 0 0 1 .3.3V35.6a2.4 2.4 0 0 1 2.211-1.285 2.334 2.334 0 0 1 2.451 2.523v3.5a.282.282 0 0 1-.289.3.29.29 0 0 1-.3-.3v-3.394a1.871 1.871 0 0 0-1.947-2.091 2.1 2.1 0 0 0-2.126 2.187v3.292a.282.282 0 0 1-.289.3.29.29 0 0 1-.3-.3zM76.732 40.729a3.045 3.045 0 0 1-3-3.2v-.024a3.02 3.02 0 0 1 2.908-3.2 2.9 2.9 0 0 1 2.811 3.172.3.3 0 0 1-.288.276h-4.81a2.429 2.429 0 0 0 2.4 2.415 2.708 2.708 0 0 0 1.982-.841.265.265 0 0 1 .193-.084.282.282 0 0 1 .288.276.292.292 0 0 1-.1.2 3.119 3.119 0 0 1-2.384 1.01zm2.079-3.5a2.272 2.272 0 0 0-2.2-2.379 2.388 2.388 0 0 0-2.259 2.379zM81.153 34.709a.295.295 0 1 1 .589 0V36.2a2.916 2.916 0 0 1 2.463-1.838.314.314 0 0 1 .313.324.32.32 0 0 1-.313.324 2.757 2.757 0 0 0-2.463 3.064v2.259a.287.287 0 0 1-.288.3.29.29 0 0 1-.3-.3zM88.554 40.729a3.045 3.045 0 0 1-3-3.2v-.024a3.02 3.02 0 0 1 2.908-3.2 2.9 2.9 0 0 1 2.812 3.172.3.3 0 0 1-.288.276h-4.811a2.43 2.43 0 0 0 2.4 2.415 2.71 2.71 0 0 0 1.982-.841.261.261 0 0 1 .192-.084.283.283 0 0 1 .289.276.29.29 0 0 1-.1.2 3.116 3.116 0 0 1-2.384 1.01zm2.079-3.5a2.272 2.272 0 0 0-2.2-2.379 2.388 2.388 0 0 0-2.259 2.379z"/>
        <rect x="10.131" y="15.36" width="29.624" height="29.543" rx="5.118"/>
        <path d="M34.637 15.228v.263a4.992 4.992 0 0 1 4.987 4.987v19.307a4.993 4.993 0 0 1-4.987 4.987H15.25a4.994 4.994 0 0 1-4.988-4.987V20.478a4.993 4.993 0 0 1 4.988-4.987h19.387v-.263m0 0H15.25a5.265 5.265 0 0 0-5.25 5.25v19.307a5.265 5.265 0 0 0 5.25 5.249h19.387a5.265 5.265 0 0 0 5.25-5.249V20.478a5.265 5.265 0 0 0-5.25-5.25z" fill="#b0b0b0"/>
        <rect x="10.262" y="15.228" width="29.362" height="29.281" rx="4.987" fill="#3e5b8d"/>
        <g>
            <path d="M33.485 19.133H22.4a2.633 2.633 0 0 0-2.625 2.625v3.182h-2.983a2.632 2.632 0 0 0-2.625 2.625v11.092a2.632 2.632 0 0 0 2.625 2.625h11.082a2.632 2.632 0 0 0 2.626-2.625v-3.182h2.986a2.633 2.633 0 0 0 2.624-2.625V21.758a2.632 2.632 0 0 0-2.625-2.625zM33.4 31.192a1.579 1.579 0 0 1-1.575 1.575h-4.032V37a1.58 1.58 0 0 1-1.575 1.575h-7.771A1.579 1.579 0 0 1 16.873 37v-7.778a1.579 1.579 0 0 1 1.574-1.575h4.036v-4.232a1.58 1.58 0 0 1 1.575-1.575h7.771a1.58 1.58 0 0 1 1.571 1.575z" opacity=".5"/>
            <path d="M33.222 18.87H22.14a2.632 2.632 0 0 0-2.625 2.63v3.183h-2.986A2.633 2.633 0 0 0 13.9 27.3v11.1a2.634 2.634 0 0 0 2.625 2.625h11.086a2.633 2.633 0 0 0 2.625-2.625v-3.188h2.986a2.632 2.632 0 0 0 2.625-2.625V21.5a2.632 2.632 0 0 0-2.625-2.63zm-.081 12.06a1.579 1.579 0 0 1-1.575 1.575h-4.035v4.232a1.579 1.579 0 0 1-1.575 1.575h-7.771a1.579 1.579 0 0 1-1.575-1.575V28.96a1.58 1.58 0 0 1 1.575-1.575h4.036v-4.233a1.578 1.578 0 0 1 1.579-1.574h7.77a1.578 1.578 0 0 1 1.575 1.574z" fill="url(#a)"/>
        </g>
        <g>
            <path d="M30.211 23.984h-4.535a1.053 1.053 0 0 0-1.05 1.05v4.539a1.069 1.069 0 0 0 .024.221h-4.585a1.053 1.053 0 0 0-1.05 1.05v4.539a1.054 1.054 0 0 0 1.05 1.05H24.6a1.053 1.053 0 0 0 1.05-1.05v-4.541a1 1 0 0 0-.024-.221h4.585a1.053 1.053 0 0 0 1.05-1.05v-4.537a1.054 1.054 0 0 0-1.05-1.05z" opacity=".5"/>
            <path d="M29.948 23.722h-4.535a1.052 1.052 0 0 0-1.049 1.05v4.539a1.018 1.018 0 0 0 .024.221H19.8a1.053 1.053 0 0 0-1.05 1.05v4.539a1.052 1.052 0 0 0 1.05 1.05h4.535a1.053 1.053 0 0 0 1.05-1.05v-4.542a1.069 1.069 0 0 0-.024-.221H29.945A1.053 1.053 0 0 0 31 29.311v-4.539a1.052 1.052 0 0 0-1.052-1.05z" fill="url(#b)"/>
        </g>
        <path d="M34.637 15.1H15.25a5.124 5.124 0 0 0-5.119 5.118v6.846c2.907 2.3 8.45 3.863 14.812 3.863s11.906-1.558 14.813-3.863v-6.849a5.124 5.124 0 0 0-5.119-5.115z" fill="#fff" opacity=".1"/>
        <path d="M34.637 14.966H15.25A5.265 5.265 0 0 0 10 20.215v19.307a5.265 5.265 0 0 0 5.25 5.25h19.387a5.265 5.265 0 0 0 5.25-5.25V20.215a5.265 5.265 0 0 0-5.25-5.249zm4.987 24.556a4.992 4.992 0 0 1-4.987 4.987H15.25a4.993 4.993 0 0 1-4.988-4.987V20.215a4.994 4.994 0 0 1 4.988-4.987h19.387a4.993 4.993 0 0 1 4.987 4.987z" fill="#2b3e5c"/>
    </g>
</svg>
